STARTFONT 2.3
FONT -FontForge-Indie Flower-Book-R-Normal--32-320-72-72-P-148-ISO10646-1
SIZE 32 72 72  4
FONTBOUNDINGBOX 40 48 -5 -16
COMMENT "Generated by fontforge, http://fontforge.sourceforge.net"
COMMENT "Copyright (c) 2010, Kimberly Geswein (kimberlygeswein.com)"
STARTPROPERTIES 40
FOUNDRY "FontForge"
FAMILY_NAME "Indie Flower"
WEIGHT_NAME "Book"
SLANT "R"
SETWIDTH_NAME "Normal"
ADD_STYLE_NAME ""
PIXEL_SIZE 32
POINT_SIZE 320
RESOLUTION_X 72
RESOLUTION_Y 72
SPACING "P"
AVERAGE_WIDTH 148
CHARSET_REGISTRY "ISO10646"
CHARSET_ENCODING "1"
FONTNAME_REGISTRY ""
CHARSET_COLLECTIONS "ISO8859-2 ISO8859-9 ISO8859-4 ISO10646-1"
BITS_PER_PIXEL 4
FONT_NAME "IndieFlower"
FACE_NAME "Indie Flower"
COPYRIGHT "Copyright (c) 2010, Kimberly Geswein (kimberlygeswein.com)"
FONT_VERSION "1.001 2010"
FONT_ASCENT 26
FONT_DESCENT 6
UNDERLINE_POSITION -3
UNDERLINE_THICKNESS 2
X_HEIGHT 12
CAP_HEIGHT 16
RAW_ASCENT 799
RAW_DESCENT 200
NORM_SPACE 12
RELATIVE_WEIGHT 40
RELATIVE_SETWIDTH 50
SUPERSCRIPT_X 0
SUPERSCRIPT_Y 15
SUPERSCRIPT_SIZE 20
SUBSCRIPT_X 0
SUBSCRIPT_Y 4
SUBSCRIPT_SIZE 20
AVG_LOWERCASE_WIDTH 145
AVG_UPPERCASE_WIDTH 173
ENDPROPERTIES
CHARS 356
STARTCHAR space
ENCODING 32
SWIDTH 375 0
DWIDTH 12 0
BBX 1 1 0 0
BITMAP
00
ENDCHAR
STARTCHAR exclam
ENCODING 33
SWIDTH 149 0
DWIDTH 5 0
BBX 5 27 0 0
BITMAP
023000
0CB000
0BB000
0BC000
0BC000
0BC000
0BC000
0BD000
0BD000
0CD000
0CD000
0CD000
0CE000
0BE000
0BE000
0BF000
0AF000
09F100
06A000
000000
000000
000000
000000
014100
3EFD10
7FFF20
3EE700
ENDCHAR
STARTCHAR quotedbl
ENCODING 34
SWIDTH 234 0
DWIDTH 8 0
BBX 7 11 0 15
BITMAP
00003300
63007C00
9C007F20
8F107F40
6F506F60
4F906F70
1FC05F80
0CF14F90
07F53F90
01A50D90
00000310
ENDCHAR
STARTCHAR numbersign
ENCODING 35
SWIDTH 768 0
DWIDTH 25 0
BBX 24 16 0 0
BITMAP
000000000280008100000000
0000000006D002F400000000
0000000006F000E700000000
0000000006F300AC00000000
0000000006F823CFBBBBB800
000000146BFFFFFFFFDCFF60
0037BEFFFFFFBADF80000410
3CFFFE9646FC004F80000000
AFE9400001FC005FC9BCCCB3
0100000004FFBEFFFFFFFFFB
0000369CEFFFFDCFE7411242
003EFFECA7CF602FC0000000
00054100007F500FD0000000
00000000005F500DF0000000
000000000015000BF1000000
000000000000000870000000
ENDCHAR
STARTCHAR dollar
ENCODING 36
SWIDTH 581 0
DWIDTH 19 0
BBX 18 30 0 0
BITMAP
000000000060000000
0000000005F0081000
000000000AE03F2000
000000000CC05F2000
000000000ED06F2000
000000002FFEEF2000
0000002AFFFFFFA200
000003EFFF92BFE500
00001EE49F60AB0000
00003FA04F40A90000
00001EA05F30B70000
000005F9BF30D50000
0000005EFF32F30000
00000004FF6AF30000
00000000DFEFF90000
00000000DF3FFF9000
00000000EE3FC7FA00
00000000EA5F505F90
00000000F68F1008F5
00000002F3AE0001FC
7D500004F0CC0000DF
6FF50007C0EB0000CF
06EF500BB1FA0000ED
002BF87FA3FA0003FA
00005DFFEAFA000BF4
000001AFFFFB01AF90
0000000FFEFFEFF800
0000000FE7FEB82000
0000000EB4F7000000
0000000752E3000000
ENDCHAR
STARTCHAR percent
ENCODING 37
SWIDTH 636 0
DWIDTH 20 0
BBX 20 20 0 0
BITMAP
00000000000000004100
0000000000000005E100
000462000000004F5000
02DFFF91000002E90000
0DFA7BFA00000CC00000
6F90009F40008D100000
AF30003F6004F3000000
AF20005F401D70000000
5F8005EC00AC00000000
08FCEFD205F400000000
004AB7101EB000179300
00000000AF3003DFFF50
00000005FB001DE65EE1
0000001EF3009F4007F7
0000008FA001F90004F8
000002FF2006F20007F5
000009F90009E0002EE1
00001EE10008E226EF50
00005F600002EFFFF600
00006B00000029B93000
ENDCHAR
STARTCHAR ampersand
ENCODING 38
SWIDTH 457 0
DWIDTH 15 0
BBX 14 24 0 -1
BITMAP
00000120000000
00000DF7000000
00003FFF200000
00004FFF500000
00004FFF600000
00005FFF500000
00006FFF300000
00007FFD000000
00007FF7000000
00007FE1000000
0000AF7004EEFD
0001EF5006FDB8
0007FF9007F400
001EEAE00AE000
008F42F71EB000
01FA008EEF7000
08F3001FFF2000
1EC0000CFA0000
6F70002FFD0000
9F3001DE7E6000
AF402DF305E200
5FD9EF50007C00
07FFD400000620
00010000000000
ENDCHAR
STARTCHAR quotesingle
ENCODING 39
SWIDTH 102 0
DWIDTH 3 0
BBX 3 9 0 15
BITMAP
0200
5D00
6F40
5F70
4F90
3FA0
1FB0
0BB0
0230
ENDCHAR
STARTCHAR parenleft
ENCODING 40
SWIDTH 421 0
DWIDTH 14 0
BBX 13 21 0 -2
BITMAP
00000000048810
00000003CFFFC0
0000005EE846A0
000005FA100000
00004F90000000
0002EB00000000
000BE100000000
006F6000000000
01ED0000000000
07F60000000000
0DF10000000000
3FA00000000000
5F700000000000
5F600000000000
3F700000000000
0EB00000000000
0AF50000000000
02FF7100000000
006FFEB8500000
0004CFFFE00000
00000233100000
ENDCHAR
STARTCHAR parenright
ENCODING 41
SWIDTH 290 0
DWIDTH 9 0
BBX 9 21 0 -2
BITMAP
06EB400000
02AFF70000
0006FF5000
00007FE100
00000BF800
000002FE00
000000AF40
0000005F80
0000002FA0
0000001FB0
0000003F80
0000007F30
000001EC00
000008F600
00003FD000
0001DF6000
001CFC0000
01CFF30000
1CFF600000
9FF7000000
5B40000000
ENDCHAR
STARTCHAR asterisk
ENCODING 42
SWIDTH 412 0
DWIDTH 13 0
BBX 13 13 0 7
BITMAP
00000000001610
0030000004DF30
06FA18908FE500
00AFEDFCFB2000
0009FFFFFA8200
0152EFFFFFD300
3EFEFFFFFB0000
266FF9DFFC0000
007FB05FFF4000
00CE201FFFD100
00D6000CFBF400
00000009D03000
00000004400000
ENDCHAR
STARTCHAR plus
ENCODING 43
SWIDTH 459 0
DWIDTH 15 0
BBX 14 14 0 0
BITMAP
00000420000000
00000DB0000000
00000BF1000000
000007F5000000
000005F9000000
000004FE531000
01369DFFFFFECA
9FFFFFFFFFFFFB
697420DF600000
000000BF600000
0000008F600000
0000006F600000
0000005F600000
0000003E300000
ENDCHAR
STARTCHAR comma
ENCODING 44
SWIDTH 130 0
DWIDTH 4 0
BBX 4 11 0 -6
BITMAP
0730
5FD0
3EF0
0BF1
0CF0
0EE0
2FB0
5F90
8F50
AF10
9800
ENDCHAR
STARTCHAR hyphen
ENCODING 45
SWIDTH 375 0
DWIDTH 12 0
BBX 11 4 0 7
BITMAP
000011233100
06CFFFFFFF70
5FFFDBA9BDA0
232000000000
ENDCHAR
STARTCHAR period
ENCODING 46
SWIDTH 204 0
DWIDTH 7 0
BBX 5 6 1 0
BITMAP
06E700
1EFF30
7FFF80
8FFF90
3FFF30
08E600
ENDCHAR
STARTCHAR slash
ENCODING 47
SWIDTH 309 0
DWIDTH 10 0
BBX 10 24 0 0
BITMAP
00000000B3
00000003F4
00000007F2
0000000AE0
0000000DA0
0000004F60
0000009F20
000001EC00
000005F800
00000BF300
00001FD000
00006F8000
0000CF3000
0002FD0000
0008F80000
000DF20000
003FC00000
009F600000
01EE100000
07F9000000
0EF3000000
5FC0000000
9F40000000
6A00000000
ENDCHAR
STARTCHAR zero
ENCODING 48
SWIDTH 430 0
DWIDTH 14 0
BBX 13 14 0 0
BITMAP
00002AEE910000
0006FFFFFE3000
006FA324AFE200
03F9000007FB00
0BD1000000AF40
2F700000003FA0
5F300000000FD0
5F200000000DD0
3F400000000FC0
0E900000007F80
07F5000001EF30
00BF71002BF900
001BFFDDFFC100
00005AEFD70000
ENDCHAR
STARTCHAR one
ENCODING 49
SWIDTH 318 0
DWIDTH 10 0
BBX 10 19 0 0
BITMAP
00000000A5
00000003F7
00000006F6
00000009F4
0000001EF3
000000BFF1
00000AFFE0
0000AFFFC0
0009FCFFA0
009FB0CF80
08FD10DF60
5FD200EF40
4A1000FF20
000001FF00
000002FD00
000003FA00
000004F700
000005F400
000002D000
ENDCHAR
STARTCHAR two
ENCODING 50
SWIDTH 497 0
DWIDTH 16 0
BBX 15 18 0 0
BITMAP
0000000025400000
00000006FFFC1000
0000002FB27FA000
0000005F300CF200
0000005C0006F700
000000020002FB00
000000000000FD00
000000000000FD00
000000000002FC00
000000000005F900
00000000000AF500
00000000001EE000
00000000007F6000
3ACA500002E80000
AFFFFE966EE10000
6FFFFFFFFFE62000
08FFFFFFFFFFFFA0
001565421258CEC0
ENDCHAR
STARTCHAR three
ENCODING 51
SWIDTH 430 0
DWIDTH 14 0
BBX 13 17 0 0
BITMAP
03BCCCCC910000
0BFECBBCFD1000
06A000003E8000
000000000CB000
000000007F9000
0000026CFA1000
004ADFFF700000
00BFFFFF700000
00026ADFFD3000
000000039FE400
0000000003EE20
05000000005F90
5FA00000000FD0
1CFA1000000EE0
01AFD500007FB0
0006EFEDCEFE30
000028CEFD9200
ENDCHAR
STARTCHAR four
ENCODING 52
SWIDTH 412 0
DWIDTH 13 0
BBX 13 20 0 0
BITMAP
00130000000000
00DE0000000000
04FB0000000000
09F60000000000
0EF10000000000
2FA00000000410
4F500000001E80
5F200000007F70
6F20000001EF50
4F40000008FF20
2F9000005FFE00
0DE30006FFFC00
07FE87BFFFFB00
00BFFFFFA5FB00
0018CDA400FD00
0000000000FF00
0000000000FF20
0000000000EF40
0000000000DF40
00000000009D10
ENDCHAR
STARTCHAR five
ENCODING 53
SWIDTH 571 0
DWIDTH 18 0
BBX 18 22 0 0
BITMAP
000000000011110000
0000002AEFFFFFFD80
000001EFFCBBBCCEF4
0000007F4000000010
000000CD0000000000
000005F60000000000
00000DE10000000000
00006FA00000000000
0000DFE96100000000
0001FFFFFFA3000000
00001357AEFF900000
00000000004BFB0000
0000000000007F8000
0000000000000AF100
00000000000004F600
16000000000002F800
5E000000000003F900
6E000000000008F800
4F40000000005FF300
0CFD9631236BFF8000
01AFFFFFFFFFF70000
00027ADEFFC8200000
ENDCHAR
STARTCHAR six
ENCODING 54
SWIDTH 440 0
DWIDTH 14 0
BBX 14 20 0 0
BITMAP
00000000002200
000000018EFFB0
0000005EFDAEF2
000007FE600160
00007FC2000000
0005FB00000000
001EC100000000
00AF3000000000
02F90000000000
09F88BCCB71000
0EFFFECACFE500
3FF9300006FF30
5F800000007FB0
6F200000000CF1
5F4000000009F3
2FA00000000CF2
0DF50000006FD0
06FF94125AFF50
00AFFFFFFFE500
0006CFFEB71000
ENDCHAR
STARTCHAR seven
ENCODING 55
SWIDTH 412 0
DWIDTH 13 0
BBX 13 18 0 0
BITMAP
01000000000000
1FFEDCCCC80000
06ABBAABF90000
00000002F90000
00000002F80000
00000002F80000
00000003F70000
00000006F60000
0002333CF83100
008FFFFFFFFF50
003778AFF7AF80
0000003FC00100
0000004F900000
0000007F500000
000000AF200000
000000EE000000
000002FB000000
000002E6000000
ENDCHAR
STARTCHAR eight
ENCODING 56
SWIDTH 375 0
DWIDTH 12 0
BBX 12 19 0 0
BITMAP
000034200000
002BFFFB2000
02EFCADFD100
0DF6000CF400
6F800009F200
6F30002FA000
3FB101CD1000
06FD5BF30000
004EFFB00000
0008FFD10000
005FA6EB1000
02ED101CD200
08F70001CD10
09F400003F90
07F600000AF0
02FD100006F1
007FB1000AE0
0007FE87CF80
000029EFD800
ENDCHAR
STARTCHAR nine
ENCODING 57
SWIDTH 300 0
DWIDTH 10 0
BBX 10 19 0 0
BITMAP
005CEEA200
06FD98EE30
2FC1001ED0
7F50000DF3
AF20002FF4
AF30006FF2
8F8000AFE0
3FE400EFC0
05EFDEFFB0
00169CFF90
0000007F80
0000005F70
0000005F60
0000005F50
0000005F50
0000006F50
0000006F50
0000005F50
0000002E60
ENDCHAR
STARTCHAR colon
ENCODING 58
SWIDTH 84 0
DWIDTH 3 0
BBX 3 9 0 2
BITMAP
4900
4F50
0710
0000
0000
0000
0000
3D10
2900
ENDCHAR
STARTCHAR semicolon
ENCODING 59
SWIDTH 128 0
DWIDTH 4 0
BBX 5 19 -1 -6
BITMAP
026100
06F800
03F900
003100
000000
000000
000000
000000
000400
003F20
006F40
007F40
009F20
00DF00
06FC00
0DF700
4FF200
7FA000
6B1000
ENDCHAR
STARTCHAR less
ENCODING 60
SWIDTH 487 0
DWIDTH 16 0
BBX 15 14 0 0
BITMAP
0000000000000100
0000000000019F70
00000000005EF910
000000001AFD4000
00000005EF910000
0000019FE4000000
00003DF910000000
0008FD4000000000
01BFA10000000000
1BFA000000000000
BFFFB85200000000
5BFFFFFFFDA61000
001368ACDFFFE400
000000000039E700
ENDCHAR
STARTCHAR equal
ENCODING 61
SWIDTH 524 0
DWIDTH 17 0
BBX 16 9 0 4
BITMAP
0023455555555420
3DFFFFFFFFFFFFF7
1899AAA9875437EC
0000000000000001
0000000000000000
0000000000000000
0000000001111000
3BCDEFFFFFFFFD60
2BCCCCCCCCCCCC70
ENDCHAR
STARTCHAR greater
ENCODING 62
SWIDTH 403 0
DWIDTH 13 0
BBX 13 15 0 0
BITMAP
1A810000000000
0DFC2000000000
02BFFA40000000
0005DFFE951000
000004AEFFFE60
0000000036FFA0
0000000002FF70
000000001CFB00
00000003DFA000
0000007FF70000
00002BFD300000
0005EFA1000000
019FE600000000
0CFC2000000000
1E800000000000
ENDCHAR
STARTCHAR question
ENCODING 63
SWIDTH 272 0
DWIDTH 9 0
BBX 9 28 0 0
BITMAP
0389710000
6FFFFE4000
B9447EF200
200004FA00
000000CE00
000000BF10
000000CF10
000001FE00
000007FA00
00000DF400
00007FD000
0001EF6000
0008FD0000
001EF50000
006FB00000
008F600000
007FFDA500
0018EFFC00
0000012000
0000000000
0000000000
0000000000
0000000000
0000000000
0000000000
0000004200
000003FB00
000002E900
ENDCHAR
STARTCHAR at
ENCODING 64
SWIDTH 815 0
DWIDTH 26 0
BBX 26 30 0 -1
BITMAP
00000000026787300000000000
00000004CFFFFFFD8100000000
000001AFE941159EFE71000000
00002DF9100000005CFD300000
0002DE4000000000006DF70000
000CE200000000000001AF9000
007F30000000000000000AF900
01E7000000000000000000CF50
07D00000000000100000003FC0
0D7000000006CFFFB500000CF0
2F20000002DEA769EFC20007F2
5E0000002EC2000019FD0005F3
6C000000BD100000009F1004F3
5D000004F40000009C150006F2
4E00000AD0000001FF400009F1
3F20000E90000002FF60000DD0
0E60001F60000003FF60004F90
0BB0001F60000003FF6000CF40
06F3000E9000000BFFE419FB00
01EA0009E20001BFB8FFFFE200
008F4001EE868EFA105BD92000
001ED1003CFFFE600000000000
0005FA00003541000000000000
00009F90000000000000000000
00000BFA000000000000000000
0000009FC30000000000000000
00000007FF92000000047BDE00
000000002BFFC9779BFFFFC400
00000000004BFFFFFECA730000
00000000000001110000000000
ENDCHAR
STARTCHAR A
ENCODING 65
SWIDTH 562 0
DWIDTH 18 0
BBX 18 25 0 0
BITMAP
000000034300000000
000018EFFFD5000000
0001CE8447EF800000
0009E300001CF50000
001F70000001EE1000
006E100000005F7000
00AA000000000CD000
00D70000000006F300
01F40000000001F800
02F20000000000CC00
04F100000000009F10
05F000000000006F40
06E000000000004F70
07E000000000004F90
1AFCBA987765439FB0
4FFFCBAABCEFFFFFD0
08F500000001332FE0
03F400000000000DF0
04F500000000000BF1
04F700000000000BF2
03FA00000000000BF2
01FC00000000000DF2
00DF00000000001FF0
00AF20000000004FE0
003E20000000004F60
ENDCHAR
STARTCHAR B
ENCODING 66
SWIDTH 741 0
DWIDTH 24 0
BBX 24 23 0 0
BITMAP
000000002210000000000000
00037ADFFFFD830000000000
18EFEFFFFFEEFFA100000000
5E9308FE610018FD10000000
100001EE0000006FA0000000
0000008F3000000EC0000000
0000004F7000001F90000000
0000001FA00001AE20000000
0000000CE0048EF600000000
00000009F2AFFFC000000000
00000007F65EFFFB30000000
00000004F9017DFFF9100000
00000002FC000038EFD30000
00000000EE00000017EE5000
00000000CF200000001BF500
00000000AF5000000001CE20
000000008F60000000005FA0
000000006F70000000001FF0
000000005F70000000001FF1
00000005EF50000000005FF0
00000009FFE720000015EF90
000000007EFFFECBCDFFFB10
000000000147ACEFFFDA5000
ENDCHAR
STARTCHAR C
ENCODING 67
SWIDTH 515 0
DWIDTH 17 0
BBX 16 21 0 0
BITMAP
0000000027A91000
0000002AFFFF8000
000004EFD77F8000
00005FE7000E4000
0003FC20005A0000
001DC10000200000
008E100000000000
02F4000000000000
08C0000000000000
0E60000000000000
3F30000000000000
5F10000000000000
6F20000000000000
5F30000000000000
3F50000000000000
0F90000000000000
0AE1000000000000
04FA000000001342
00BFB31247ADFFF6
002DFFFFFFFFC940
00019EFDA7410000
ENDCHAR
STARTCHAR D
ENCODING 68
SWIDTH 741 0
DWIDTH 24 0
BBX 23 22 0 -1
BITMAP
000000110000000000000000
027BDFFFFDB7300000000000
3FFFECBBBFFFFD7100000000
3B4100000DF78EFE70000000
0000000008F5007EFC200000
0000000005F60001AFE40000
0000000002F8000006FF4000
0000000000FA0000006FE200
0000000000CD00000008FA00
0000000000AF00000000DF20
00000000009F300000006F70
00000000008F500000002FA0
00000000007F700000000FC0
00000000006F900000001FB0
00000000006FA00000005F90
00000000005FA0000000CF60
00000000003FA0000009FE10
00000000000E7000019FF600
00000001A62000005DFF8000
00000002EFFD99AEFFE60000
000000003BFFFFFFD8100000
000000000013554100000000
ENDCHAR
STARTCHAR E
ENCODING 69
SWIDTH 524 0
DWIDTH 17 0
BBX 16 20 0 0
BITMAP
08CBBAA999999600
0EFFFFFFFFFFEF80
0ED3322111000250
0ED0000000000000
0ED0000000000000
0ED0000000000000
0ED0000000000000
0ED000000368AA10
2FE889BDFFFFD500
4FFFEDCB97520000
2FB1000000000000
2F70000000000000
3F60000000000000
4F50000000000000
5F50000000000000
6F60000000000000
5F60000000000000
2FA211224579AA91
09FFFFFFFFFFFFD1
007CFFFFFEDB8500
ENDCHAR
STARTCHAR F
ENCODING 70
SWIDTH 514 0
DWIDTH 16 0
BBX 21 20 -1 0
BITMAP
0000000112221000000000
0269BDFFFFFFFFDB840000
AFFFFFFFFDDDDEFFFFD400
52223EF9100000159DFF40
00000AF300000000003540
000009F200000000000000
000009F200000000000000
000008F200000000000000
000006F400000000000000
000008FB33444310000000
00369FFFFFFFFFF5000000
007EDEFFFFFEDA60000000
000000DF31100000000000
0000009F30000000000000
0000007F50000000000000
0000006F60000000000000
0000006F90000000000000
0000004FC0000000000000
0000002FE0000000000000
0000000880000000000000
ENDCHAR
STARTCHAR G
ENCODING 71
SWIDTH 571 0
DWIDTH 18 0
BBX 17 20 1 -3
BITMAP
000000000158BA5000
00000003AEFFFFF500
000001AFD842138700
00006EE60000000000
0009FA100000000000
009F90000000000000
06F900000000000000
1EC000074000132000
8F40000EFEEFFFF700
CD000004999999FC00
EA000000000000CC00
E9000000000000DC00
BC000000000002FC00
6F80000000001CFC00
0CFB41011248EFFC00
02CFFFFFFFEBA9FC00
0006ACB9630001FC00
00000000000000EF50
000000000000007FA0
000000000000000200
ENDCHAR
STARTCHAR H
ENCODING 72
SWIDTH 524 0
DWIDTH 17 0
BBX 16 22 0 0
BITMAP
0000000000000280
0840000000000BC0
0C70000000000CA0
0C90000000000DA0
0BB0000000000DA0
0BD0000000000DB0
0AE0000000000EB0
08F1000000000EB0
07F3000000001EB0
06F500000018EFB0
04F7000018EFEFC0
04F80029FFD61ED0
03FC6BFFC5000CE0
06FFFFB400000BE0
6FFFA30000000AF0
03EF3000000009F1
00AF3000000008F3
008F3000000008F5
006F3000000007F6
005F3000000005F8
003F4000000002FB
00091000000000BA
ENDCHAR
STARTCHAR I
ENCODING 73
SWIDTH 167 0
DWIDTH 5 0
BBX 5 18 0 0
BITMAP
550000
6E1000
4F5000
1FA000
0CD000
08F200
04F500
02F800
00EB00
00CE00
00BF10
009F30
007F50
006F70
004F90
002FB0
001FC0
0008A0
ENDCHAR
STARTCHAR J
ENCODING 74
SWIDTH 439 0
DWIDTH 14 0
BBX 14 23 0 0
BITMAP
00000000004100
0000000000E700
0000000000CC00
0000000000AF10
00000000008F40
00000000006F60
00000000004F90
00000000002FB0
00000000000EE0
00000000000CF1
00000000000AF2
022000000008F4
2E4000000006F5
4F5000000005F7
1FA000000004F7
08F300000004F7
00CC00000004F7
001DA0000005F6
0003E9000007F4
00004EA10009F2
000004ED500EC0
0000002CFEDF60
000000017DF800
ENDCHAR
STARTCHAR K
ENCODING 75
SWIDTH 468 0
DWIDTH 15 0
BBX 15 19 0 0
BITMAP
2700000006900000
6F100001CF700000
5F30001CF9000000
4F5000CFA0000000
2F700AFB00000000
0E806FC100000000
0CA3FD1000000000
0ADDE20000000000
09FF400000000000
07FC000000000000
07FF900000000000
07FFF70000000000
07F6EF9000000000
07F33DFB10000000
07F501AFD4000000
05F70006EF910000
04F900002BFD4000
01FA0000006EFA00
00A800000002BF20
ENDCHAR
STARTCHAR L
ENCODING 76
SWIDTH 346 0
DWIDTH 11 0
BBX 11 19 0 -1
BITMAP
001000000000
01E300000000
05F500000000
08F500000000
0BF300000000
0DF100000000
0EE000000000
1FD000000000
2FB000000000
3F9000000000
4F7000000000
5F6000000000
6F6000000000
5F6000000000
3FA000000000
0DF853210000
04EFFFFFED60
0029DEFFFE50
000000010000
ENDCHAR
STARTCHAR M
ENCODING 77
SWIDTH 534 0
DWIDTH 17 0
BBX 17 21 0 -1
BITMAP
282000000000045000
5FE2000000001EE000
1EFB000000005FF000
07FF40000000BFE000
01FFD0000004FFD000
00DFFA00002DFFC000
00EDCFC879EFFFB000
00FB1CFFFFFCAFB000
00FB005996201FC000
01FB000000000DD000
01FB000000000CF000
02FB000000000BF200
03FB0000000009F500
03FB0000000008F700
03FB0000000006FA00
03FB0000000004FC00
03FB0000000003FF00
03FB0000000001FF10
01EA0000000000FF20
00100000000000CF20
000000000000000100
ENDCHAR
STARTCHAR N
ENCODING 78
SWIDTH 609 0
DWIDTH 20 0
BBX 19 18 0 0
BITMAP
00100000000000000000
0AD00000000000000000
0AF20000000002D40000
08F60000000002FE2000
07FA0000000000EF9000
07FE10000000008FF100
08FF50000000001EF700
08FFB00000000007FC00
09FFF30000000000DF10
0BFEF900000000007F50
0CD0BF20000000004F80
0DB03FB0000000003FA0
0EB008F6000000005F90
0FC001DF50000000AF50
1FE0003EF8000004FE10
1FF00004FFE966AFF500
1FF000003CFFFFFE5000
0AA000000059A9610000
ENDCHAR
STARTCHAR O
ENCODING 79
SWIDTH 609 0
DWIDTH 20 0
BBX 19 16 0 0
BITMAP
00001575100000000000
0008FFFFFC7200000000
00AFC668BFFF92000000
07F90000016DFE500000
0EC0000000007EF70000
4F500000000003DF7000
6F2000000000002EF300
6F10000000000005FB00
4F30000000000000CF20
2F800000000000006F60
0DE20000000000004F80
06FC1000000000007F60
00CFC20000000006FE10
002DFF82000026CFE400
0001AFFFCABDFFFA2000
0000038CEFDB95100000
ENDCHAR
STARTCHAR P
ENCODING 80
SWIDTH 627 0
DWIDTH 20 0
BBX 20 20 0 0
BITMAP
00000222100000000000
028CFFFFFDB840000000
3EFB9899BEFFFE930000
5F7000000015AEFF9100
5D0000003000017DFD10
12000002F1000001AFB0
00000003F30000000BF4
00000003F400000005F7
00000003F500000005F8
00000003F70000000BF6
00000003FA000001AFC0
00000002FD42249EFC10
00000000FFFFFFFE6000
00000000DFFFDA400000
00000000BF4100000000
000000009F4000000000
000000006F6000000000
000000003F7000000000
000000000E8000000000
00000000095000000000
ENDCHAR
STARTCHAR Q
ENCODING 81
SWIDTH 642 0
DWIDTH 21 0
BBX 21 22 0 -4
BITMAP
0000000220000000000000
000029EFFE920000000000
0005EFCCDFFF9100000000
004FB200018FFD20000000
01EB0000000BFFE5000000
07F300000008F4EF500000
0CE00000000BC03EF40000
1FA0000000084003EE2000
2F900000000000005FA000
2F900000000000000AF300
1F9000000140000003F900
0DD0000004F5000000EB00
08F4000000DE300000EA00
01ED2000004FC0000AF400
005FD400000CF915DFA000
0007FFB5223DFFFFF90000
00004DFFFFFFFFFF800000
0000006ADEECBADF900000
0000000000000007F80000
00000000000000006FD400
000000000000000006FF90
0000000000000000003940
ENDCHAR
STARTCHAR R
ENCODING 82
SWIDTH 579 0
DWIDTH 19 0
BBX 19 22 -1 -2
BITMAP
0027ACDEEEDA72000000
06FFFEDDDEFFFFB20000
2FD5100000036CFE5000
4F3000000000007FF300
0A00081000000006F900
00001F6000000001FC00
00002F600000002CFA00
00001FA000015AFFE200
00000FE579CFFFF92000
00000DFFFFFEA6100000
00000BFEA63000000000
000009FE200000000000
000006FFD10000000000
000003FAFB0000000000
000000F76FA000000000
000000CA06FB10000000
0000008E005FC2000000
0000004F2004EE400000
0000001E40003DF91000
00000007100001BFE600
0000000000000006EF80
00000000000000001410
ENDCHAR
STARTCHAR S
ENCODING 83
SWIDTH 627 0
DWIDTH 20 0
BBX 20 21 0 -1
BITMAP
00000000023200000000
0000006CFFFFFC820000
00001CFC85446DFF6000
00008F400000006EF300
0000CB00000000015200
0000AD00000000000000
00005F80000000000000
00000AFB200000000000
0000008FF81000000000
00000002AFE920000000
0000000003BFFA200000
000000000004CFF91000
05300000000006DFE400
2F60000000000007EF40
4F900000000000003FD0
0EE10000000000000DF3
04FC1000000000000DF2
004EE720000000007FC0
00019EFECA9889BEFD20
0000016ADFFFFFFC6100
00000000012332000000
ENDCHAR
STARTCHAR T
ENCODING 84
SWIDTH 581 0
DWIDTH 19 0
BBX 22 20 0 0
BITMAP
6766665543321000000000
9EFFFFFFFFFFFFDCA85200
0013578ABCFEBACEFFFFB1
0000000001F80000259BD3
0000000000F90000000000
0000000000EA0000000000
0000000000DB0000000000
0000000000CD0000000000
0000000000BF0000000000
00000000009F2000000000
00000000008F4000000000
00000000006F6000000000
00000000005F8000000000
00000000003FB000000000
00000000001FD000000000
00000000000EF100000000
00000000000CF400000000
00000000000AFA00000000
000000000006FF30000000
000000000001CF50000000
ENDCHAR
STARTCHAR U
ENCODING 85
SWIDTH 571 0
DWIDTH 18 0
BBX 18 18 0 0
BITMAP
004300000000000000
05FA000000000B5000
0CC1000000000EA000
0F70000000001FE000
1F60000000001FF000
2F60000000000FF100
2F60000000000DF100
1F700000000009F200
0E900000000005F500
0CB00000000002F900
09E00000000000EE00
05F30000000000EF40
01FA0000000006FFA0
00BF200000003EFFF1
005FC1000006EFCFF6
000BFD5237CFB208FA
0001DFFFFFE60001DB
000019EFD810000000
ENDCHAR
STARTCHAR V
ENCODING 86
SWIDTH 421 0
DWIDTH 14 0
BBX 13 17 0 0
BITMAP
37100000000530
5F900000000D90
1FF30000003FA0
0AFA0000007F90
05FF100000AF70
00DF700000DF50
007FD00001FF20
001FF50004FE00
0009FC0007FA00
0003FF400AF600
0000BFA00DF200
00004FF21FD000
00000CF95F8000
000004FEBF2000
000000CFFB0000
0000004FF30000
0000000B700000
ENDCHAR
STARTCHAR W
ENCODING 87
SWIDTH 703 0
DWIDTH 23 0
BBX 22 16 0 0
BITMAP
2B00000000000000005000
8F0000000000000004F800
AF1000000000000003FF10
AF2000000000000000EF70
AF30000000000000009FC0
9F50000000000000003FF2
8F6000000C400000000CF5
6F8000000EA000000007F9
4F9000000EE000000002FC
1FC000000FF300000000ED
0DE000003FFA00000000ED
09F40000CFFF30000003FA
04FB000AFD8FD200001DF4
00BFA6CFC205FE6226DF90
002DFFFB10004EFFFFF900
00018B60000002AEEA4000
ENDCHAR
STARTCHAR X
ENCODING 88
SWIDTH 534 0
DWIDTH 17 0
BBX 17 19 0 -2
BITMAP
003900000000000000
003F60000000005A70
000CE10000001CFC30
0004F9000001DF8000
00009F30002DE40000
00001DC003ED200000
000005FA9FC1000000
000000DFFC10000000
000000DFE100000000
000009FFF200000000
00006FCBFB00000000
0003FD11CF70000000
001DF3001DF3000000
009F700003FD100000
03FC0000006FB00000
0BF300000009F60000
2FA0000000009D0000
5F3000000000000000
490000000000000000
ENDCHAR
STARTCHAR Y
ENCODING 89
SWIDTH 403 0
DWIDTH 13 0
BBX 13 22 0 -1
BITMAP
36000000000000
6E100000000610
4F800000004F40
1EF30000006F30
07FD100000BF10
00CFB10002FD00
001CFB2009F800
0001AFE85FF300
000006EFFFD000
00000018FF7000
00000000EF1000
00000003FA0000
00000008F50000
0000000CE00000
0000001F900000
0000005F600000
0000007F300000
0000009F100000
000000AF000000
000000AF000000
000000AF100000
00000026000000
ENDCHAR
STARTCHAR Z
ENCODING 90
SWIDTH 571 0
DWIDTH 18 0
BBX 18 20 0 0
BITMAP
017BCCA96200000000
3EFFDBCEFF91000000
5C7200003AFB000000
00000000008F500000
00000000000DA00000
00000000000AC00000
00000000000CC00000
00000000001F800000
00000000008F500000
000000247CFFEBA720
0002AEFFFFFFFFFD40
0007DBA9EFF9313000
00000000AF60000000
00000001E900000000
0000000BE100000000
0000008F6000000000
000004FC0000000242
000009F700147BEFFB
000007FECEFFFFFEA3
000001CFFFEDA73000
ENDCHAR
STARTCHAR bracketleft
ENCODING 91
SWIDTH 477 0
DWIDTH 15 0
BBX 18 26 0 -3
BITMAP
000000000014674000
000000159DFFFD7000
00016BFFFD95200000
04AFFFB72000000000
4FFC71000000000000
4FC000000000000000
0EE000000000000000
0AF400000000000000
06F900000000000000
02FE00000000000000
00DF10000000000000
009F40000000000000
005F60000000000000
002F80000000000000
000EA0000000000000
000CC0000000000000
0009E0000000000000
0007F0000000000000
0004F2000000000000
0002F4000000000000
0001F6000000000000
0000F8000000000000
0000EB000000000000
0000DF76789AABBB90
0000CFFFFFFFFFFFF5
00008C743211111110
ENDCHAR
STARTCHAR backslash
ENCODING 92
SWIDTH 430 0
DWIDTH 14 0
BBX 14 18 0 0
BITMAP
31000000000000
9C100000000000
3FB00000000000
0AFA0000000000
01DF9000000000
003FF700000000
0006FF50000000
0000AFE3000000
00001CFD100000
000002EFC00000
0000005FF90000
00000008FF5000
00000000BFE200
000000001DFC00
0000000003EF60
00000000006FE0
00000000001FF3
00000000000AC0
ENDCHAR
STARTCHAR bracketright
ENCODING 93
SWIDTH 430 0
DWIDTH 14 0
BBX 14 30 0 -3
BITMAP
37875310000000
6EFFFFFEB60000
00369CEFFF9000
000000026EF300
0000000009F800
0000000004FB00
0000000000EE00
0000000000BF10
00000000008F20
00000000006F20
00000000004F30
00000000003F40
00000000002F50
00000000000F50
00000000000E60
00000000000E70
00000000000D80
00000000000D90
00000000000DA0
00000000000CA0
00000000000DB0
00000000000DC0
00000000000DD0
00000000000DE0
00000000000DF0
00000000000DF1
00000000000DF2
00466666666EF2
00EFFFFFFFFFF3
00AFFFFFFFFFC1
ENDCHAR
STARTCHAR asciicircum
ENCODING 94
SWIDTH 375 0
DWIDTH 12 0
BBX 10 8 1 16
BITMAP
0000330000
0000CF3000
0002FFD200
000BFFFC10
009FB9FFA0
1BFC108FF2
4FB10008F3
0100000020
ENDCHAR
STARTCHAR underscore
ENCODING 95
SWIDTH 656 0
DWIDTH 21 0
BBX 21 4 0 0
BITMAP
0442100000000000000000
1CFFFDBA98876666665300
00269CEFFFFFFFFFFFFF40
0000000135689ABCDEFF40
ENDCHAR
STARTCHAR grave
ENCODING 96
SWIDTH 172 0
DWIDTH 6 0
BBX 5 4 0 14
BITMAP
3A3000
1DF700
02DF80
001BD0
ENDCHAR
STARTCHAR a
ENCODING 97
SWIDTH 505 0
DWIDTH 16 0
BBX 16 16 0 0
BITMAP
000008DD92000000
00005FEEFF700000
000036005EF90000
0000000001CF7000
00000000001EF200
000000000008F900
00028BDCB845FF10
007FFFECCFFEFF70
07FE8300017EFFC0
1FD100000003EFE0
5F40000000003FF1
5F300000000007F2
1EC2000000000191
07FE95323468ABB3
006EFFFFFFFFFE81
00016ACDFEB83000
ENDCHAR
STARTCHAR b
ENCODING 98
SWIDTH 497 0
DWIDTH 16 0
BBX 16 21 0 0
BITMAP
0310000000000000
7F40000000000000
AF50000000000000
7F70000000000000
5F80000000000000
2FA0000000000000
0FC0000000000000
0DE0000000000000
0AF0000000000000
08F3000000000000
05FA9BBA73000000
03FFFFFFFFD70000
01FF91025AFFC200
00FF1000001AFE20
00ED000000007FB0
00CD000000000BF2
00AF2000000007F4
006FB00000001DF3
001EFC400004CFD0
0005FFFECCEFFE30
00003AEFFEDB7100
ENDCHAR
STARTCHAR c
ENCODING 99
SWIDTH 449 0
DWIDTH 14 0
BBX 14 14 0 0
BITMAP
00004AEFD81000
0009FD98BFD100
00AF700006F500
06F8000000B400
0DE10000006000
3F900000000000
5F600000000000
6F600000000000
4F800000000000
1FD00000000000
0AF90000000000
02EFC510000000
003DFFFECCBCC5
00005ADEFFEC81
ENDCHAR
STARTCHAR d
ENCODING 100
SWIDTH 524 0
DWIDTH 17 0
BBX 16 23 0 0
BITMAP
00000000005B0000
00000000008F8000
00000000006FE100
00000000002FF700
00000000000EFC00
000000000009FF00
000000000005FF40
000000000001FF70
000000000000DF90
0004CEEB5000AFB0
007FFFFFFC409FD0
03FFE967BFF9AFF0
0AFE200003CFFFF1
1FF400000009FFF2
4FD000000000BFF4
6F9000000000CFF5
6F8000000002FFF6
4FC00000000AFFF7
1EF10000008FEFF9
0AF8000019FE27FA
02FF7237EFE302FD
006FFFFFFB100079
0005DFDA30000000
ENDCHAR
STARTCHAR e
ENCODING 101
SWIDTH 515 0
DWIDTH 17 0
BBX 16 17 0 0
BITMAP
0000026861000000
0002BFFFFE500000
003EE7205EF20000
01DE200005F80000
07F4000000EA0000
0DC0000000DB0000
2F80000008F70000
5F600003BFD10000
6F6877BFFC200000
5F7CFFEB50000000
3F90210000000000
0DD0000000000000
07F6000000000000
00CF600000000000
002DFD8420012342
0001AFFFFFFFFFA1
0000028CEFEC8200
ENDCHAR
STARTCHAR f
ENCODING 102
SWIDTH 376 0
DWIDTH 12 0
BBX 16 23 -1 0
BITMAP
0000000057730000
0000003DFFFFB200
000002EFA54AFE30
00000BF500008FD1
00002F70000008F6
00007E1000000032
0000AA0000000000
0000C90000000000
0000E90000000000
0000FB0000000000
0000FD0000000000
0000FF0000000000
0002FF7431000000
1BFFFFFFFFFE1000
3DA79FFBCDDA1000
00000EF400000000
000007F900000000
000001EF20000000
0000008FB0000000
0000001EF6000000
00000008FE100000
00000001EF800000
000000003D900000
ENDCHAR
STARTCHAR g
ENCODING 103
SWIDTH 366 0
DWIDTH 12 0
BBX 17 30 -5 -16
BITMAP
000000000001200000
0000000003AFFB1000
000000006FEBBF9000
00000005FB1009F200
0000001EC00005F600
0000009F300004FA00
000000EB000003FD00
000004F7000003FF00
000005F6000005FF20
000005F900000BFF30
000001EF40008FFF40
0000006FFCCEFFFF50
00000006EFFE85FF50
00000000154100DF60
00000000000000AF60
000000000000008F70
000000000000006F70
000000000000004F80
000000000000002F80
000000000000001FA0
000000000000001FB0
1B6000000000002FA0
3F6000000000003F90
1F9000000000006F70
0BF600000000009F40
02EFB400000001EF00
002CFFC6100009FA00
00007EFFFC97AFF300
0000016CFFFFFF7000
000000001589830000
ENDCHAR
STARTCHAR h
ENCODING 104
SWIDTH 427 0
DWIDTH 14 0
BBX 14 23 -1 0
BITMAP
16000000000000
6F300000000000
3F800000000000
0ED00000000000
0BF30000000000
07F70000000000
04FA0000000000
01FC0000000000
00EE0257510000
00BF9FFFFE4000
009FFFEDEFF300
007FD40017FC00
006F4000006F50
004F5000000DA0
003F70000009E0
002F90000007F3
001FA0000007F5
000FC0000007F7
000EE0000007F8
000DF1000008F7
000CF2000009F6
000AF300000AF4
0006D1000008C0
ENDCHAR
STARTCHAR i
ENCODING 105
SWIDTH 174 0
DWIDTH 6 0
BBX 5 20 0 0
BITMAP
120000
9E3000
4C6000
000000
000000
001000
00E600
00F700
00F800
00FA00
00FC00
00EE00
00DF20
00CF50
00BF80
009FB0
007FD0
004FE0
001FF0
0009B0
ENDCHAR
STARTCHAR j
ENCODING 106
SWIDTH 200 0
DWIDTH 6 0
BBX 12 34 -4 -15
BITMAP
000008400000
00000EE00000
000005B10000
000000000000
000000000000
000000000000
000000360000
0000006F2000
0000005F7000
0000003FB000
0000001FF100
0000000EF400
0000000BF700
00000008FA00
00000005FD00
00000003FF10
00000000FF30
00000000CF60
000000009F80
000000007FA0
000000005FC0
000000002FD0
330000000FE0
8D1000000DF0
5F7000000BF1
2FE100000AF2
0BF6000009F2
04FE100009F2
00BF900009F1
001DF7000AF0
0002EFB56FD0
00002CFFFF90
0000007EFF30
000000004200
ENDCHAR
STARTCHAR k
ENCODING 107
SWIDTH 403 0
DWIDTH 13 0
BBX 13 20 0 0
BITMAP
60000000000000
F3000000000000
D8000000000000
BD000000000000
8F100000000000
5F500000151000
3F800003EE2000
0FB0001DE30000
0CE0009E300000
0AF205E3000000
07F77F50000000
06FFF800000000
04FFD000000000
03FF8000000000
02FFA000000000
02FFF700000000
03FFFFB4000000
03FB19FFD96310
05F7003CFFFF90
04E300005ABA30
ENDCHAR
STARTCHAR l
ENCODING 108
SWIDTH 120 0
DWIDTH 4 0
BBX 3 19 0 -1
BITMAP
1E40
2FA0
2FB0
2FC0
2FC0
2FD0
2FD0
2FE0
3FE0
3FF0
2FF0
2FF0
2FF0
2FF0
0FE0
0ED0
0DC0
0B80
0100
ENDCHAR
STARTCHAR m
ENCODING 109
SWIDTH 750 0
DWIDTH 24 0
BBX 24 14 0 0
BITMAP
000000000000000167500000
040289861000008EFFFC2000
2F8EFFFFE4002CFFB9CFD100
2FFFD537EE33EFC30009F900
1FFD10003FDEFA000001EF10
0FF6000009FFD10000008F70
0EF1000003FF700000003FB0
0DF0000000DF500000000EE0
0CF10000008F800000000BF1
0CF20000004FD00000000BF2
0CF30000000EF20000000CF1
0BF400000007F20000000EF0
07F400000000200000000FC0
005100000000000000000E60
ENDCHAR
STARTCHAR n
ENCODING 110
SWIDTH 459 0
DWIDTH 15 0
BBX 15 14 0 0
BITMAP
000005BEE9100000
0604CFEDFFD10000
1FEFD5001BFB0000
1FFD100001DF4000
1FF60000004FC000
1FF20000000DF200
0FF100000008F700
0DF200000004FB00
0CF400000001FE00
0AF800000000EF10
07FB00000000DF20
02FE00000000DF10
00BF20000000EE00
002C30000000D800
ENDCHAR
STARTCHAR o
ENCODING 111
SWIDTH 487 0
DWIDTH 16 0
BBX 15 13 0 0
BITMAP
000016ADEEB30000
0006EFFEEFFF5000
009FD61005CFF400
06F900000007FD00
0EB0000000008F40
4F40000000002F80
6F20000000002FA0
5F40000000007F90
2F9000000003EF50
0CF40000003EFD00
03FF810028FFE300
005EFFDDFFFC3000
00018CEFDA500000
ENDCHAR
STARTCHAR p
ENCODING 112
SWIDTH 520 0
DWIDTH 17 0
BBX 16 24 0 -12
BITMAP
0000000111000000
00005ADFFFEA4000
002CFFFEBBEFFA10
01DFD7200004CFB0
09FB100000000BF6
1FF50000000002FC
4FF60000000000DE
5FF73300000001EE
5FF86FB500004CFB
4FFA1DFFEBCEFFE3
1FFC019DFFFFE920
0DFE000001200000
0AFF100000000000
07FF400000000000
04FF600000000000
01FF800000000000
00CFB00000000000
008FD00000000000
004FF10000000000
000EF30000000000
000AF60000000000
0005F80000000000
0000DA0000000000
0000220000000000
ENDCHAR
STARTCHAR q
ENCODING 113
SWIDTH 412 0
DWIDTH 13 0
BBX 12 27 0 -11
BITMAP
000017CEC820
0005EFBADFE3
005FC20007FC
01ED100000DF
08F4000000EE
0EB0000004FC
3F60000006FB
5F30000008FA
6F1000000AF8
5F2000000BF7
3F7000000CF6
0EE100000DF4
07FC20001FF3
01CFFCBCFFF2
001AFFFFFFF1
000014533EF2
000000000AF2
0000000008F3
0000000007F5
0000000007F6
0000000006F7
0000000006F8
0000000005FA
0000000004FA
0000000002FB
0000000000CB
000000000012
ENDCHAR
STARTCHAR r
ENCODING 114
SWIDTH 346 0
DWIDTH 11 0
BBX 11 15 0 0
BITMAP
000004652000
0139EFFFFC20
6FFE867AEFA0
6FE200000230
5FA000000000
4F8000000000
2FA000000000
0EC000000000
0BF100000000
08F600000000
04FB00000000
00EF10000000
00AF50000000
003F70000000
000B40000000
ENDCHAR
STARTCHAR s
ENCODING 115
SWIDTH 514 0
DWIDTH 16 0
BBX 16 15 0 0
BITMAP
0001588740000000
007EFFFFFD300000
06FD74236DD00000
0CF1000004F20000
0BF0000006F10000
06F8000001300000
00AFD86421000000
0005AEFFFFEB8200
0000001357ADFF60
0000000000005FF3
0000000000000AF7
4F90000000000AF8
0AFD710000005FF4
008FFFDCCCDEFF80
00027ACEFFFD9300
ENDCHAR
STARTCHAR t
ENCODING 116
SWIDTH 328 0
DWIDTH 11 0
BBX 11 20 0 0
BITMAP
0000E9000000
0000FE000000
0000FF000000
0000EF100000
0000EF100000
0000FF200000
0001FF300000
7CDFFFFFEC20
4CFFFFECCB20
0001CF300000
0000DF300000
0000DF400000
0000DF400000
0000DF500000
0000CF500000
0000BF600000
0000AF600000
00007F700000
00003F700000
000008500000
ENDCHAR
STARTCHAR u
ENCODING 117
SWIDTH 501 0
DWIDTH 16 0
BBX 16 15 0 0
BITMAP
1B50000000000000
6F60000000013000
8F3000000009F100
8F2000000009F500
6F3000000009F700
5F5000000009F900
3F8000000009FA00
0ED00000000AFA00
0AF30000001EFB00
04FB0000009FFE00
00CF500006FEEF40
003FE6006FC23F90
0006FFEDFD100CE1
00004BEE910009F5
00000000000004F7
ENDCHAR
STARTCHAR v
ENCODING 118
SWIDTH 389 0
DWIDTH 12 0
BBX 12 12 0 0
BITMAP
7C2000000000
5FB00000009B
0DF4000007F8
06FA00001ED0
00EF10007F70
007F6000DF20
001ED004FC00
0007F709F600
0001EE3EE100
00006FFF9000
00000CFF2000
000002D70000
ENDCHAR
STARTCHAR w
ENCODING 119
SWIDTH 656 0
DWIDTH 21 0
BBX 21 14 0 0
BITMAP
0140000000000000000000
09B0000000000000000000
2FA0000000000000240000
6F700000001000004F5000
9F30000001F600000BE100
AF10000002F9000005F700
9F20000003FB000000FB00
7F40000004FD000000DF00
4F80000005FF100000BF20
0DD000000AFF500000EF10
06F700008FFFC10006FE00
00CF614CFF6AFC76AFF800
002DFFFFF700AFFFFFC100
00018DEA30000477750000
ENDCHAR
STARTCHAR x
ENCODING 120
SWIDTH 448 0
DWIDTH 14 0
BBX 14 15 0 -2
BITMAP
30000000000024
EC2000000007FE
5FE3000001AFD2
08FE20002CFA10
009FE305EE6000
0009FECFD20000
00009FFC100000
00005FFE400000
0001DCEFE40000
000BA01BFF4000
007E1000AFF300
01E700000AFE20
02D0000001CFC0
00100000001CF5
00000000000191
ENDCHAR
STARTCHAR y
ENCODING 121
SWIDTH 487 0
DWIDTH 16 0
BBX 16 31 0 -16
BITMAP
0000000000001000
2800000000008400
6D00000000009900
7F0000000000AC00
6F20000000009F00
4F50000000009F30
2F90000000008F50
0DD0000000007F70
09F3000000006F90
03F9000000008FB0
00AF30000005FFC0
002ED200007FFFD0
0004EE968DFC7DE0
00003CFFFD5007E0
00000035500006F0
00000000000005F0
00000000000006F1
00000000000007F1
00000000000008F0
0000000000000AF0
0000000000000CD0
0000000000000DC0
0000000000001FA0
0210000000003F70
08C1000000006F50
06FB10000000AF10
01DFC1000002FB00
002EFE40000BF400
0001BFFB77CFB000
000005DFFFFD1000
0000000379610000
ENDCHAR
STARTCHAR z
ENCODING 122
SWIDTH 459 0
DWIDTH 15 0
BBX 14 17 0 0
BITMAP
00035787300000
07EFFFFFF90000
5FF74444AF6000
2B5000001FB000
000000000FC000
000000002F9000
000000008F5000
00000002FF1000
0468ABDFFFEF30
0CFFFFFFB87500
01223BFB000000
00007FC1000000
0004FE20000000
000DF800000054
004FFC31359EFB
002FFFFFFFFFB3
00029DFECA7200
ENDCHAR
STARTCHAR braceleft
ENCODING 123
SWIDTH 393 0
DWIDTH 13 0
BBX 13 33 0 -4
BITMAP
00000026872000
00003BFFFFF500
0008FF9313DB00
00AFC200002500
07FD1000000000
1EF30000000000
4F900000000000
6F300000000000
4F200000000000
1F600000000000
0BE20000000000
03FE6000000000
006FFD61000000
0005DFFE810000
000008FFF90000
00004EFFFC0000
0018FFA6AF5000
07EE82004FB000
099100006FB000
00000001DF6000
0000001BFB0000
000002CF900000
00005EE5000000
0006FC20000000
003FC100000000
00BF2000000000
00EB0000000000
00DB0000000000
00AF5000000000
004FE500000010
000AFFC99CEF70
00019FFFEDA400
00000010000000
ENDCHAR
STARTCHAR bar
ENCODING 124
SWIDTH 149 0
DWIDTH 5 0
BBX 5 21 0 0
BITMAP
350000
6C0000
5F2000
2F6000
0DA000
09D000
06F100
04F300
02F600
01F800
00FA00
00EB00
00EC00
00ED00
00EE00
00DE00
00DE00
00CE00
00BE00
00AF20
009D10
ENDCHAR
STARTCHAR braceright
ENCODING 125
SWIDTH 440 0
DWIDTH 14 0
BBX 14 39 0 -8
BITMAP
00121000000000
5DFFFFFFC40000
BFC9778CFF6000
6FA500003EF200
0595000007F800
0000000006FA00
0000000007F900
000000004EF300
00000004EF6000
0000004EF70000
000004EE500000
00004ED2000000
0002EE20000000
0005F700000000
0005F900000000
0001FFFDDDD400
0000DFFFFFE400
0000FD52100000
0001F800000000
0000DF30000000
00004FE2000000
000006FD200000
0000004EC10000
00000003FA0000
000000007F5000
000000000CE100
0000000003F800
0000000000AF20
00000000003F70
00000000000CD0
000000000007F2
000000000005F3
000000000006F3
21000000000BF1
E9000000004FC0
BF92000004EF40
2DFF9436BFF600
019EFFFFFB3000
00002332000000
ENDCHAR
STARTCHAR asciitilde
ENCODING 126
SWIDTH 402 0
DWIDTH 13 0
BBX 12 6 0 12
BITMAP
002410000012
06FFF91003DB
2F914DE8AFB1
4F20019FFB00
1E0000012000
010000000000
ENDCHAR
STARTCHAR nonbreakingspace
ENCODING 160
SWIDTH 375 0
DWIDTH 12 0
BBX 1 1 0 0
BITMAP
00
ENDCHAR
STARTCHAR exclamdown
ENCODING 161
SWIDTH 149 0
DWIDTH 5 0
BBX 5 22 0 -1
BITMAP
2EE800
4FFF20
06A700
000000
000000
000000
014000
07F100
08F100
09F100
09F000
0AF000
0AE000
0AE000
0AE000
0AE000
09D000
09D000
09D000
09D000
0AC000
035000
ENDCHAR
STARTCHAR cent
ENCODING 162
SWIDTH 449 0
DWIDTH 14 0
BBX 14 20 0 -2
BITMAP
00000010000000
000000B4000000
000000BB000000
0000009E000000
00006CFFEA3000
001BFBAFCEE200
00BF704F63F600
06F7003F90A300
0DD0002FA05000
3F90002FB00000
5F60002FC00000
6F60002FC00000
5F80002FC00000
2FD0001FC00000
0CF9001FB00000
05FFC52FB00000
007FFFFFEBBBC5
0003AEFFFECA82
0000001F900000
0000000B200000
ENDCHAR
STARTCHAR sterling
ENCODING 163
SWIDTH 758 0
DWIDTH 24 0
BBX 24 24 0 0
BITMAP
000000000000000001210000
0000000000000006CFFFB400
000000000000009FFCBCFF50
00000000000006FA20004EE1
0000000000000EA0000006F5
0000000000006F20000000D6
000000000000BA0000000021
000000000002F50000000000
000000000009F10000000000
00000000005FF66666500000
000000047AFFFFFFFFF30000
00005CFFFFFFFD8667B10000
00009CA744BFB00000000000
00000000008F200000000000
0000000000AA000000000000
0000000000E5000000000000
0000000004F1000000000000
000000000BC0000000000000
000000003F70000000000000
01333211CF10000000000000
6FFFFFFEFFEDDCA600000000
AFFFFFFFFFFFFFFFC0000000
5FFFFFFB5345788730000000
05CFFB400000000000000000
ENDCHAR
STARTCHAR currency
ENCODING 164
SWIDTH 618 0
DWIDTH 20 0
BBX 18 17 1 0
BITMAP
D91000000000000051
7FD20017BDED702CE2
0AFE48FFFFFFFCEE30
00BFFFEA6459EFF400
000EFA10000019F600
004FA000000000AD00
009E10000000003F20
00CB00000000002F40
00CB00000000005F30
009E0000000000BF10
004F6000000007F900
000CE30000007FD100
001EFF94236DFD2000
00AF99EFFFFDEE2000
03FC000344203ED200
07E20000000004E800
011000000000002000
ENDCHAR
STARTCHAR yen
ENCODING 165
SWIDTH 389 0
DWIDTH 12 0
BBX 13 25 0 -1
BITMAP
07A00000000000
08F70000000780
02FD0000008F80
00AF300002FE10
004F70000AF700
000CB0004FE100
0006F100BF7000
0000E704FE1000
00008E2AF70000
00001FDEE10000
000009FF700000
000003FE100000
000000FB000000
489AAAFD741000
279ABDFFFFD000
000005F8122000
000006F7000000
0ADEFFFFFB2000
06BCCEFEDC5000
00000BF4000000
00000CF3000000
00000EF3000000
00000FF2000000
00002FF1000000
00000220000000
ENDCHAR
STARTCHAR brokenbar
ENCODING 166
SWIDTH 117 0
DWIDTH 4 0
BBX 3 20 0 -1
BITMAP
0300
1F60
1FB0
1FB0
1FA0
1FA0
1F90
1F80
1C60
1320
4F90
4FA0
4FA0
4FA0
3FB0
2FB0
0FB0
0DB0
0BA0
0030
ENDCHAR
STARTCHAR section
ENCODING 167
SWIDTH 514 0
DWIDTH 16 0
BBX 16 22 1 0
BITMAP
0000122000000000
005CFFFFC7200000
07FFECCDFFF70000
1FE4000027EF9000
2F900000003DF400
0EC0000000017400
07FB410000000000
007FFFDB98520000
07EFFFFFFFFFC600
6FF964211038EF70
CF60000000004FE1
CF20000000000EF2
8FA0000000003FF1
1DFE96544469EF80
018EFFFFFFFFE700
0000357889DFF600
000000000005FF20
210000000000AF70
8E6000000000AF80
1DFC50000005FF40
01AFFECCCDEFF800
00038CEEFFD93000
ENDCHAR
STARTCHAR dieresis
ENCODING 168
SWIDTH 397 0
DWIDTH 13 0
BBX 9 4 2 13
BITMAP
2B8002B700
BFF40BFF40
8FE208FE20
0310003100
ENDCHAR
STARTCHAR copyright
ENCODING 169
SWIDTH 667 0
DWIDTH 21 0
BBX 20 19 1 -1
BITMAP
000005ACCCA620000000
0002CFFDEFFFFB300000
001DE600015AFFF70000
00CE200015302AFF9000
06F40008FFFE505EF700
1EB001BE736EF203EF30
5F4009E30003F4004FA0
AE001F700000B1000AF2
DA006F400000300003F7
D9008F300000000000EA
CB009F400000000000BC
AF106F700000000000BD
6F902FD10000000000CD
1EF508FE989ABCB006F8
05FF604ADFFFFD73AFD1
008FFB30001247CFFB20
0006EFFD99BEFFFB4000
000017CFFFEB85100000
00000000110000000000
ENDCHAR
STARTCHAR ordfeminine
ENCODING 170
SWIDTH 266 0
DWIDTH 9 0
BBX 8 9 0 7
BITMAP
00296000
0056AB00
00000970
002442E1
08E99DF5
4A0001D8
66000039
1C633576
02AEFC82
ENDCHAR
STARTCHAR guillemotleft
ENCODING 171
SWIDTH 755 0
DWIDTH 24 0
BBX 23 16 0 0
BITMAP
000000000000000000000100
00000000000000000004CE20
000000000000010001AFD400
0000000000019F704EFA1000
00000000005EF919FE500000
000000001AFD43DFA1000000
00000005EF917FD500000000
0000019FE42CF91000000000
00003DF914EF500000000000
0008FD404EF4000000000000
01BFA102EFFEA74200000000
1BFA00007CFFFFFFFDA50000
BFFFB852001468ABDFFFC100
5BFFFFFFFDA61000005BD100
001368ACDFFFE40000000000
000000000039E70000000000
ENDCHAR
STARTCHAR logicalnot
ENCODING 172
SWIDTH 369 0
DWIDTH 12 0
BBX 10 5 1 8
BITMAP
8CCCCCCDDD
DEEDCCCCFF
000000008F
00000000AE
00000000AB
ENDCHAR
STARTCHAR hyphen_
ENCODING 173
SWIDTH 375 0
DWIDTH 12 0
BBX 11 4 0 7
BITMAP
000011233100
06CFFFFFFF70
5FFFDBA9BDA0
232000000000
ENDCHAR
STARTCHAR registered
ENCODING 174
SWIDTH 708 0
DWIDTH 23 0
BBX 20 19 1 0
BITMAP
00000035653000000000
00004DFFFFFFB4000000
0007FC7568BFFFB20000
006F700000028EFE4000
02FA0356775301AFE300
0AE2CFFFEEEFE817FD10
2F84F72000017FB08F80
7F20807E10001FF20CE1
BD00008F30006FE105F5
DA00008FB9ACFD4000EA
CB00007FECB8400000BC
AE00005FF700000000AE
7F50003F8EB1000000AE
2FE2000F73DD300002EC
09FC200CA01AF7003DF5
01CFE50440006EBBFF70
001BFFD73347AEFFB300
00006DFFFFFFFC720000
00000036885300000000
ENDCHAR
STARTCHAR macron
ENCODING 175
SWIDTH 287 0
DWIDTH 9 0
BBX 9 4 1 14
BITMAP
0023443100
5EFFFFFE20
DFDA89BC30
2100000000
ENDCHAR
STARTCHAR degree
ENCODING 176
SWIDTH 254 0
DWIDTH 8 0
BBX 7 9 0 9
BITMAP
00389200
07EADD10
3C101B70
930002B0
B00000D0
A10003D0
77000B90
1E74BE10
03CFB200
ENDCHAR
STARTCHAR plusminus
ENCODING 177
SWIDTH 459 0
DWIDTH 15 0
BBX 15 15 0 1
BITMAP
0000012000000000
000009E000000000
000008F300000000
000005F800000000
000002FC00000000
000000FF41000000
00137AFFFFECA920
5CFFFFFFFFFFFE20
5B9743BFB2222100
0000007FA0000000
0000005FA0000000
0000003FA0000000
0000014FC7764100
005BEFFFFFFFFC00
04FECA8655556500
ENDCHAR
STARTCHAR twosuperior
ENCODING 178
SWIDTH 296 0
DWIDTH 10 0
BBX 9 11 0 7
BITMAP
0000361000
0003D8B000
000560C300
0001108700
0000007800
0000009700
000000D300
000003C000
8D931C3000
9FFFFF6200
079878CE10
ENDCHAR
STARTCHAR threesuperior
ENCODING 179
SWIDTH 204 0
DWIDTH 7 0
BBX 8 11 -1 8
BITMAP
02555100
0BB9AC00
02000930
00004D10
019DE200
018DF800
00003C90
020001D2
1E400095
04E723D3
002BFE70
ENDCHAR
STARTCHAR acute
ENCODING 180
SWIDTH 180 0
DWIDTH 6 0
BBX 6 6 0 12
BITMAP
000060
002BE1
04EE40
4FE300
AD2000
320000
ENDCHAR
STARTCHAR mu
ENCODING 181
SWIDTH 501 0
DWIDTH 16 0
BBX 16 18 0 -2
BITMAP
0100000000000000
1E60000000000000
6F50000000026000
8F3000000009F200
7F2000000009F600
7F3000000009F800
7F6000000009F900
7F9000000009FA00
7FE00000000AFA00
7FF40000002FFB00
7FFC000000BFFE00
8FEF700008FDEF50
8F8FF8219FF48FA0
8F28FFFFFF602FF1
8F2039DEB3000BF6
8F200000000003C6
8F20000000000000
8D20000000000000
ENDCHAR
STARTCHAR paragraph
ENCODING 182
SWIDTH 413 0
DWIDTH 13 0
BBX 13 18 0 -1
BITMAP
00003445541000
005EFFFFFFE200
05FFFFFFFFF600
0DFFFFFFFFF900
3FFFFFFFF1FB00
5FFFFFFFE0DD00
5FFFFFFFC0CE00
2FFFFFFFB0CF00
038887AFB0DF10
0000001FA0DF10
0000000F90DF10
0000000F90EF10
0000000F90EF10
0000000F90EF00
0000000FA0EF00
0000000FA0DD00
0000000EC0CA00
00000004408500
ENDCHAR
STARTCHAR periodcentered
ENCODING 183
SWIDTH 212 0
DWIDTH 7 0
BBX 5 5 1 5
BITMAP
014000
0CFD10
5FFF60
2EFD20
025100
ENDCHAR
STARTCHAR cedilla
ENCODING 184
SWIDTH 445 0
DWIDTH 14 0
BBX 9 11 5 -10
BITMAP
6400000000
AB00000000
9B00000000
5F50000000
09FDB72000
00269EF600
000001CE00
7300008F20
9F80009F10
0BFC9AF600
007BB93000
ENDCHAR
STARTCHAR onesuperior
ENCODING 185
SWIDTH 197 0
DWIDTH 6 0
BBX 7 13 -1 7
BITMAP
00000150
000007A0
00000A90
00001E70
0001DF60
001CFF40
01CA9F20
1CB08F00
5A109C00
0000BA00
0000C800
0000D500
0000B100
ENDCHAR
STARTCHAR ordmasculine
ENCODING 186
SWIDTH 254 0
DWIDTH 8 0
BBX 7 9 0 9
BITMAP
00389200
07EADD10
3C101B70
930002B0
B00000D0
A10003D0
77000B90
1E74BE10
03CFB200
ENDCHAR
STARTCHAR guillemotright
ENCODING 187
SWIDTH 659 0
DWIDTH 21 0
BBX 20 16 0 0
BITMAP
00000000650000000000
1A810000DFB100000000
0DFC20003DFE72000000
02BFFA40018EFFC62000
0005DFFE95117DFFFDA5
000004AEFFFE60269FFC
0000000036FFA0000DFA
0000000002FF70008FE2
000000001CFB000AFE30
00000003DFA002CFC200
0000007FF7006EF80000
00002BFD302BFE400000
0005EFA105EFB1000000
019FE6007FE600000000
0CFC2000EC2000000000
1E800000200000000000
ENDCHAR
STARTCHAR onequarter
ENCODING 188
SWIDTH 626 0
DWIDTH 20 0
BBX 19 25 0 -1
BITMAP
00000000004000000000
0000000002D000000000
0000012005C000000000
0000087007B000000000
00000C60098000000000
00002F500D5000000000
0001CF301F2000000000
001CFF105E0000000000
01CACE009B0000000000
0BC0AC00D80000000000
5B10BA02F40000000000
0000C806F10000000000
0000E50AC02B10000000
0000F20E808D00000000
0000C03F50E700000000
0000006F12F100000830
000000AC04D000003F50
000000E803D00001CF10
000003F400E5001BFD00
000008E0007F99EFEC00
00000DA00007CD828D00
00003F60000000007F00
00007F10000000006F20
0000AB00000000004E10
00008500000000000000
ENDCHAR
STARTCHAR onehalf
ENCODING 189
SWIDTH 566 0
DWIDTH 18 0
BBX 17 25 0 -1
BITMAP
000000000020000000
0000001000C3000000
000003C001F2000000
000007C003F1000000
00000AB005D0000000
00001E9009A0000000
0000CF800D70000000
000AFF602F40000000
008EEF406F00000000
06F49F20AC00000000
4F709F10E800000000
A800AE04F4005C9000
0000BB08F102E5C700
0000C90CB004905D00
0000D71F8001301F20
0000E45F3000000D40
0000C19E0000000E40
000000DA0000001F30
000003F60000005E00
000007F10000009900
00000DC0772002D100
00003F73FFFB8D7000
00008F20DFFFFFD950
0000BB001787569DD0
000085000000000000
ENDCHAR
STARTCHAR threequarters
ENCODING 190
SWIDTH 566 0
DWIDTH 18 0
BBX 18 25 0 -2
BITMAP
000000000051000000
0000000000C4000000
0000000000F3000000
0000000002F1000000
2CDDA10004D0000000
2932780008A0000000
00002B000B70000000
0016D4001F40000000
09FF70004F10000000
027CF6008D09100000
00004E30C93E000000
320005A1F68A000000
7C1002D4F2B5000041
09C538A8E0D10000C4
006DFB2CA0D00004F2
0000001F60B3000DE0
0000005F208B01BFC0
0000009D001EFFEAC0
000000CA00038814D0
000002F500000004F0
000007F100000003F2
00000CC000000001E1
00001F700000000000
00004F200000000000
00002A000000000000
ENDCHAR
STARTCHAR questiondown
ENCODING 191
SWIDTH 272 0
DWIDTH 9 0
BBX 10 24 0 0
BITMAP
0AE3000000
0BE3000000
0000000000
0000000000
0000000000
0000000000
0000000000
0000000000
0577510000
0BFFFF7000
00138FD000
00008FA000
0004FF4000
001DFA0000
009FE10000
02FF500000
09FA000000
0EF3000000
3FC0000000
3FB0000000
0EE0000000
07F9100071
00AFFCBEE1
0004ACB820
ENDCHAR
STARTCHAR Agrave
ENCODING 192
SWIDTH 562 0
DWIDTH 18 0
BBX 18 30 0 0
BITMAP
0000002A4000000000
0000000CF800000000
00000001CF90000000
000000001AE0000000
000000000000000000
000000034300000000
000018EFFFD5000000
0001CE8447EF800000
0009E300001CF50000
001F70000001EE1000
006E100000005F7000
00AA000000000CD000
00D70000000006F300
01F40000000001F800
02F20000000000CC00
04F100000000009F10
05F000000000006F40
06E000000000004F70
07E000000000004F90
1AFCBA987765439FB0
4FFFCBAABCEFFFFFD0
08F500000001332FE0
03F400000000000DF0
04F500000000000BF1
04F700000000000BF2
03FA00000000000BF2
01FC00000000000DF2
00DF00000000001FF0
00AF20000000004FE0
003E20000000004F60
ENDCHAR
STARTCHAR Aacute
ENCODING 193
SWIDTH 562 0
DWIDTH 18 0
BBX 18 30 0 0
BITMAP
000000005100000000
0000001AF300000000
000002DF7000000000
00002EF50000000000
00007E400000000000
000023034300000000
000018EFFFD5000000
0001CE8447EF800000
0009E300001CF50000
001F70000001EE1000
006E100000005F7000
00AA000000000CD000
00D70000000006F300
01F40000000001F800
02F20000000000CC00
04F100000000009F10
05F000000000006F40
06E000000000004F70
07E000000000004F90
1AFCBA987765439FB0
4FFFCBAABCEFFFFFD0
08F500000001332FE0
03F400000000000DF0
04F500000000000BF1
04F700000000000BF2
03FA00000000000BF2
01FC00000000000DF2
00DF00000000001FF0
00AF20000000004FE0
003E20000000004F60
ENDCHAR
STARTCHAR Acircumflex
ENCODING 194
SWIDTH 562 0
DWIDTH 18 0
BBX 18 32 0 0
BITMAP
000000043000000000
0000000DF300000000
0000003FFD10000000
000000BFFFC0000000
00000AFAAFF9000000
0001BFC009FF100000
0004FA10009F200000
000010034302000000
000018EFFFD5000000
0001CE8447EF800000
0009E300001CF50000
001F70000001EE1000
006E100000005F7000
00AA000000000CD000
00D70000000006F300
01F40000000001F800
02F20000000000CC00
04F100000000009F10
05F000000000006F40
06E000000000004F70
07E000000000004F90
1AFCBA987765439FB0
4FFFCBAABCEFFFFFD0
08F500000001332FE0
03F400000000000DF0
04F500000000000BF1
04F700000000000BF2
03FA00000000000BF2
01FC00000000000DF2
00DF00000000001FF0
00AF20000000004FE0
003E20000000004F60
ENDCHAR
STARTCHAR Atilde
ENCODING 195
SWIDTH 562 0
DWIDTH 18 0
BBX 18 30 0 0
BITMAP
000024100000220000
0008FFE71005E90000
004F706ED8AF900000
006F0002AFF9000000
003D00000110000000
000100034300000000
000018EFFFD5000000
0001CE8447EF800000
0009E300001CF50000
001F70000001EE1000
006E100000005F7000
00AA000000000CD000
00D70000000006F300
01F40000000001F800
02F20000000000CC00
04F100000000009F10
05F000000000006F40
06E000000000004F70
07E000000000004F90
1AFCBA987765439FB0
4FFFCBAABCEFFFFFD0
08F500000001332FE0
03F400000000000DF0
04F500000000000BF1
04F700000000000BF2
03FA00000000000BF2
01FC00000000000DF2
00DF00000000001FF0
00AF20000000004FE0
003E20000000004F60
ENDCHAR
STARTCHAR Adieresis
ENCODING 196
SWIDTH 562 0
DWIDTH 18 0
BBX 18 29 0 0
BITMAP
00000A9100A9100000
00007FF707FF700000
00005FF405FF400000
000002200022000000
000000034300000000
000018EFFFD5000000
0001CE8447EF800000
0009E300001CF50000
001F70000001EE1000
006E100000005F7000
00AA000000000CD000
00D70000000006F300
01F40000000001F800
02F20000000000CC00
04F100000000009F10
05F000000000006F40
06E000000000004F70
07E000000000004F90
1AFCBA987765439FB0
4FFFCBAABCEFFFFFD0
08F500000001332FE0
03F400000000000DF0
04F500000000000BF1
04F700000000000BF2
03FA00000000000BF2
01FC00000000000DF2
00DF00000000001FF0
00AF20000000004FE0
003E20000000004F60
ENDCHAR
STARTCHAR Aring
ENCODING 197
SWIDTH 562 0
DWIDTH 18 0
BBX 18 30 0 0
BITMAP
000000013100000000
0000009EED20000000
0000099119B0000000
00000D3003E0000000
00000A701BB0000000
000002CEFD20000000
000018EFFFE6000000
0001CE8447EF800000
0009E300001CF50000
001F70000001EE1000
006E100000005F7000
00AA000000000CD000
00D70000000006F300
01F40000000001F800
02F20000000000CC00
04F100000000009F10
05F000000000006F40
06E000000000004F70
07E000000000004F90
1AFCBA987765439FB0
4FFFCBAABCEFFFFFD0
08F500000001332FE0
03F400000000000DF0
04F500000000000BF1
04F700000000000BF2
03FA00000000000BF2
01FC00000000000DF2
00DF00000000001FF0
00AF20000000004FE0
003E20000000004F60
ENDCHAR
STARTCHAR AE
ENCODING 198
SWIDTH 960 0
DWIDTH 31 0
BBX 30 25 0 0
BITMAP
000000034300000000000000000000
000018EFFFD5000000000000000000
0001CE8447EF800000000000000000
0009E300001CF50000000000000000
001F70000001EE1000000000000000
006E100000005F71CDDCCBBAAAAA50
00AA000000000CD3FFFFFFFEEEDDF5
00D70000000006F6F9211000000023
01F40000000001FBF9000000000000
02F20000000000CFF9000000000000
04F100000000009FF9000000000000
05F000000000006FF9000000000000
06E000000000004FF900000258AB90
07E000000000004FFD99BDFFFFEA20
1AFCBA987765439FFFECBA97530000
4FFFCBAABCEFFFFFF7000000000000
08F500000001332FF3000000000000
03F400000000000DF2000000000000
04F500000000000BF2000000000000
04F700000000000BF2000000000000
03FA00000000000BF2000000000000
01FC00000000000DF2000000000000
00DF00000000001FF832334679ABC9
00AF20000000004FFFFFFFFFFFFFFA
003E20000000004F67CDEEEDCB9620
ENDCHAR
STARTCHAR Ccedilla
ENCODING 199
SWIDTH 515 0
DWIDTH 17 0
BBX 16 31 0 -10
BITMAP
0000000027A91000
0000002AFFFF8000
000004EFD77F8000
00005FE7000E4000
0003FC20005A0000
001DC10000200000
008E100000000000
02F4000000000000
08C0000000000000
0E60000000000000
3F30000000000000
5F10000000000000
6F20000000000000
5F30000000000000
3F50000000000000
0F90000000000000
0AE1000000000000
04FA000000001342
00BFB31247ADFFF6
002DFFFFFFFFC940
0001AFFDA7410000
00006F1000000000
00005F1000000000
00002F9100000000
000005EEB8400000
000000158CFA0000
00000000009F4000
00005500004F6000
00005FB1005F5000
000007FEAAEA0000
0000004BCA500000
ENDCHAR
STARTCHAR Egrave
ENCODING 200
SWIDTH 524 0
DWIDTH 17 0
BBX 16 26 0 0
BITMAP
000000A600000000
0000009FB1000000
0000000AFC100000
000000008F300000
0000000000000000
0000000000000000
08CBBAA999999600
0EFFFFFFFFFFEF80
0ED3322111000250
0ED0000000000000
0ED0000000000000
0ED0000000000000
0ED0000000000000
0ED000000368AA10
2FE889BDFFFFD500
4FFFEDCB97520000
2FB1000000000000
2F70000000000000
3F60000000000000
4F50000000000000
5F50000000000000
6F60000000000000
5F60000000000000
2FA211224579AA91
09FFFFFFFFFFFFD1
007CFFFFFEDB8500
ENDCHAR
STARTCHAR Eacute
ENCODING 201
SWIDTH 524 0
DWIDTH 17 0
BBX 16 26 0 0
BITMAP
0000000006000000
00000003CD000000
0000006FE3000000
000006FD20000000
00000CC100000000
0000041000000000
08CBBAA999999600
0EFFFFFFFFFFEF80
0ED3322111000250
0ED0000000000000
0ED0000000000000
0ED0000000000000
0ED0000000000000
0ED000000368AA10
2FE889BDFFFFD500
4FFFEDCB97520000
2FB1000000000000
2F70000000000000
3F60000000000000
4F50000000000000
5F50000000000000
6F60000000000000
5F60000000000000
2FA211224579AA91
09FFFFFFFFFFFFD1
007CFFFFFEDB8500
ENDCHAR
STARTCHAR Ecircumflex
ENCODING 202
SWIDTH 524 0
DWIDTH 17 0
BBX 16 29 0 0
BITMAP
0000000051000000
00000004FB000000
00000009FF800000
0000003FFFF50000
000003EF7DFF3000
00004EF602DFA000
0000BE50002EB000
0000000000011000
0000000000000000
08CBBAA999999600
0EFFFFFFFFFFEF80
0ED3322111000250
0ED0000000000000
0ED0000000000000
0ED0000000000000
0ED0000000000000
0ED000000368AA10
2FE889BDFFFFD500
4FFFEDCB97520000
2FB1000000000000
2F70000000000000
3F60000000000000
4F50000000000000
5F50000000000000
6F60000000000000
5F60000000000000
2FA211224579AA91
09FFFFFFFFFFFFD1
007CFFFFFEDB8500
ENDCHAR
STARTCHAR Edieresis
ENCODING 203
SWIDTH 524 0
DWIDTH 17 0
BBX 16 25 0 0
BITMAP
00002B8002B70000
0000BFF40BFF4000
00008FE208FE2000
0000031000310000
0000000000000000
08CBBAA999999600
0EFFFFFFFFFFEF80
0ED3322111000250
0ED0000000000000
0ED0000000000000
0ED0000000000000
0ED0000000000000
0ED000000368AA10
2FE889BDFFFFD500
4FFFEDCB97520000
2FB1000000000000
2F70000000000000
3F60000000000000
4F50000000000000
5F50000000000000
6F60000000000000
5F60000000000000
2FA211224579AA91
09FFFFFFFFFFFFD1
007CFFFFFEDB8500
ENDCHAR
STARTCHAR Igrave
ENCODING 204
SWIDTH 167 0
DWIDTH 5 0
BBX 6 25 -1 0
BITMAP
682000
3FE400
04EF50
003D90
000000
000000
000000
055000
06E100
04F500
01FA00
00CD00
008F20
004F50
002F80
000EB0
000CE0
000BF1
0009F3
0007F5
0006F7
0004F9
0002FB
0001FC
00008A
ENDCHAR
STARTCHAR Iacute
ENCODING 205
SWIDTH 167 0
DWIDTH 5 0
BBX 6 24 -1 0
BITMAP
000060
002CE1
05EE40
5FD300
BD2000
410000
055000
06E100
04F500
01FA00
00CD00
008F20
004F50
002F80
000EB0
000CE0
000BF1
0009F3
0007F5
0006F7
0004F9
0002FB
0001FC
00008A
ENDCHAR
STARTCHAR Icircumflex
ENCODING 206
SWIDTH 167 0
DWIDTH 5 0
BBX 10 29 -2 0
BITMAP
0000430000
0000EE2000
0004FFC100
000CFFFB00
00BF9AFF80
1CFB00AFF1
5FA1000AF1
0100000020
0000000000
0000000000
0000000000
0055000000
006E100000
004F500000
001FA00000
000CD00000
0008F20000
0004F50000
0002F80000
0000EB0000
0000CE0000
0000BF1000
00009F3000
00007F5000
00006F7000
00004F9000
00002FB000
00001FC000
000008A000
ENDCHAR
STARTCHAR Idieresis
ENCODING 207
SWIDTH 167 0
DWIDTH 5 0
BBX 9 22 -4 0
BITMAP
07B3007B30
3FFC03FFC0
1EF801EF80
0130001300
0000550000
00006E1000
00004F5000
00001FA000
00000CD000
000008F200
000004F500
000002F800
000000EB00
000000CE00
000000BF10
0000009F30
0000007F50
0000006F70
0000004F90
0000002FB0
0000001FC0
00000008A0
ENDCHAR
STARTCHAR Eth
ENCODING 208
SWIDTH 741 0
DWIDTH 24 0
BBX 23 22 0 -1
BITMAP
000000110000000000000000
027BDFFFFDB7300000000000
3FFFECBBBFFFFD7100000000
3B4100000EF78EFE70000000
000000000BF5007EFC200000
0000000008F60001AFE40000
0000000005F8000006FF4000
0000000002F90000006FE200
0000000000FB00000008FA00
0000000026EE9ABA6000DF20
00000006FFFFFFFFF5006F70
0000000BB9BF522461002FA0
00000000005F500000000FC0
00000000004F800000001FB0
00000000003FB00000005F90
00000000003FB0000000CF60
00000000003FA0000009FE10
00000000001F7000019FF600
00000001A62100005DFF8000
00000002EFFD99AEFFE60000
000000003BFFFFFFD8100000
000000000013554100000000
ENDCHAR
STARTCHAR Ntilde
ENCODING 209
SWIDTH 609 0
DWIDTH 20 0
BBX 19 23 0 0
BITMAP
00000034000000310000
00001AFFD60007F60000
00007F517FC8BF600000
00009C0003CFF6000000
00005A00000210000000
00100100000000000000
0AD00000000000000000
0AF20000000002D40000
08F60000000002FE2000
07FA0000000000EF9000
07FE10000000008FF100
08FF50000000001EF700
08FFB00000000007FC00
09FFF30000000000DF10
0BFEF900000000007F50
0CD0BF20000000004F80
0DB03FB0000000003FA0
0EB008F6000000005F90
0FC001DF50000000AF50
1FE0003EF8000004FE10
1FF00004FFE966AFF500
1FF000003CFFFFFE5000
0AA000000059A9610000
ENDCHAR
STARTCHAR Ograve
ENCODING 210
SWIDTH 609 0
DWIDTH 20 0
BBX 19 23 0 0
BITMAP
00000000A60000000000
000000008FC100000000
0000000009FD10000000
00000000007F40000000
00000000000000000000
00000000000000000000
00000000000000000000
00001575100000000000
0008FFFFFC7200000000
00AFC668BFFF92000000
07F90000016DFE500000
0EC0000000007EF70000
4F500000000003DF7000
6F2000000000002EF300
6F10000000000005FB00
4F30000000000000CF20
2F800000000000006F60
0DE20000000000004F80
06FC1000000000007F60
00CFC20000000006FE10
002DFF82000026CFE400
0001AFFFCABDFFFA2000
0000038CEFDB95100000
ENDCHAR
STARTCHAR Oacute
ENCODING 211
SWIDTH 609 0
DWIDTH 20 0
BBX 19 23 0 0
BITMAP
00000000003300000000
0000000008F600000000
00000001CF9000000000
0000001CF80000000000
0000004F600000000000
00000014000000000000
00000000000000000000
00001575100000000000
0008FFFFFC7200000000
00AFC668BFFF92000000
07F90000016DFE500000
0EC0000000007EF70000
4F500000000003DF7000
6F2000000000002EF300
6F10000000000005FB00
4F30000000000000CF20
2F800000000000006F60
0DE20000000000004F80
06FC1000000000007F60
00CFC20000000006FE10
002DFF82000026CFE400
0001AFFFCABDFFFA2000
0000038CEFDB95100000
ENDCHAR
STARTCHAR Ocircumflex
ENCODING 212
SWIDTH 609 0
DWIDTH 20 0
BBX 19 25 0 0
BITMAP
00000034000000000000
000000BF400000000000
000001FFE20000000000
00000AFFFD1000000000
00008FC8FFB000000000
000AFD107FF300000000
003FC20008F400000000
00010000002000000000
00000000000000000000
00001575100000000000
0008FFFFFC7200000000
00AFC668BFFF92000000
07F90000016DFE500000
0EC0000000007EF70000
4F500000000003DF7000
6F2000000000002EF300
6F10000000000005FB00
4F30000000000000CF20
2F800000000000006F60
0DE20000000000004F80
06FC1000000000007F60
00CFC20000000006FE10
002DFF82000026CFE400
0001AFFFCABDFFFA2000
0000038CEFDB95100000
ENDCHAR
STARTCHAR Otilde
ENCODING 213
SWIDTH 609 0
DWIDTH 20 0
BBX 19 22 0 0
BITMAP
00002410000022000000
0007FFE81004EA000000
003F915DE8AFA0000000
005F1001AFFA00000000
002E0000011000000000
00010000000000000000
00001575100000000000
0008FFFFFC7200000000
00AFC668BFFF92000000
07F90000016DFE500000
0EC0000000007EF70000
4F500000000003DF7000
6F2000000000002EF300
6F10000000000005FB00
4F30000000000000CF20
2F800000000000006F60
0DE20000000000004F80
06FC1000000000007F60
00CFC20000000006FE10
002DFF82000026CFE400
0001AFFFCABDFFFA2000
0000038CEFDB95100000
ENDCHAR
STARTCHAR Odieresis
ENCODING 214
SWIDTH 609 0
DWIDTH 20 0
BBX 19 22 0 0
BITMAP
0000007A2007A2000000
000003FFB04FFB000000
000002EF802EF8000000
00000013000130000000
00000000000000000000
00000000000000000000
00001575100000000000
0008FFFFFC7200000000
00AFC668BFFF92000000
07F90000016DFE500000
0EC0000000007EF70000
4F500000000003DF7000
6F2000000000002EF300
6F10000000000005FB00
4F30000000000000CF20
2F800000000000006F60
0DE20000000000004F80
06FC1000000000007F60
00CFC20000000006FE10
002DFF82000026CFE400
0001AFFFCABDFFFA2000
0000038CEFDB95100000
ENDCHAR
STARTCHAR multiply
ENCODING 215
SWIDTH 448 0
DWIDTH 14 0
BBX 10 10 1 1
BITMAP
0310000013
3FD10002DE
08FD205EF6
008FECFD30
0009FFC100
0005FFE300
003ED7FE20
01EE307FD1
05E4000960
0010000000
ENDCHAR
STARTCHAR Oslash
ENCODING 216
SWIDTH 609 0
DWIDTH 20 0
BBX 19 25 0 -4
BITMAP
00000000000180000000
000000000007F0000000
00000000000CD0000000
00000000000EA0000000
00000000002F60000000
00001575208F20000000
0008FFFFFCED00000000
00AFC668BFFF91000000
07F9000009FEFE500000
0EC000000EE07EF70000
4F5000005F9003DF7000
6F200000AF40002EF300
6F100001FE000005FB00
5F300006F9000000CF20
2F80000CF40000006F60
0DF2002FD00000004F80
06FC108F800000007F60
00CFD3DF20000006FE10
002DFFFC000026CFE400
0001AFFFCABDFFFA2000
00003FEDFFDB95100000
00009F80000000000000
0000EE10000000000000
0000E800000000000000
00002000000000000000
ENDCHAR
STARTCHAR Ugrave
ENCODING 217
SWIDTH 571 0
DWIDTH 18 0
BBX 18 23 0 0
BITMAP
000000059200000000
00000002EE50000000
000000004EF5000000
0000000002DA000000
000000000000000000
004300000000000000
05FA000000000B5000
0CC1000000000EA000
0F70000000001FE000
1F60000000001FF000
2F60000000000FF100
2F60000000000DF100
1F700000000009F200
0E900000000005F500
0CB00000000002F900
09E00000000000EE00
05F30000000000EF40
01FA0000000006FFA0
00BF200000003EFFF1
005FC1000006EFCFF6
000BFD5237CFB208FA
0001DFFFFFE60001DB
000019EFD810000000
ENDCHAR
STARTCHAR Uacute
ENCODING 218
SWIDTH 571 0
DWIDTH 18 0
BBX 18 23 0 0
BITMAP
000000000150000000
000000004DC0000000
00000007FD20000000
0000007FC200000000
000000DB1000000000
004300410000000000
05FA000000000B5000
0CC1000000000EA000
0F70000000001FE000
1F60000000001FF000
2F60000000000FF100
2F60000000000DF100
1F700000000009F200
0E900000000005F500
0CB00000000002F900
09E00000000000EE00
05F30000000000EF40
01FA0000000006FFA0
00BF200000003EFFF1
005FC1000006EFCFF6
000BFD5237CFB208FA
0001DFFFFFE60001DB
000019EFD810000000
ENDCHAR
STARTCHAR Ucircumflex
ENCODING 219
SWIDTH 571 0
DWIDTH 18 0
BBX 18 29 0 0
BITMAP
000000002500000000
000000008F70000000
00000000DFF4000000
00000007FFFE200000
0000006FD7FFD10000
000007FE304FF60000
00001ED30005F70000
000001000000110000
000000000000000000
000000000000000000
000000000000000000
004300000000000000
05FA000000000B5000
0CC1000000000EA000
0F70000000001FE000
1F60000000001FF000
2F60000000000FF100
2F60000000000DF100
1F700000000009F200
0E900000000005F500
0CB00000000002F900
09E00000000000EE00
05F30000000000EF40
01FA0000000006FFA0
00BF200000003EFFF1
005FC1000006EFCFF6
000BFD5237CFB208FA
0001DFFFFFE60001DB
000019EFD810000000
ENDCHAR
STARTCHAR Udieresis
ENCODING 220
SWIDTH 571 0
DWIDTH 18 0
BBX 18 22 0 0
BITMAP
000003B6003B600000
00000CFF20DFF20000
00000AFD10AFD10000
000000310003100000
004300000000000000
05FA000000000B5000
0CC1000000000EA000
0F70000000001FE000
1F60000000001FF000
2F60000000000FF100
2F60000000000DF100
1F700000000009F200
0E900000000005F500
0CB00000000002F900
09E00000000000EE00
05F30000000000EF40
01FA0000000006FFA0
00BF200000003EFFF1
005FC1000006EFCFF6
000BFD5237CFB208FA
0001DFFFFFE60001DB
000019EFD810000000
ENDCHAR
STARTCHAR Yacute
ENCODING 221
SWIDTH 403 0
DWIDTH 13 0
BBX 13 28 0 -1
BITMAP
00000000033000
000000008F6000
0000001CF90000
000001CF800000
000004F6000000
00000140000000
36000000000000
6E100000000610
4F800000004F40
1EF30000006F30
07FD100000BF10
00CFB10002FD00
001CFB2009F800
0001AFE85FF300
000006EFFFD000
00000018FF7000
00000000EF1000
00000003FA0000
00000008F50000
0000000CE00000
0000001F900000
0000005F600000
0000007F300000
0000009F100000
000000AF000000
000000AF000000
000000AF100000
00000026000000
ENDCHAR
STARTCHAR Thorn
ENCODING 222
SWIDTH 497 0
DWIDTH 16 0
BBX 15 25 1 -5
BITMAP
2520000000000000
6FA0000000000000
6FA0000000000000
7FA0000000000000
6F90000000000000
6F80000000000000
5F70000000000000
5F60000000000000
4F60000000000000
4FB9BBA730000000
3FFFFFFFFD700000
2FF91025AFFC2000
1FF1000001AFE200
1FD000000007FB00
0FD000000000BF20
0EF2000000007F40
0DFB00000001DF30
0DFFC400004CFD00
0CECFFECCEFFE300
0BD049EFEDB71000
0AE0000000000000
0AF0000000000000
09F1000000000000
08F2000000000000
03B3000000000000
ENDCHAR
STARTCHAR germandbls
ENCODING 223
SWIDTH 590 0
DWIDTH 19 0
BBX 18 28 1 -5
BITMAP
024310000000000000
4FFFFD940000000000
CFFFFEFFC300000000
EF820016EE30000000
FF1000003FD0000000
EF2000000BF0000000
DF3000000DC0000000
BF4000008F40000000
9F50037DF900000000
7F707FFFE100000000
5F803EFFFC40000000
2F90016CFFFB200000
0FA0000027DFE50000
0CB000000006DF7000
0AC00000000009F800
08E00000000000AF40
06F000000000002FD0
05F100000000000DF3
04F200000000000EF4
03F30000000002AFE1
03F40089999ADFFD30
04F500EFFFFEB83000
04F700232200000000
06F800000000000000
08F900000000000000
0CFA00000000000000
0AFB00000000000000
001200000000000000
ENDCHAR
STARTCHAR agrave
ENCODING 224
SWIDTH 505 0
DWIDTH 16 0
BBX 16 21 0 0
BITMAP
0000068200000000
000003FE40000000
0000004EF5000000
00000003D9000000
0000000000000000
000008DD92000000
00005FEEFF700000
000036005EF90000
0000000001CF7000
00000000001EF200
000000000008F900
00028BDCB845FF10
007FFFECCFFEFF70
07FE8300017EFFC0
1FD100000003EFE0
5F40000000003FF1
5F300000000007F2
1EC2000000000191
07FE95323468ABB3
006EFFFFFFFFFE81
00016ACDFEB83000
ENDCHAR
STARTCHAR aacute
ENCODING 225
SWIDTH 505 0
DWIDTH 16 0
BBX 16 23 0 0
BITMAP
0000000015000000
00000004DC000000
0000007FD2000000
000007FC10000000
00000EB100000000
0000040000000000
0000000000000000
000008DD92000000
00005FEEFF700000
000036005EF90000
0000000001CF7000
00000000001EF200
000000000008F900
00028BDCB845FF10
007FFFECCFFEFF70
07FE8300017EFFC0
1FD100000003EFE0
5F40000000003FF1
5F300000000007F2
1EC2000000000191
07FE95323468ABB3
006EFFFFFFFFFE81
00016ACDFEB83000
ENDCHAR
STARTCHAR acircumflex
ENCODING 226
SWIDTH 505 0
DWIDTH 16 0
BBX 16 24 0 0
BITMAP
0000000250000000
00000009F6000000
0000000EFF300000
0000008FFFE20000
000006FD7FFC0000
00008FE205FF5000
0001ED20006F6000
0000100000020000
000008DD92000000
00005FEEFF700000
000036005EF90000
0000000001CF7000
00000000001EF200
000000000008F900
00028BDCB845FF10
007FFFECCFFEFF70
07FE8300017EFFC0
1FD100000003EFE0
5F40000000003FF1
5F300000000007F2
1EC2000000000191
07FE95323468ABB3
006EFFFFFFFFFE81
00016ACDFEB83000
ENDCHAR
STARTCHAR atilde
ENCODING 227
SWIDTH 505 0
DWIDTH 16 0
BBX 16 23 0 0
BITMAP
0000430000003000
001BFFC50008F400
009E419FB8CF5000
00BA0004CFF40000
0078000002000000
0001000000000000
0000000000000000
000008DD92000000
00005FEEFF700000
000036005EF90000
0000000001CF7000
00000000001EF200
000000000008F900
00028BDCB845FF10
007FFFECCFFEFF70
07FE8300017EFFC0
1FD100000003EFE0
5F40000000003FF1
5F300000000007F2
1EC2000000000191
07FE95323468ABB3
006EFFFFFFFFFE81
00016ACDFEB83000
ENDCHAR
STARTCHAR adieresis
ENCODING 228
SWIDTH 505 0
DWIDTH 16 0
BBX 16 21 0 0
BITMAP
00002B7002B70000
0000BFF30CFF3000
00009FD109FD1000
0000031000310000
0000000000000000
000008DD92000000
00005FEEFF700000
000036005EF90000
0000000001CF7000
00000000001EF200
000000000008F900
00028BDCB845FF10
007FFFECCFFEFF70
07FE8300017EFFC0
1FD100000003EFE0
5F40000000003FF1
5F300000000007F2
1EC2000000000191
07FE95323468ABB3
006EFFFFFFFFFE81
00016ACDFEB83000
ENDCHAR
STARTCHAR aring
ENCODING 229
SWIDTH 505 0
DWIDTH 16 0
BBX 16 21 0 0
BITMAP
0000004BD8000000
000006C56E700000
00000D3004D00000
00000C3007C00000
000006D8BE300000
000008EFE4000000
00005FEEFF700000
000036005EF90000
0000000001CF7000
00000000001EF200
000000000008F900
00028BDCB845FF10
007FFFECCFFEFF70
07FE8300017EFFC0
1FD100000003EFE0
5F40000000003FF1
5F300000000007F2
1EC2000000000191
07FE95323468ABB3
006EFFFFFFFFFE81
00016ACDFEB83000
ENDCHAR
STARTCHAR ae
ENCODING 230
SWIDTH 881 0
DWIDTH 28 0
BBX 28 17 0 -1
BITMAP
000008DD92000000059BB6000000
00005FEEFF700003CFEBDFB10000
000036005EF9003EE50009F80000
0000000001CF70CE200000DD0000
00000000001EF7F60000009F0000
000000000008FFE0000000AF0000
00028BDCB845FFB0000008FA0000
007FFFECCFFEFFA00005CFD20000
07FE8300017EFFB9CAEFFA200000
1FD100000003EFE5CDB820000000
5F40000000003FF1000000000000
5F300000000008F4000000000000
1EC20000000001EC100000000000
07FE95323468ABEFD50000000000
006EFFFFFFFFFE87FFD965456785
00016ACDFEB830003BFFFFFFFE80
000000000000000000379AA85100
ENDCHAR
STARTCHAR ccedilla
ENCODING 231
SWIDTH 449 0
DWIDTH 14 0
BBX 14 25 0 -10
BITMAP
00000011000000
00006CFFFA2000
001BFC769FE200
00BF600004F600
06F7000000B300
0DD00000005000
3F900000000000
5F600000000000
6F600000000000
4F800000000000
1FD00000000000
0AF90000000000
02EFC510000000
003DFFFECBBBC5
00009FDEFFEC91
00007F00000000
00006F10000000
00001EB3000000
000004CFEB7100
0000000259FC00
00000000008F40
00008810004F60
00003FD3007F30
000005EFDDF600
00000027861000
ENDCHAR
STARTCHAR egrave
ENCODING 232
SWIDTH 515 0
DWIDTH 17 0
BBX 16 22 0 0
BITMAP
00002A4000000000
00000CF800000000
000001CF90000000
0000001AE0000000
0000000000000000
0000026861000000
0002BFFFFE500000
003EE7205EF20000
01DE200005F80000
07F4000000EA0000
0DC0000000DB0000
2F80000008F70000
5F600003BFD10000
6F6877BFFC200000
5F7CFFEB50000000
3F90210000000000
0DD0000000000000
07F6000000000000
00CF600000000000
002DFD8420012342
0001AFFFFFFFFFA1
0000028CEFEC8200
ENDCHAR
STARTCHAR eacute
ENCODING 233
SWIDTH 515 0
DWIDTH 17 0
BBX 16 23 0 0
BITMAP
0000000043000000
00000008F6000000
000001CF90000000
00001DF700000000
00005F6000000000
0000140000000000
0000026861000000
0002BFFFFE500000
003EE7205EF20000
01DE200005F80000
07F4000000EA0000
0DC0000000DB0000
2F80000008F70000
5F600003BFD10000
6F6877BFFC200000
5F7CFFEB50000000
3F90210000000000
0DD0000000000000
07F6000000000000
00CF600000000000
002DFD8420012342
0001AFFFFFFFFFA1
0000028CEFEC8200
ENDCHAR
STARTCHAR ecircumflex
ENCODING 234
SWIDTH 515 0
DWIDTH 17 0
BBX 16 24 0 0
BITMAP
0000000150000000
00000007F8000000
0000000CFF500000
0000005FFFF30000
000004FE6EFE1000
00006FF403EF7000
0000DD40004E8000
0000136861011000
0002BFFFFE500000
003EE7205EF20000
01DE200005F80000
07F4000000EA0000
0DC0000000DB0000
2F80000008F70000
5F600003BFD10000
6F6877BFFC200000
5F7CFFEB50000000
3F90210000000000
0DD0000000000000
07F6000000000000
00CF600000000000
002DFD8420012342
0001AFFFFFFFFFA1
0000028CEFEC8200
ENDCHAR
STARTCHAR edieresis
ENCODING 235
SWIDTH 515 0
DWIDTH 17 0
BBX 16 20 0 0
BITMAP
00009A1009A10000
0006FF906FF90000
0004FF504FF60000
0000246863200000
0002BFFFFE500000
003EE7205EF20000
01DE200005F80000
07F4000000EA0000
0DC0000000DB0000
2F80000008F70000
5F600003BFD10000
6F6877BFFC200000
5F7CFFEB50000000
3F90210000000000
0DD0000000000000
07F6000000000000
00CF600000000000
002DFD8420012342
0001AFFFFFFFFFA1
0000028CEFEC8200
ENDCHAR
STARTCHAR igrave
ENCODING 236
SWIDTH 174 0
DWIDTH 6 0
BBX 5 19 0 0
BITMAP
6E7000
0CFA00
01BF90
000870
001000
00E600
00F700
00F800
00FA00
00FC00
00EE00
00DF20
00CF50
00BF80
009FB0
007FD0
004FE0
001FF0
0009B0
ENDCHAR
STARTCHAR iacute
ENCODING 237
SWIDTH 174 0
DWIDTH 6 0
BBX 6 20 -1 0
BITMAP
0001A6
004DE3
05FE30
2FD200
4C2000
000100
000E60
000F70
000F80
000FA0
000FC0
000EE0
000DF2
000CF5
000BF8
0009FB
0007FD
0004FE
0001FF
00009B
ENDCHAR
STARTCHAR icircumflex
ENCODING 238
SWIDTH 174 0
DWIDTH 6 0
BBX 10 24 -2 0
BITMAP
0000430000
0000DE2000
0004FFD100
000CFFFB00
00AFAAFF80
1BFB009FF1
5FA1000AF2
0100000020
0000000000
0000100000
0000E60000
0000F70000
0000F80000
0000FA0000
0000FC0000
0000EE0000
0000DF2000
0000CF5000
0000BF8000
00009FB000
00007FD000
00004FE000
00001FF000
000009B000
ENDCHAR
STARTCHAR idieresis
ENCODING 239
SWIDTH 174 0
DWIDTH 6 0
BBX 9 19 -2 0
BITMAP
0781007810
6FF806FF80
5FF605FF60
0440004300
0000100000
0000E60000
0000F70000
0000F80000
0000FA0000
0000FC0000
0000EE0000
0000DF2000
0000CF5000
0000BF8000
00009FB000
00007FD000
00004FE000
00001FF000
000009B000
ENDCHAR
STARTCHAR eth
ENCODING 240
SWIDTH 407 0
DWIDTH 13 0
BBX 13 18 0 -1
BITMAP
08DCA500000000
3FEDFFC3000210
07103BFE318F90
0000006FFFFF90
00004AFFFFC500
0000EFF95FC000
0000782008F600
0000245532FC00
003CFFFFFEFF10
03EF71025AFF50
0BF50000006F70
2FA00000000E90
3F700000001F80
2FA00000006F50
0CF8000005FE10
02EFEA88CFF600
0019EFFFFE6000
00000356510000
ENDCHAR
STARTCHAR ntilde
ENCODING 241
SWIDTH 459 0
DWIDTH 15 0
BBX 15 21 0 0
BITMAP
0014200000030000
03EFFA2001BE1000
0DC22BF99ED20000
0F60007EFD200000
0B40000020000000
0110000000000000
0000000000000000
000005BEE9100000
0604CFEDFFD10000
1FEFD5001BFB0000
1FFD100001DF4000
1FF60000004FC000
1FF20000000DF200
0FF100000008F700
0DF200000004FB00
0CF400000001FE00
0AF800000000EF10
07FB00000000DF20
02FE00000000DF10
00BF20000000EE00
002C30000000D800
ENDCHAR
STARTCHAR ograve
ENCODING 242
SWIDTH 487 0
DWIDTH 16 0
BBX 15 18 0 0
BITMAP
0000009600000000
0000008FC1000000
00000009FD100000
000000007F400000
0000000000000000
000016ADEEB30000
0006EFFEEFFF5000
009FD61005CFF400
06F900000007FD00
0EB0000000008F40
4F40000000002F80
6F20000000002FA0
5F40000000007F90
2F9000000003EF50
0CF40000003EFD00
03FF810028FFE300
005EFFDDFFFC3000
00018CEFDA500000
ENDCHAR
STARTCHAR oacute
ENCODING 243
SWIDTH 487 0
DWIDTH 16 0
BBX 15 20 0 0
BITMAP
0000000025000000
00000005EA000000
0000009FC1000000
000009FB10000000
00001FA000000000
0000050000000000
0000000000000000
000016ADEEB30000
0006EFFEEFFF5000
009FD61005CFF400
06F900000007FD00
0EB0000000008F40
4F40000000002F80
6F20000000002FA0
5F40000000007F90
2F9000000003EF50
0CF40000003EFD00
03FF810028FFE300
005EFFDDFFFC3000
00018CEFDA500000
ENDCHAR
STARTCHAR ocircumflex
ENCODING 244
SWIDTH 487 0
DWIDTH 16 0
BBX 15 22 0 0
BITMAP
0000000510000000
0000002FC0000000
0000008FF9000000
000002EFFF700000
00002DF7DFF40000
0003EF701CFB0000
0009F70001DD0000
0000100000020000
0000000000000000
000016ADEEB30000
0006EFFEEFFF5000
009FD61005CFF400
06F900000007FD00
0EB0000000008F40
4F40000000002F80
6F20000000002FA0
5F40000000007F90
2F9000000003EF50
0CF40000003EFD00
03FF810028FFE300
005EFFDDFFFC3000
00018CEFDA500000
ENDCHAR
STARTCHAR otilde
ENCODING 245
SWIDTH 487 0
DWIDTH 16 0
BBX 15 18 0 0
BITMAP
0000340000003100
0009FFE60006F700
006F607ED8BF7000
008D0002BFF70000
004B000002100000
000116ADEEB30000
0006EFFEEFFF5000
009FD61005CFF400
06F900000007FD00
0EB0000000008F40
4F40000000002F80
6F20000000002FA0
5F40000000007F90
2F9000000003EF50
0CF40000003EFD00
03FF810028FFE300
005EFFDDFFFC3000
00018CEFDA500000
ENDCHAR
STARTCHAR odieresis
ENCODING 246
SWIDTH 487 0
DWIDTH 16 0
BBX 15 17 0 0
BITMAP
00006B3006B30000
0003FFC03FFC0000
0001EF901EF90000
0000130001300000
000016ADEEB30000
0006EFFEEFFF5000
009FD61005CFF400
06F900000007FD00
0EB0000000008F40
4F40000000002F80
6F20000000002FA0
5F40000000007F90
2F9000000003EF50
0CF40000003EFD00
03FF810028FFE300
005EFFDDFFFC3000
00018CEFDA500000
ENDCHAR
STARTCHAR divide
ENCODING 247
SWIDTH 335 0
DWIDTH 11 0
BBX 9 9 1 2
BITMAP
0004900000
0004F50000
0000710000
0456787400
8FFFFFFF50
6752002410
0000000000
0003D10000
0002910000
ENDCHAR
STARTCHAR oslash
ENCODING 248
SWIDTH 487 0
DWIDTH 16 0
BBX 15 15 0 0
BITMAP
00000000002A2000
0000000233CF2000
000039EFFFFC0000
0019FFDAAFFF8000
00BFA2006FDFF500
08F60002EE24FE10
1E90000BF7007F50
4F40006FC0002F90
6F2002EF30002FA0
5F400BF800007F80
3F907FC00003FF40
0CF7FF30004EFC00
04FFF70028FFE300
00DFFFCCFFFC3000
02D98CEFEA500000
ENDCHAR
STARTCHAR ugrave
ENCODING 249
SWIDTH 501 0
DWIDTH 16 0
BBX 16 22 0 0
BITMAP
0000871000000000
00006FD200000000
000007FE20000000
0000005E60000000
0000000000000000
0000000000000000
0000000000000000
1B50000000000000
6F60000000013000
8F3000000009F100
8F2000000009F500
6F3000000009F700
5F5000000009F900
3F8000000009FA00
0ED00000000AFA00
0AF30000001EFB00
04FB0000009FFE00
00CF500006FEEF40
003FE6006FC23F90
0006FFEDFD100CE1
00004BEE910009F5
00000000000004F7
ENDCHAR
STARTCHAR uacute
ENCODING 250
SWIDTH 501 0
DWIDTH 16 0
BBX 16 22 0 0
BITMAP
0000000015000000
00000004DC000000
0000007FD2000000
000007FC20000000
00000DB100000000
0000041000000000
0000000000000000
1B50000000000000
6F60000000013000
8F3000000009F100
8F2000000009F500
6F3000000009F700
5F5000000009F900
3F8000000009FA00
0ED00000000AFA00
0AF30000001EFB00
04FB0000009FFE00
00CF500006FEEF40
003FE6006FC23F90
0006FFEDFD100CE1
00004BEE910009F5
00000000000004F7
ENDCHAR
STARTCHAR ucircumflex
ENCODING 251
SWIDTH 501 0
DWIDTH 16 0
BBX 16 24 0 0
BITMAP
0000000240000000
0000000AF5000000
0000001EFE300000
0000009FFFD10000
000007FC8FFB0000
00009FD206FF4000
0002FC20007F5000
0000100000020000
0000000000000000
1B50000000000000
6F60000000013000
8F3000000009F100
8F2000000009F500
6F3000000009F700
5F5000000009F900
3F8000000009FA00
0ED00000000AFA00
0AF30000001EFB00
04FB0000009FFE00
00CF500006FEEF40
003FE6006FC23F90
0006FFEDFD100CE1
00004BEE910009F5
00000000000004F7
ENDCHAR
STARTCHAR udieresis
ENCODING 252
SWIDTH 501 0
DWIDTH 16 0
BBX 16 20 0 0
BITMAP
0002B8002B700000
000BFF40BFF40000
0008FE208FE20000
0000310003100000
0000000000000000
1B50000000000000
6F60000000013000
8F3000000009F100
8F2000000009F500
6F3000000009F700
5F5000000009F900
3F8000000009FA00
0ED00000000AFA00
0AF30000001EFB00
04FB0000009FFE00
00CF500006FEEF40
003FE6006FC23F90
0006FFEDFD100CE1
00004BEE910009F5
00000000000004F7
ENDCHAR
STARTCHAR yacute
ENCODING 253
SWIDTH 487 0
DWIDTH 16 0
BBX 16 38 0 -16
BITMAP
0000000024000000
00000006E9000000
000000AFB1000000
00000AFA00000000
00002F9000000000
0000050000000000
0000000000000000
0000000000001000
2800000000008400
6D00000000009900
7F0000000000AC00
6F20000000009F00
4F50000000009F30
2F90000000008F50
0DD0000000007F70
09F3000000006F90
03F9000000008FB0
00AF30000005FFC0
002ED200007FFFD0
0004EE968DFC7DE0
00003CFFFD5007E0
00000035500006F0
00000000000005F0
00000000000006F1
00000000000007F1
00000000000008F0
0000000000000AF0
0000000000000CD0
0000000000000DC0
0000000000001FA0
0210000000003F70
08C1000000006F50
06FB10000000AF10
01DFC1000002FB00
002EFE40000BF400
0001BFFB77CFB000
000005DFFFFD1000
0000000379610000
ENDCHAR
STARTCHAR thorn
ENCODING 254
SWIDTH 520 0
DWIDTH 17 0
BBX 16 23 0 -6
BITMAP
0011000000000000
05F4000000000000
07F2000000000000
09E0000000000000
0AD0000000000000
0BB0159BCCB83000
0C98EFFFEDFFFA10
0CFFE9510016DFB0
0CFC200000001CF6
0CF50000000003FC
0DF40000000000DE
0DF20000000000EE
0EF8520000002AFC
0FFFFFECA99CFFF5
1FF8DFFFFFFFFC40
1FE0013344431000
2FE0000000000000
2FE0000000000000
1FD0000000000000
1FD0000000000000
0FE0000000000000
0DE0000000000000
0AE0000000000000
ENDCHAR
STARTCHAR ydieresis
ENCODING 255
SWIDTH 487 0
DWIDTH 16 0
BBX 16 35 0 -16
BITMAP
0001A8001A800000
0009FF509FF50000
0006FE306FE30000
0000310003100000
0000000000001000
2800000000008400
6D00000000009900
7F0000000000AC00
6F20000000009F00
4F50000000009F30
2F90000000008F50
0DD0000000007F70
09F3000000006F90
03F9000000008FB0
00AF30000005FFC0
002ED200007FFFD0
0004EE968DFC7DE0
00003CFFFD5007E0
00000035500006F0
00000000000005F0
00000000000006F1
00000000000007F1
00000000000008F0
0000000000000AF0
0000000000000CD0
0000000000000DC0
0000000000001FA0
0210000000003F70
08C1000000006F50
06FB10000000AF10
01DFC1000002FB00
002EFE40000BF400
0001BFFB77CFB000
000005DFFFFD1000
0000000379610000
ENDCHAR
STARTCHAR Amacron
ENCODING 256
SWIDTH 562 0
DWIDTH 18 0
BBX 18 29 0 0
BITMAP
000001234430000000
00009FFFFFFC000000
0002FFCA89BC000000
000021000000000000
000000034300000000
000018EFFFD5000000
0001CE8447EF800000
0009E300001CF50000
001F70000001EE1000
006E100000005F7000
00AA000000000CD000
00D70000000006F300
01F40000000001F800
02F20000000000CC00
04F100000000009F10
05F000000000006F40
06E000000000004F70
07E000000000004F90
1AFCBA987765439FB0
4FFFCBAABCEFFFFFD0
08F500000001332FE0
03F400000000000DF0
04F500000000000BF1
04F700000000000BF2
03FA00000000000BF2
01FC00000000000DF2
00DF00000000001FF0
00AF20000000004FE0
003E20000000004F60
ENDCHAR
STARTCHAR amacron
ENCODING 257
SWIDTH 505 0
DWIDTH 16 0
BBX 16 22 0 0
BITMAP
0000012344200000
0001BFFFFFF80000
0005FFC98ACA0000
0001200000000000
0000000000000000
0000000000000000
000008DD92000000
00005FEEFF700000
000036005EF90000
0000000001CF7000
00000000001EF200
000000000008F900
00028BDCB845FF10
007FFFECCFFEFF70
07FE8300017EFFC0
1FD100000003EFE0
5F40000000003FF1
5F300000000007F2
1EC2000000000191
07FE95323468ABB3
006EFFFFFFFFFE81
00016ACDFEB83000
ENDCHAR
STARTCHAR Abreve
ENCODING 258
SWIDTH 562 0
DWIDTH 18 0
BBX 18 30 0 0
BITMAP
00000081004E000000
0000009B45CB000000
0000001BFFB1000000
000000001100000000
000000000000000000
000000034300000000
000018EFFFD5000000
0001CE8447EF800000
0009E300001CF50000
001F70000001EE1000
006E100000005F7000
00AA000000000CD000
00D70000000006F300
01F40000000001F800
02F20000000000CC00
04F100000000009F10
05F000000000006F40
06E000000000004F70
07E000000000004F90
1AFCBA987765439FB0
4FFFCBAABCEFFFFFD0
08F500000001332FE0
03F400000000000DF0
04F500000000000BF1
04F700000000000BF2
03FA00000000000BF2
01FC00000000000DF2
00DF00000000001FF0
00AF20000000004FE0
003E20000000004F60
ENDCHAR
STARTCHAR abreve
ENCODING 259
SWIDTH 505 0
DWIDTH 16 0
BBX 16 21 0 0
BITMAP
000046000D600000
00003E648F300000
000007EFD5000000
0000000100000000
0000000000000000
000008DD92000000
00005FEEFF700000
000036005EF90000
0000000001CF7000
00000000001EF200
000000000008F900
00028BDCB845FF10
007FFFECCFFEFF70
07FE8300017EFFC0
1FD100000003EFE0
5F40000000003FF1
5F300000000007F2
1EC2000000000191
07FE95323468ABB3
006EFFFFFFFFFE81
00016ACDFEB83000
ENDCHAR
STARTCHAR Aogonek
ENCODING 260
SWIDTH 562 0
DWIDTH 18 0
BBX 18 30 0 -5
BITMAP
000000034300000000
000018EFFFD5000000
0001CE8447EF800000
0009E300001CF50000
001F70000001EE1000
006E100000005F7000
00AA000000000CD000
00D70000000006F300
01F40000000001F800
02F20000000000CC00
04F100000000009F10
05F000000000006F40
06E000000000004F70
07E000000000004F90
1AFCBA987765439FB0
4FFFCBAABCEFFFFFD0
08F500000001332FE0
03F400000000000DF0
04F500000000000BF1
04F700000000000BF2
03FA00000000000BF2
01FC00000000000DF2
00DF00000000001FF0
00AF20000000006FE0
003E200000003CFF60
000000000000EE5000
000000000004F50000
000000000005F80000
000000000001CFDA87
000000000000036785
ENDCHAR
STARTCHAR aogonek
ENCODING 261
SWIDTH 505 0
DWIDTH 16 0
BBX 16 20 0 -4
BITMAP
000008DD92000000
00005FEEFF700000
000036005EF90000
0000000001CF7000
00000000001EF200
000000000008F900
00028BDCB845FF10
007FFFECCFFEFF70
07FE8300017EFFC0
1FD100000003EFE0
5F40000000003FF1
5F300000000007F2
1EC2000000000191
07FE95323468ABB3
006EFFFFFFFFFE81
00016ACDFFFA4000
000000001F900000
000000003F800000
000000000DFB7550
000000000169BB90
ENDCHAR
STARTCHAR Cacute
ENCODING 262
SWIDTH 515 0
DWIDTH 17 0
BBX 16 27 0 0
BITMAP
0000000000330000
0000000007F70000
00000001BFA00000
0000000CF9000000
0000003F70000000
0000001400000000
0000000027A91000
0000002AFFFF8000
000004EFD77F8000
00005FE7000E4000
0003FC20005A0000
001DC10000200000
008E100000000000
02F4000000000000
08C0000000000000
0E60000000000000
3F30000000000000
5F10000000000000
6F20000000000000
5F30000000000000
3F50000000000000
0F90000000000000
0AE1000000000000
04FA000000001342
00BFB31247ADFFF6
002DFFFFFFFFC940
00019EFDA7410000
ENDCHAR
STARTCHAR cacute
ENCODING 263
SWIDTH 449 0
DWIDTH 14 0
BBX 14 21 0 0
BITMAP
00000000051000
00000001AF2000
0000003EF50000
000003EE400000
000009E3000000
00000320000000
00000000000000
00004AEFD81000
0009FD98BFD100
00AF700006F500
06F8000000B400
0DE10000006000
3F900000000000
5F600000000000
6F600000000000
4F800000000000
1FD00000000000
0AF90000000000
02EFC510000000
003DFFFECCBCC5
00005ADEFFEC81
ENDCHAR
STARTCHAR Ccircumflex
ENCODING 264
SWIDTH 515 0
DWIDTH 17 0
BBX 16 29 0 0
BITMAP
0000000150000000
00000007F8000000
0000000CFF500000
0000005FFFF30000
000004FE6EFE1000
00006FF403EF7000
0000DD40004E8000
0000100000011000
0000000027A91000
0000002AFFFF8000
000004EFD77F8000
00005FE7000E4000
0003FC20005A0000
001DC10000200000
008E100000000000
02F4000000000000
08C0000000000000
0E60000000000000
3F30000000000000
5F10000000000000
6F20000000000000
5F30000000000000
3F50000000000000
0F90000000000000
0AE1000000000000
04FA000000001342
00BFB31247ADFFF6
002DFFFFFFFFC940
00019EFDA7410000
ENDCHAR
STARTCHAR ccircumflex
ENCODING 265
SWIDTH 449 0
DWIDTH 14 0
BBX 14 24 0 0
BITMAP
00000015000000
0000008F800000
000000DFF40000
000006FFFE3000
00005FE7FFD100
0007FE304FF600
001ED30005F700
00010000001100
00000000000000
00000000000000
00004AEFD81000
0009FD98BFD100
00AF700006F500
06F8000000B400
0DE10000006000
3F900000000000
5F600000000000
6F600000000000
4F800000000000
1FD00000000000
0AF90000000000
02EFC510000000
003DFFFECCBCC5
00005ADEFFEC81
ENDCHAR
STARTCHAR Cdotaccent
ENCODING 266
SWIDTH 515 0
DWIDTH 17 0
BBX 16 25 0 0
BITMAP
0000000382000000
00000007F8000000
00000003F8000000
0000000031000000
0000000027A91000
0000002AFFFF8000
000004EFD77F8000
00005FE7000E4000
0003FC20005A0000
001DC10000200000
008E100000000000
02F4000000000000
08C0000000000000
0E60000000000000
3F30000000000000
5F10000000000000
6F20000000000000
5F30000000000000
3F50000000000000
0F90000000000000
0AE1000000000000
04FA000000001342
00BFB31247ADFFF6
002DFFFFFFFFC940
00019EFDA7410000
ENDCHAR
STARTCHAR cdotaccent
ENCODING 267
SWIDTH 449 0
DWIDTH 14 0
BBX 14 18 0 0
BITMAP
00000085000000
000000FE000000
000000CE000000
00000012000000
00004AEFD81000
0009FD98BFD100
00AF700006F500
06F8000000B400
0DE10000006000
3F900000000000
5F600000000000
6F600000000000
4F800000000000
1FD00000000000
0AF90000000000
02EFC510000000
003DFFFECCBCC5
00005ADEFFEC81
ENDCHAR
STARTCHAR Ccaron
ENCODING 268
SWIDTH 515 0
DWIDTH 17 0
BBX 16 27 0 0
BITMAP
0000025100003500
000004CE802AFB00
00000005EDFFB100
000000004FE60000
0000000004200000
0000000000000000
0000000027A91000
0000002AFFFF8000
000004EFD77F8000
00005FE7000E4000
0003FC20005A0000
001DC10000200000
008E100000000000
02F4000000000000
08C0000000000000
0E60000000000000
3F30000000000000
5F10000000000000
6F20000000000000
5F30000000000000
3F50000000000000
0F90000000000000
0AE1000000000000
04FA000000001342
00BFB31247ADFFF6
002DFFFFFFFFC940
00019EFDA7410000
ENDCHAR
STARTCHAR ccaron
ENCODING 269
SWIDTH 449 0
DWIDTH 14 0
BBX 14 20 0 0
BITMAP
00044000015200
0007EC405DF500
000019FDFE6000
000000AFC20000
00000014000000
00000000000000
00004AEFD81000
0009FD98BFD100
00AF700006F500
06F8000000B400
0DE10000006000
3F900000000000
5F600000000000
6F600000000000
4F800000000000
1FD00000000000
0AF90000000000
02EFC510000000
003DFFFECCBCC5
00005ADEFFEC81
ENDCHAR
STARTCHAR Dcaron
ENCODING 270
SWIDTH 741 0
DWIDTH 24 0
BBX 23 26 0 -1
BITMAP
000000015200002600000000
00000002AFA118FE10000000
0000000003DEEFD300000000
00000000001EF80000000000
000000110003300000000000
027BDFFFFDB7300000000000
3FFFECBBBFFFFD7100000000
3B4100000DF78EFE70000000
0000000008F5007EFC200000
0000000005F60001AFE40000
0000000002F8000006FF4000
0000000000FA0000006FE200
0000000000CD00000008FA00
0000000000AF00000000DF20
00000000009F300000006F70
00000000008F500000002FA0
00000000007F700000000FC0
00000000006F900000001FB0
00000000006FA00000005F90
00000000005FA0000000CF60
00000000003FA0000009FE10
00000000000E7000019FF600
00000001A62000005DFF8000
00000002EFFD99AEFFE60000
000000003BFFFFFFD8100000
000000000013554100000000
ENDCHAR
STARTCHAR dcaron
ENCODING 271
SWIDTH 582 0
DWIDTH 19 0
BBX 19 25 0 0
BITMAP
00000000000000002000
0000000000000000F300
00000000005B0000F900
00000000008F8000FC00
00000000006FE100EE00
00000000002FF700DF00
00000000000EFC00AF10
000000000009FF005F10
000000000005FF400500
000000000001FF700000
000000000000DF900000
0004CEEB5000AFB00000
007FFFFFFC409FD00000
03FFE967BFF9AFF00000
0AFE200003CFFFF10000
1FF400000009FFF20000
4FD000000000BFF40000
6F9000000000CFF50000
6F8000000002FFF60000
4FC00000000AFFF70000
1EF10000008FEFF90000
0AF8000019FE27FA0000
02FF7237EFE302FD0000
006FFFFFFB1000790000
0005DFDA300000000000
ENDCHAR
STARTCHAR Dcroat
ENCODING 272
SWIDTH 741 0
DWIDTH 24 0
BBX 23 22 0 -1
BITMAP
000000110000000000000000
027BDFFFFDB7300000000000
3FFFECBBBFFFFD7100000000
3B4100000DF88EFE70000000
0000000008F5007EFC200000
0000000005F70001AFE40000
0000000002F8000006FF4000
0000000000FA0000006FE200
0000000000CC00000008FA00
0000000000AE00000000DF20
00000006BCEFED6000006F70
0000003FFFFFFFD000002FA0
00000027517F712000000FC0
00000000006F900000001FB0
00000000006FA00000005F90
00000000005FA0000000CF60
00000000003FA0000009FE10
00000000000E7000019FF600
00000001A62000005DFF8000
00000002EFFD99AEFFE60000
000000003BFFFFFFD8100000
000000000013554100000000
ENDCHAR
STARTCHAR dcroat
ENCODING 273
SWIDTH 524 0
DWIDTH 17 0
BBX 17 24 0 0
BITMAP
000000000002000000
00000000007E200000
00000000008FA00000
00000000005FF30000
00000000001FF80000
000000028BCFFFED50
0000002EFFFFFFEFD0
000000386424FF5120
000000000001FF7000
000035520000CF9000
001AFFFFB300AFB000
00BFFFFFFFA19FE000
06FFB3015CFECFF000
0CFB0000007FFFF100
2FF200000005EFF300
4FC000000000AFF400
6F9000000000CFF500
5F9000000003FFF600
3FC00000000BFFF700
0EF20000009FEEF900
09F800001AFE27FA00
02EF7238EFD301FD00
006FFFFFFA10007900
0005DFD93000000000
ENDCHAR
STARTCHAR Emacron
ENCODING 274
SWIDTH 524 0
DWIDTH 17 0
BBX 16 25 0 0
BITMAP
0000002344300000
00007FFFFFFD1000
0000EFDA89BC2000
0000310000000000
0000000000000000
08CBBAA999999600
0EFFFFFFFFFFEF80
0ED3322111000250
0ED0000000000000
0ED0000000000000
0ED0000000000000
0ED0000000000000
0ED000000368AA10
2FE889BDFFFFD500
4FFFEDCB97520000
2FB1000000000000
2F70000000000000
3F60000000000000
4F50000000000000
5F50000000000000
6F60000000000000
5F60000000000000
2FA211224579AA91
09FFFFFFFFFFFFD1
007CFFFFFEDB8500
ENDCHAR
STARTCHAR emacron
ENCODING 275
SWIDTH 515 0
DWIDTH 17 0
BBX 16 22 0 0
BITMAP
0000002344300000
00007FFFFFFD1000
0000FFDA89BC1000
0000210000000000
0000000000000000
0000026861000000
0002BFFFFE500000
003EE7205EF20000
01DE200005F80000
07F4000000EA0000
0DC0000000DB0000
2F80000008F70000
5F600003BFD10000
6F6877BFFC200000
5F7CFFEB50000000
3F90210000000000
0DD0000000000000
07F6000000000000
00CF600000000000
002DFD8420012342
0001AFFFFFFFFFA1
0000028CEFEC8200
ENDCHAR
STARTCHAR Ebreve
ENCODING 276
SWIDTH 524 0
DWIDTH 17 0
BBX 16 25 0 0
BITMAP
0000081005D00000
00000AA45CA00000
000002CFFA100000
0000000100000000
0000000000000000
08CBBAA999999600
0EFFFFFFFFFFEF80
0ED3322111000250
0ED0000000000000
0ED0000000000000
0ED0000000000000
0ED0000000000000
0ED000000368AA10
2FE889BDFFFFD500
4FFFEDCB97520000
2FB1000000000000
2F70000000000000
3F60000000000000
4F50000000000000
5F50000000000000
6F60000000000000
5F60000000000000
2FA211224579AA91
09FFFFFFFFFFFFD1
007CFFFFFEDB8500
ENDCHAR
STARTCHAR ebreve
ENCODING 277
SWIDTH 515 0
DWIDTH 17 0
BBX 16 22 0 0
BITMAP
00000090007C0000
000000C945D90000
0000003CFF900000
0000000010000000
0000000000000000
0000026861000000
0002BFFFFE500000
003EE7205EF20000
01DE200005F80000
07F4000000EA0000
0DC0000000DB0000
2F80000008F70000
5F600003BFD10000
6F6877BFFC200000
5F7CFFEB50000000
3F90210000000000
0DD0000000000000
07F6000000000000
00CF600000000000
002DFD8420012342
0001AFFFFFFFFFA1
0000028CEFEC8200
ENDCHAR
STARTCHAR Edotaccent
ENCODING 278
SWIDTH 524 0
DWIDTH 17 0
BBX 16 25 0 0
BITMAP
0000001830000000
0000002FC0000000
0000000EC0000000
0000000120000000
0000000000000000
08CBBAA999999600
0EFFFFFFFFFFEF80
0ED3322111000250
0ED0000000000000
0ED0000000000000
0ED0000000000000
0ED0000000000000
0ED000000368AA10
2FE889BDFFFFD500
4FFFEDCB97520000
2FB1000000000000
2F70000000000000
3F60000000000000
4F50000000000000
5F50000000000000
6F60000000000000
5F60000000000000
2FA211224579AA91
09FFFFFFFFFFFFD1
007CFFFFFEDB8500
ENDCHAR
STARTCHAR edotaccent
ENCODING 279
SWIDTH 515 0
DWIDTH 17 0
BBX 16 22 0 0
BITMAP
0000008500000000
000000FE00000000
000000CE00000000
0000001200000000
0000000000000000
0000026861000000
0002BFFFFE500000
003EE7205EF20000
01DE200005F80000
07F4000000EA0000
0DC0000000DB0000
2F80000008F70000
5F600003BFD10000
6F6877BFFC200000
5F7CFFEB50000000
3F90210000000000
0DD0000000000000
07F6000000000000
00CF600000000000
002DFD8420012342
0001AFFFFFFFFFA1
0000028CEFEC8200
ENDCHAR
STARTCHAR Eogonek
ENCODING 280
SWIDTH 524 0
DWIDTH 17 0
BBX 16 25 0 -5
BITMAP
08CBBAA999999600
0EFFFFFFFFFFEF80
0ED3322111000250
0ED0000000000000
0ED0000000000000
0ED0000000000000
0ED0000000000000
0ED000000368AA10
2FE889BDFFFFD500
4FFFEDCB97520000
2FB1000000000000
2F70000000000000
3F60000000000000
4F50000000000000
5F50000000000000
6F60000000000000
5F60000000000000
2FA211224579AA91
09FFFFFFFFFFFFD1
007CFFFFFFFFA500
000000004FC20000
000000008F100000
000000009F400000
000000003EFC9840
0000000000478820
ENDCHAR
STARTCHAR eogonek
ENCODING 281
SWIDTH 515 0
DWIDTH 17 0
BBX 16 22 0 -5
BITMAP
0000026861000000
0002BFFFFE500000
003EE7205EF20000
01DE200005F80000
07F4000000EA0000
0DC0000000DB0000
2F80000008F70000
5F600003BFD10000
6F6877BFFC200000
5F7CFFEB50000000
3F90210000000000
0DD0000000000000
07F6000000000000
00CF600000000000
002DFD8420012342
0001AFFFFFFFFFA1
0000028CEFFD8200
00000000AF700000
00000000EA000000
00000000ED200000
000000006EFCA920
0000000001466600
ENDCHAR
STARTCHAR Ecaron
ENCODING 282
SWIDTH 524 0
DWIDTH 17 0
BBX 16 25 0 0
BITMAP
0000340000054000
00006DD503CF8000
0000007FDFF80000
00000007FD400000
0000000151000000
08CBBAA999999600
0EFFFFFFFFFFEF80
0ED3322111000250
0ED0000000000000
0ED0000000000000
0ED0000000000000
0ED0000000000000
0ED000000368AA10
2FE889BDFFFFD500
4FFFEDCB97520000
2FB1000000000000
2F70000000000000
3F60000000000000
4F50000000000000
5F50000000000000
6F60000000000000
5F60000000000000
2FA211224579AA91
09FFFFFFFFFFFFD1
007CFFFFFEDB8500
ENDCHAR
STARTCHAR ecaron
ENCODING 283
SWIDTH 515 0
DWIDTH 17 0
BBX 16 23 0 0
BITMAP
0000440000053000
00007ED404DF6000
0000019FDFF70000
00000009FC300000
0000000140000000
0000000000000000
0000026861000000
0002BFFFFE500000
003EE7205EF20000
01DE200005F80000
07F4000000EA0000
0DC0000000DB0000
2F80000008F70000
5F600003BFD10000
6F6877BFFC200000
5F7CFFEB50000000
3F90210000000000
0DD0000000000000
07F6000000000000
00CF600000000000
002DFD8420012342
0001AFFFFFFFFFA1
0000028CEFEC8200
ENDCHAR
STARTCHAR Gcircumflex
ENCODING 284
SWIDTH 571 0
DWIDTH 18 0
BBX 17 29 1 -3
BITMAP
000000000043000000
0000000000EE200000
0000000004FFC10000
000000000CFFFA0000
00000001BF9BFF7000
0000001CFB00AFE000
0000006F90000AF100
000000010000002000
000000000000000000
000000000158BA5000
00000003AEFFFFF500
000001AFD842138700
00006EE60000000000
0009FA100000000000
009F90000000000000
06F900000000000000
1EC000074000132000
8F40000EFEEFFFF700
CD000004999999FC00
EA000000000000CC00
E9000000000000DC00
BC000000000002FC00
6F80000000001CFC00
0CFB41011248EFFC00
02CFFFFFFFEBA9FC00
0006ACB9630001FC00
00000000000000EF50
000000000000007FA0
000000000000000200
ENDCHAR
STARTCHAR gcircumflex
ENCODING 285
SWIDTH 366 0
DWIDTH 12 0
BBX 17 40 -5 -16
BITMAP
000000000033000000
0000000000CF300000
0000000002FFD20000
000000000BFFFC1000
000000009FB9FFA000
0000001BFC108FF200
0000004FB10008F300
000000010000002000
000000000000000000
000000000000000000
000000000001200000
0000000003AFFB1000
000000006FEBBF9000
00000005FB1009F200
0000001EC00005F600
0000009F300004FA00
000000EB000003FD00
000004F7000003FF00
000005F6000005FF20
000005F900000BFF30
000001EF40008FFF40
0000006FFCCEFFFF50
00000006EFFE85FF50
00000000154100DF60
00000000000000AF60
000000000000008F70
000000000000006F70
000000000000004F80
000000000000002F80
000000000000001FA0
000000000000001FB0
1B6000000000002FA0
3F6000000000003F90
1F9000000000006F70
0BF600000000009F40
02EFB400000001EF00
002CFFC6100009FA00
00007EFFFC97AFF300
0000016CFFFFFF7000
000000001589830000
ENDCHAR
STARTCHAR Gbreve
ENCODING 286
SWIDTH 571 0
DWIDTH 18 0
BBX 17 24 1 -3
BITMAP
0000072003F1000000
000008B55BC0000000
000001BFFB20000000
000000011000000000
000000000158BA5000
00000003AEFFFFF500
000001AFD842138700
00006EE60000000000
0009FA100000000000
009F90000000000000
06F900000000000000
1EC000074000132000
8F40000EFEEFFFF700
CD000004999999FC00
EA000000000000CC00
E9000000000000DC00
BC000000000002FC00
6F80000000001CFC00
0CFB41011248EFFC00
02CFFFFFFFEBA9FC00
0006ACB9630001FC00
00000000000000EF50
000000000000007FA0
000000000000000200
ENDCHAR
STARTCHAR gbreve
ENCODING 287
SWIDTH 366 0
DWIDTH 12 0
BBX 17 34 -5 -16
BITMAP
0000000180009A0000
00000000E846E60000
000000004DFE800000
000000000010000000
000000000001200000
0000000003AFFB1000
000000006FEBBF9000
00000005FB1009F200
0000001EC00005F600
0000009F300004FA00
000000EB000003FD00
000004F7000003FF00
000005F6000005FF20
000005F900000BFF30
000001EF40008FFF40
0000006FFCCEFFFF50
00000006EFFE85FF50
00000000154100DF60
00000000000000AF60
000000000000008F70
000000000000006F70
000000000000004F80
000000000000002F80
000000000000001FA0
000000000000001FB0
1B6000000000002FA0
3F6000000000003F90
1F9000000000006F70
0BF600000000009F40
02EFB400000001EF00
002CFFC6100009FA00
00007EFFFC97AFF300
0000016CFFFFFF7000
000000001589830000
ENDCHAR
STARTCHAR Gdotaccent
ENCODING 288
SWIDTH 571 0
DWIDTH 18 0
BBX 17 24 1 -3
BITMAP
000000000760000000
000000000DF1000000
000000000AF2000000
000000000130000000
000000000158BA5000
00000003AEFFFFF500
000001AFD842138700
00006EE60000000000
0009FA100000000000
009F90000000000000
06F900000000000000
1EC000074000132000
8F40000EFEEFFFF700
CD000004999999FC00
EA000000000000CC00
E9000000000000DC00
BC000000000002FC00
6F80000000001CFC00
0CFB41011248EFFC00
02CFFFFFFFEBA9FC00
0006ACB9630001FC00
00000000000000EF50
000000000000007FA0
000000000000000200
ENDCHAR
STARTCHAR gdotaccent
ENCODING 289
SWIDTH 366 0
DWIDTH 12 0
BBX 17 34 -5 -16
BITMAP
000000000282000000
0000000005FA000000
0000000002EA000000
000000000021000000
000000000001200000
0000000003AFFB1000
000000006FEBBF9000
00000005FB1009F200
0000001EC00005F600
0000009F300004FA00
000000EB000003FD00
000004F7000003FF00
000005F6000005FF20
000005F900000BFF30
000001EF40008FFF40
0000006FFCCEFFFF50
00000006EFFE85FF50
00000000154100DF60
00000000000000AF60
000000000000008F70
000000000000006F70
000000000000004F80
000000000000002F80
000000000000001FA0
000000000000001FB0
1B6000000000002FA0
3F6000000000003F90
1F9000000000006F70
0BF600000000009F40
02EFB400000001EF00
002CFFC6100009FA00
00007EFFFC97AFF300
0000016CFFFFFF7000
000000001589830000
ENDCHAR
STARTCHAR Gcommaaccent
ENCODING 290
SWIDTH 571 0
DWIDTH 18 0
BBX 17 28 1 -11
BITMAP
000000000158BA5000
00000003AEFFFFF500
000001AFD842138700
00006EE60000000000
0009FA100000000000
009F90000000000000
06F900000000000000
1EC000074000132000
8F40000EFEEFFFF700
CD000004999999FC00
EA000000000000CC00
E9000000000000DC00
BC000000000002FC00
6F80000000001CFC00
0CFB41011248EFFC00
02CFFFFFFFEBA9FC00
0006ACB9630001FC00
00000000000000EF50
000000000000007FA0
000000000000000200
000000098000000000
0000002FF200000000
0000000BF400000000
00000008F400000000
0000000AF300000000
0000003FE000000000
0000003F6000000000
000000010000000000
ENDCHAR
STARTCHAR gcommaaccent
ENCODING 291
SWIDTH 366 0
DWIDTH 12 0
BBX 17 45 -5 -16
BITMAP
000000000020000000
0000000002F2000000
0000000002F7000000
0000000002FA000000
0000000001FC000000
0000000000ED000000
0000000000CE000000
00000000007E000000
000000000015000000
000000000000000000
000000000000000000
000000000000000000
000000000000000000
000000000000000000
000000000000000000
000000000001200000
0000000003AFFB1000
000000006FEBBF9000
00000005FB1009F200
0000001EC00005F600
0000009F300004FA00
000000EB000003FD00
000004F7000003FF00
000005F6000005FF20
000005F900000BFF30
000001EF40008FFF40
0000006FFCCEFFFF50
00000006EFFE85FF50
00000000154100DF60
00000000000000AF60
000000000000008F70
000000000000006F70
000000000000004F80
000000000000002F80
000000000000001FA0
000000000000001FB0
1B6000000000002FA0
3F6000000000003F90
1F9000000000006F70
0BF600000000009F40
02EFB400000001EF00
002CFFC6100009FA00
00007EFFFC97AFF300
0000016CFFFFFF7000
000000001589830000
ENDCHAR
STARTCHAR Hcircumflex
ENCODING 292
SWIDTH 524 0
DWIDTH 17 0
BBX 16 31 0 0
BITMAP
0000000150000000
00000006F9000000
0000000BFF600000
0000005FFFF40000
000004EE6EFE1000
00006FF403EF8000
0000DE40004E9000
0000000000011000
0000000000000000
0000000000000280
0840000000000BC0
0C70000000000CA0
0C90000000000DA0
0BB0000000000DA0
0BD0000000000DB0
0AE0000000000EB0
08F1000000000EB0
07F3000000001EB0
06F500000018EFB0
04F7000018EFEFC0
04F80029FFD61ED0
03FC6BFFC5000CE0
06FFFFB400000BE0
6FFFA30000000AF0
03EF3000000009F1
00AF3000000008F3
008F3000000008F5
006F3000000007F6
005F3000000005F8
003F4000000002FB
00091000000000BA
ENDCHAR
STARTCHAR hcircumflex
ENCODING 293
SWIDTH 427 0
DWIDTH 14 0
BBX 14 26 -1 0
BITMAP
00000001500000
00000007F80000
0000000CFF5000
1600006FFFE300
6F3005FE7EFD10
3F807FE304FF70
0ED0DD40004F80
0BF31000000110
07F70000000000
04FA0000000000
01FC0000000000
00EE0257510000
00BF9FFFFE4000
009FFFEDEFF300
007FD40017FC00
006F4000006F50
004F5000000DA0
003F70000009E0
002F90000007F3
001FA0000007F5
000FC0000007F7
000EE0000007F8
000DF1000008F7
000CF2000009F6
000AF300000AF4
0006D1000008C0
ENDCHAR
STARTCHAR hbar
ENCODING 295
SWIDTH 427 0
DWIDTH 14 0
BBX 16 23 -3 0
BITMAP
0016000000000000
006F300000000000
003F800000000000
000FD00000000000
000BF30000000000
06ADFEDA30000000
5FFFFFFFA0000000
5863FC1320000000
0000EE0257510000
0000BF9FFFFE4000
00009FFFEDEFF300
00007FD40017FC00
00006F4000006F50
00004F5000000DA0
00003F70000009E0
00002F90000007F3
00001FA0000007F5
00000FC0000007F7
00000EE0000007F8
00000DF1000008F7
00000CF2000009F6
00000AF300000AF4
000006D1000008C0
ENDCHAR
STARTCHAR Itilde
ENCODING 296
SWIDTH 167 0
DWIDTH 5 0
BBX 12 23 -3 0
BITMAP
003400000031
0AFFD60007F6
6F517FC8BF70
9D0003BFF600
5B0000021000
010550000000
0006E1000000
0004F5000000
0001FA000000
0000CD000000
00008F200000
00004F500000
00002F800000
00000EB00000
00000CE00000
00000BF10000
000009F30000
000007F50000
000006F70000
000004F90000
000002FB0000
000001FC0000
0000008A0000
ENDCHAR
STARTCHAR itilde
ENCODING 297
SWIDTH 174 0
DWIDTH 6 0
BBX 12 21 -2 0
BITMAP
05DE810002C6
4FA6CE726EC1
9E0008FFFB10
7B0000276100
050000000000
000000000000
000010000000
0000E6000000
0000F7000000
0000F8000000
0000FA000000
0000FC000000
0000EE000000
0000DF200000
0000CF500000
0000BF800000
00009FB00000
00007FD00000
00004FE00000
00001FF00000
000009B00000
ENDCHAR
STARTCHAR imacron
ENCODING 299
SWIDTH 174 0
DWIDTH 6 0
BBX 9 20 -2 0
BITMAP
0013344200
1CFFFFFF90
5FEB989CA0
1200000000
0000000000
0000100000
0000E60000
0000F70000
0000F80000
0000FA0000
0000FC0000
0000EE0000
0000DF2000
0000CF5000
0000BF8000
00009FB000
00007FD000
00004FE000
00001FF000
000009B000
ENDCHAR
STARTCHAR Ibreve
ENCODING 300
SWIDTH 167 0
DWIDTH 5 0
BBX 6 24 0 0
BITMAP
81005D
AA45CA
2CFFA1
001000
000000
000000
550000
6E1000
4F5000
1FA000
0CD000
08F200
04F500
02F800
00EB00
00CE00
00BF10
009F30
007F50
006F70
004F90
002FB0
001FC0
0008A0
ENDCHAR
STARTCHAR ibreve
ENCODING 301
SWIDTH 174 0
DWIDTH 6 0
BBX 7 20 -1 0
BITMAP
00000510
78001E50
2EB9DC00
03AB8100
00000000
00010000
000E6000
000F7000
000F8000
000FA000
000FC000
000EE000
000DF200
000CF500
000BF800
0009FB00
0007FD00
0004FE00
0001FF00
00009B00
ENDCHAR
STARTCHAR Iogonek
ENCODING 302
SWIDTH 167 0
DWIDTH 5 0
BBX 7 23 0 -5
BITMAP
55000000
6E100000
4F500000
1FA00000
0CD00000
08F20000
04F50000
02F80000
00EB0000
00CE0000
00BF1000
009F3000
008F5000
006F7000
004F9000
003FB000
003FC000
09FEA000
8F910000
DB000000
ED100000
7FFB8820
02578800
ENDCHAR
STARTCHAR iogonek
ENCODING 303
SWIDTH 174 0
DWIDTH 6 0
BBX 7 25 -1 -5
BITMAP
01200000
09E30000
04C60000
00000000
00000000
00010000
000E6000
000F7000
000F8000
000FA000
000FC000
000EE000
000DF200
000CF500
000BF800
0009FB00
0007FD00
0004FE00
0004FF00
03BFEB00
1EE60000
5F500000
6F600000
1DFC8650
01589950
ENDCHAR
STARTCHAR Idotaccent
ENCODING 304
SWIDTH 167 0
DWIDTH 5 0
BBX 6 24 -1 0
BITMAP
283000
4FA000
1EB000
021000
000000
000000
055000
06E100
04F500
01FA00
00CD00
008F20
004F50
002F80
000EB0
000CE0
000BF1
0009F3
0007F5
0006F7
0004F9
0002FB
0001FC
00008A
ENDCHAR
STARTCHAR dotlessi
ENCODING 305
SWIDTH 174 0
DWIDTH 6 0
BBX 3 15 2 0
BITMAP
1000
E600
F700
F800
FA00
FC00
EE00
DF20
CF50
BF80
9FB0
7FD0
4FE0
1FF0
09B0
ENDCHAR
STARTCHAR Jcircumflex
ENCODING 308
SWIDTH 439 0
DWIDTH 14 0
BBX 15 31 0 0
BITMAP
0000000000510000
0000000003FC0000
0000000008FF9000
000000002FFFF700
00000002DF7DFF40
0000003EF701DFB0
000000AE70002DC0
0000000100000110
0000000000410000
0000000000E70000
0000000000CC0000
0000000000AF1000
00000000008F4000
00000000006F6000
00000000004F9000
00000000002FB000
00000000000EE000
00000000000CF100
00000000000AF200
022000000008F400
2E4000000006F500
4F5000000005F700
1FA000000004F700
08F300000004F700
00CC00000004F700
001DA0000005F600
0003E9000007F400
00004EA10009F200
000004ED500EC000
0000002CFEDF6000
000000017DF80000
ENDCHAR
STARTCHAR jcircumflex
ENCODING 309
SWIDTH 200 0
DWIDTH 6 0
BBX 12 39 -4 -15
BITMAP
000000150000
0000007F8000
000000DFF500
000006FFFE30
00005FE7EFD1
0007FE304FF7
000DD30004F8
000100000011
000000000000
000000000000
000000000000
000000360000
0000006F2000
0000005F7000
0000003FB000
0000001FF100
0000000EF400
0000000BF700
00000008FA00
00000005FD00
00000003FF10
00000000FF30
00000000CF60
000000009F80
000000007FA0
000000005FC0
000000002FD0
330000000FE0
8D1000000DF0
5F7000000BF1
2FE100000AF2
0BF6000009F2
04FE100009F2
00BF900009F1
001DF7000AF0
0002EFB56FD0
00002CFFFF90
0000007EFF30
000000004200
ENDCHAR
STARTCHAR Kcommaaccent
ENCODING 310
SWIDTH 468 0
DWIDTH 15 0
BBX 15 30 0 -11
BITMAP
2700000006900000
6F100001CF700000
5F30001CF9000000
4F5000CFA0000000
2F700AFB00000000
0E806FC100000000
0CA3FD1000000000
0ADDE20000000000
09FF400000000000
07FC000000000000
07FF900000000000
07FFF70000000000
07F6EF9000000000
07F33DFB10000000
07F501AFD4000000
05F70006EF910000
04F900002BFD4000
01FA0000006EFA00
00A800000002BF20
0000000000000000
0000000000000000
0000000000000000
0000005A10000000
000000CF70000000
0000006F90000000
0000003F90000000
0000005F80000000
000000DF40000000
000000DB00000000
0000001000000000
ENDCHAR
STARTCHAR kcommaaccent
ENCODING 311
SWIDTH 403 0
DWIDTH 13 0
BBX 13 31 0 -11
BITMAP
60000000000000
F3000000000000
D8000000000000
BD000000000000
8F100000000000
5F500000151000
3F800003EE2000
0FB0001DE30000
0CE0009E300000
0AF205E3000000
07F77F50000000
06FFF800000000
04FFD000000000
03FF8000000000
02FFA000000000
02FFF700000000
03FFFFB4000000
03FB19FFD96310
05F7003CFFFF90
04E300005ABA30
00000000000000
00000000000000
00000000000000
000006A1000000
00000DF6000000
000007F8000000
000004F8000000
000006F7000000
00000EF3000000
00000DA0000000
00000100000000
ENDCHAR
STARTCHAR Lacute
ENCODING 313
SWIDTH 346 0
DWIDTH 11 0
BBX 11 25 0 -1
BITMAP
000000003300
00000008F600
000001CF9000
00001CF80000
00004F600000
000014000000
001000000000
01E300000000
05F500000000
08F500000000
0BF300000000
0DF100000000
0EE000000000
1FD000000000
2FB000000000
3F9000000000
4F7000000000
5F6000000000
6F6000000000
5F6000000000
3FA000000000
0DF853210000
04EFFFFFED60
0029DEFFFE50
000000010000
ENDCHAR
STARTCHAR lacute
ENCODING 314
SWIDTH 120 0
DWIDTH 4 0
BBX 6 26 -1 -1
BITMAP
000051
001AF3
02DF70
2EF500
7E4000
230000
000000
01E400
02FA00
02FB00
02FC00
02FC00
02FD00
02FD00
02FE00
03FE00
03FF00
02FF00
02FF00
02FF00
02FF00
00FE00
00ED00
00DC00
00B800
001000
ENDCHAR
STARTCHAR Lcommaaccent
ENCODING 315
SWIDTH 346 0
DWIDTH 11 0
BBX 11 29 0 -11
BITMAP
001000000000
01E300000000
05F500000000
08F500000000
0BF300000000
0DF100000000
0EE000000000
1FD000000000
2FB000000000
3F9000000000
4F7000000000
5F6000000000
6F6000000000
5F6000000000
3FA000000000
0DF853210000
04EFFFFFED60
0029DEFFFE50
000000010000
000000000000
000000000000
00005A200000
0000BF800000
00005FA00000
00002FA00000
00004F900000
0000CF500000
0000CC000000
000010000000
ENDCHAR
STARTCHAR lcommaaccent
ENCODING 316
SWIDTH 120 0
DWIDTH 4 0
BBX 4 29 0 -11
BITMAP
1E40
2FA0
2FB0
2FC0
2FC0
2FD0
2FD0
2FE0
3FE0
3FF0
2FF0
2FF0
2FF0
2FF0
0FE0
0ED0
0DC0
0B80
0100
0000
0000
1A60
5FE0
1DF1
0BF1
0DF0
6FB0
5F40
0100
ENDCHAR
STARTCHAR Lcaron
ENCODING 317
SWIDTH 346 0
DWIDTH 11 0
BBX 11 24 0 -1
BITMAP
000001200000
000007B00000
000007F20000
000007F50000
000006F70000
001005F80000
01E302F90000
05F500D90000
08F500230000
0BF300000000
0DF100000000
0EE000000000
1FD000000000
2FB000000000
3F9000000000
4F7000000000
5F6000000000
6F6000000000
5F6000000000
3FA000000000
0DF853210000
04EFFFFFED60
0029DEFFFE50
000000010000
ENDCHAR
STARTCHAR lcaron
ENCODING 318
SWIDTH 222 0
DWIDTH 7 0
BBX 7 25 0 -1
BITMAP
00001100
00008B00
00008F10
00008F40
00007F60
00005F80
1E403F90
2FA00D90
2FB00330
2FC00000
2FC00000
2FD00000
2FD00000
2FE00000
3FE00000
3FF00000
2FF00000
2FF00000
2FF00000
2FF00000
0FE00000
0ED00000
0DC00000
0B800000
01000000
ENDCHAR
STARTCHAR Ldot
ENCODING 319
SWIDTH 346 0
DWIDTH 11 0
BBX 11 19 0 -1
BITMAP
001000000000
01E300000000
05F500000000
08F500000000
0BF300000000
0DF100000000
0EE000000000
1FD000000000
2FB014100000
3F90CFD10000
4F75FFF60000
5F61EFE20000
6F6015100000
5F6000000000
3FA000000000
0DF853210000
04EFFFFFED60
0029DEFFFE50
000000010000
ENDCHAR
STARTCHAR ldot
ENCODING 320
SWIDTH 333 0
DWIDTH 11 0
BBX 10 19 0 -1
BITMAP
1E40000000
2FA0000000
2FB0000000
2FC0000000
2FC0000000
2FD0000000
2FD0000000
2FE0000000
3FE0001300
3FF001DFB0
2FF008FFF4
2FF003FFC1
2FF0002400
2FF0000000
0FE0000000
0ED0000000
0DC0000000
0B80000000
0100000000
ENDCHAR
STARTCHAR Lslash
ENCODING 321
SWIDTH 346 0
DWIDTH 11 0
BBX 12 18 0 0
BITMAP
000220000000
000BA0000000
000FB0000000
003FB0000000
005F90000000
007F80000000
008F60000000
00AF40000000
00BF35000000
00CFEF300000
02EFFB100000
6FFF80000000
6FFC00000000
12ED00000000
00BF40000000
005FEA976431
0007FFFFFFFE
0000279BCBB6
ENDCHAR
STARTCHAR lslash
ENCODING 322
SWIDTH 120 0
DWIDTH 4 0
BBX 9 19 -3 0
BITMAP
0000840000
0000CD0000
0000CF0000
0000CF1000
0000CF1000
0000DF2000
0000DF2500
0000DFCF30
0000EFFE70
0019FF7000
03DFFF4000
2FD3DF4000
0610DF4000
0000CF4000
0000CF4000
0000BF3000
00009F2000
00007E0000
0000350000
ENDCHAR
STARTCHAR Nacute
ENCODING 323
SWIDTH 609 0
DWIDTH 20 0
BBX 19 23 0 0
BITMAP
00000000003300000000
0000000008F600000000
00000001CF9000000000
0000001CF80000000000
0000004F600000000000
00100014000000000000
0AD00000000000000000
0AF20000000002D40000
08F60000000002FE2000
07FA0000000000EF9000
07FE10000000008FF100
08FF50000000001EF700
08FFB00000000007FC00
09FFF30000000000DF10
0BFEF900000000007F50
0CD0BF20000000004F80
0DB03FB0000000003FA0
0EB008F6000000005F90
0FC001DF50000000AF50
1FE0003EF8000004FE10
1FF00004FFE966AFF500
1FF000003CFFFFFE5000
0AA000000059A9610000
ENDCHAR
STARTCHAR nacute
ENCODING 324
SWIDTH 459 0
DWIDTH 15 0
BBX 15 22 0 0
BITMAP
0000000250000000
0000005EA0000000
000009FC10000000
00009FB100000000
0001FA0000000000
0000500000000000
0000000000000000
0000000000000000
000005BEE9100000
0604CFEDFFD10000
1FEFD5001BFB0000
1FFD100001DF4000
1FF60000004FC000
1FF20000000DF200
0FF100000008F700
0DF200000004FB00
0CF400000001FE00
0AF800000000EF10
07FB00000000DF20
02FE00000000DF10
00BF20000000EE00
002C30000000D800
ENDCHAR
STARTCHAR Ncommaaccent
ENCODING 325
SWIDTH 609 0
DWIDTH 20 0
BBX 19 29 0 -11
BITMAP
00100000000000000000
0AD00000000000000000
0AF20000000002D40000
08F60000000002FE2000
07FA0000000000EF9000
07FE10000000008FF100
08FF50000000001EF700
08FFB00000000007FC00
09FFF30000000000DF10
0BFEF900000000007F50
0CD0BF20000000004F80
0DB03FB0000000003FA0
0EB008F6000000005F90
0FC001DF50000000AF50
1FE0003EF8000004FE10
1FF00004FFE966AFF500
1FF000003CFFFFFE5000
0AA000000059A9610000
00000000000000000000
00000000000000000000
00000000000000000000
000000002A4000000000
000000007FB000000000
000000002ED000000000
000000000ED000000000
000000001FC000000000
000000009F9000000000
000000008E2000000000
00000000010000000000
ENDCHAR
STARTCHAR ncommaaccent
ENCODING 326
SWIDTH 459 0
DWIDTH 15 0
BBX 15 25 0 -11
BITMAP
000005BEE9100000
0604CFEDFFD10000
1FEFD5001BFB0000
1FFD100001DF4000
1FF60000004FC000
1FF20000000DF200
0FF100000008F700
0DF200000004FB00
0CF400000001FE00
0AF800000000EF10
07FB00000000DF20
02FE00000000DF10
00BF20000000EE00
002C30000000D800
0000000000000000
0000000000000000
0000000000000000
0000007900000000
000000EF50000000
0000008F70000000
0000005F70000000
0000008F60000000
000000FF20000000
000000E900000000
0000001000000000
ENDCHAR
STARTCHAR Ncaron
ENCODING 327
SWIDTH 609 0
DWIDTH 20 0
BBX 19 25 0 0
BITMAP
00000152000036000000
000003BF9119FD000000
00000004DEEFC2000000
000000002FF700000000
00000000042000000000
00000000000000000000
00000000000000000000
00100000000000000000
0AD00000000000000000
0AF20000000002D40000
08F60000000002FE2000
07FA0000000000EF9000
07FE10000000008FF100
08FF50000000001EF700
08FFB00000000007FC00
09FFF30000000000DF10
0BFEF900000000007F50
0CD0BF20000000004F80
0DB03FB0000000003FA0
0EB008F6000000005F90
0FC001DF50000000AF50
1FE0003EF8000004FE10
1FF00004FFE966AFF500
1FF000003CFFFFFE5000
0AA000000059A9610000
ENDCHAR
STARTCHAR ncaron
ENCODING 328
SWIDTH 459 0
DWIDTH 15 0
BBX 15 20 0 0
BITMAP
0003400000530000
0006DD504CF80000
000018FDFF800000
0000008FD3000000
0000001510000000
0000000000000000
000005BEE9100000
0604CFEDFFD10000
1FEFD5001BFB0000
1FFD100001DF4000
1FF60000004FC000
1FF20000000DF200
0FF100000008F700
0DF200000004FB00
0CF400000001FE00
0AF800000000EF10
07FB00000000DF20
02FE00000000DF10
00BF20000000EE00
002C30000000D800
ENDCHAR
STARTCHAR napostrophe
ENCODING 329
SWIDTH 459 0
DWIDTH 15 0
BBX 15 22 0 0
BITMAP
001A600000000000
004FE10000000000
001CF20000000000
000AF20000000000
000CF10000000000
005FC00000000000
005F400000000000
0001000000000000
000005BEE9100000
0604CFEDFFD10000
1FEFD5001BFB0000
1FFD100001DF4000
1FF60000004FC000
1FF20000000DF200
0FF100000008F700
0DF200000004FB00
0CF400000001FE00
0AF800000000EF10
07FB00000000DF20
02FE00000000DF10
00BF20000000EE00
002C30000000D800
ENDCHAR
STARTCHAR Omacron
ENCODING 332
SWIDTH 609 0
DWIDTH 20 0
BBX 19 23 0 0
BITMAP
00000001234420000000
000000BFFFFFF9000000
000004FFC98ACA000000
00000120000000000000
00000000000000000000
00000000000000000000
00000000000000000000
00001575100000000000
0008FFFFFC7200000000
00AFC668BFFF92000000
07F90000016DFE500000
0EC0000000007EF70000
4F500000000003DF7000
6F2000000000002EF300
6F10000000000005FB00
4F30000000000000CF20
2F800000000000006F60
0DE20000000000004F80
06FC1000000000007F60
00CFC20000000006FE10
002DFF82000026CFE400
0001AFFFCABDFFFA2000
0000038CEFDB95100000
ENDCHAR
STARTCHAR omacron
ENCODING 333
SWIDTH 487 0
DWIDTH 16 0
BBX 15 18 0 0
BITMAP
0000012344200000
0000BFFFFFF90000
0004FFC989BA0000
0001200000000000
0000000000000000
000016ADEEB30000
0006EFFEEFFF5000
009FD61005CFF400
06F900000007FD00
0EB0000000008F40
4F40000000002F80
6F20000000002FA0
5F40000000007F90
2F9000000003EF50
0CF40000003EFD00
03FF810028FFE300
005EFFDDFFFC3000
00018CEFDA500000
ENDCHAR
STARTCHAR Obreve
ENCODING 334
SWIDTH 609 0
DWIDTH 20 0
BBX 19 21 0 0
BITMAP
00000028000990000000
0000000E846E60000000
00000004EFE700000000
00000000010000000000
00000000000000000000
00001575100000000000
0008FFFFFC7200000000
00AFC668BFFF92000000
07F90000016DFE500000
0EC0000000007EF70000
4F500000000003DF7000
6F2000000000002EF300
6F10000000000005FB00
4F30000000000000CF20
2F800000000000006F60
0DE20000000000004F80
06FC1000000000007F60
00CFC20000000006FE10
002DFF82000026CFE400
0001AFFFCABDFFFA2000
0000038CEFDB95100000
ENDCHAR
STARTCHAR obreve
ENCODING 335
SWIDTH 487 0
DWIDTH 16 0
BBX 15 19 0 0
BITMAP
0002800099000000
0000E846E6000000
00004EFE70000000
0000001000000000
0000000000000000
0000000000000000
000016ADEEB30000
0006EFFEEFFF5000
009FD61005CFF400
06F900000007FD00
0EB0000000008F40
4F40000000002F80
6F20000000002FA0
5F40000000007F90
2F9000000003EF50
0CF40000003EFD00
03FF810028FFE300
005EFFDDFFFC3000
00018CEFDA500000
ENDCHAR
STARTCHAR Ohungarumlaut
ENCODING 336
SWIDTH 609 0
DWIDTH 20 0
BBX 19 23 0 0
BITMAP
00000005D30350000000
0000008FD17FC0000000
000004FC17FD20000000
000005C10CC100000000
00000000041000000000
00000000000000000000
00000000000000000000
00001575100000000000
0008FFFFFC7200000000
00AFC668BFFF92000000
07F90000016DFE500000
0EC0000000007EF70000
4F500000000003DF7000
6F2000000000002EF300
6F10000000000005FB00
4F30000000000000CF20
2F800000000000006F60
0DE20000000000004F80
06FC1000000000007F60
00CFC20000000006FE10
002DFF82000026CFE400
0001AFFFCABDFFFA2000
0000038CEFDB95100000
ENDCHAR
STARTCHAR ohungarumlaut
ENCODING 337
SWIDTH 487 0
DWIDTH 16 0
BBX 15 18 0 0
BITMAP
000004D402500000
00008FD16ED00000
0003FD26FD200000
0004C10BD2000000
0000000410000000
000016ADEEB30000
0006EFFEEFFF5000
009FD61005CFF400
06F900000007FD00
0EB0000000008F40
4F40000000002F80
6F20000000002FA0
5F40000000007F90
2F9000000003EF50
0CF40000003EFD00
03FF810028FFE300
005EFFDDFFFC3000
00018CEFDA500000
ENDCHAR
STARTCHAR OE
ENCODING 338
SWIDTH 848 0
DWIDTH 27 0
BBX 27 16 0 0
BITMAP
0000269620000111100000000000
0019FFFFFB309FFFFFFFFEEED700
00BFB557CFF5BF76555444334800
07F7000008FEDF20000000000000
1EB0000000AFFF20000000000000
4F500000001FFF20000000000000
6F200000000AFF200013468AB300
6F2000000005FFDCDEFFFDB83000
4F4000000002FF75432100000000
2F9000000000FB00000000000000
0CF300000002FA00000000000000
05FD10000004F900000000000000
00BFD3000009F900000000000000
001CFF93004FFA00000000001100
00008FFFECFFDFB99ABCDEEFFF70
0000027BDEB606BDEFFEEDCA8400
ENDCHAR
STARTCHAR oe
ENCODING 339
SWIDTH 875 0
DWIDTH 28 0
BBX 28 18 0 -2
BITMAP
0000000000000000015640000000
0000000000000001AFFFFD300000
000000023300002DF9427FE10000
000039EFFFE601DE300007F70000
0019FFDAAFFF87F5000000F90000
00BFA200019FFFC0000000EA0000
08F600000004FF70000007F80000
1E90000000008F600001AFD10000
4F40000000007F96559FFD200000
6F20000000006FADFFFC60000000
5F40000000008F91431000000000
2F9000000003EFB0000000000000
0CF40000004EFFF4000000000000
03FF710028FFE4DE400000000000
005EFFCCFFFC303EFB6200000121
00018CFFEA500002CFFFFDDEFFB1
000000000000000005AEFFFDA400
0000000000000000000012100000
ENDCHAR
STARTCHAR Racute
ENCODING 340
SWIDTH 579 0
DWIDTH 19 0
BBX 19 28 -1 -2
BITMAP
00000000000043000000
000000000008F6000000
0000000001CF90000000
000000001DF700000000
000000005F6000000000
00000000140000000000
0027ACDEEEDA72000000
06FFFEDDDEFFFFB20000
2FD5100000036CFE5000
4F3000000000007FF300
0A00081000000006F900
00001F6000000001FC00
00002F600000002CFA00
00001FA000015AFFE200
00000FE579CFFFF92000
00000DFFFFFEA6100000
00000BFEA63000000000
000009FE200000000000
000006FFD10000000000
000003FAFB0000000000
000000F76FA000000000
000000CA06FB10000000
0000008E005FC2000000
0000004F2004EE400000
0000001E40003DF91000
00000007100001BFE600
0000000000000006EF80
00000000000000001410
ENDCHAR
STARTCHAR racute
ENCODING 341
SWIDTH 346 0
DWIDTH 11 0
BBX 11 21 0 0
BITMAP
000000042000
0000008F5000
00002CF80000
0001DF700000
0005F6000000
000140000000
000004652000
0139EFFFFC20
6FFE867AEFA0
6FE200000230
5FA000000000
4F8000000000
2FA000000000
0EC000000000
0BF100000000
08F600000000
04FB00000000
00EF10000000
00AF50000000
003F70000000
000B40000000
ENDCHAR
STARTCHAR Rcommaaccent
ENCODING 342
SWIDTH 579 0
DWIDTH 19 0
BBX 19 31 -1 -11
BITMAP
0027ACDEEEDA72000000
06FFFEDDDEFFFFB20000
2FD5100000036CFE5000
4F3000000000007FF300
0A00081000000006F900
00001F6000000001FC00
00002F600000002CFA00
00001FA000015AFFE200
00000FE579CFFFF92000
00000DFFFFFEA6100000
00000BFEA63000000000
000009FE200000000000
000006FFD10000000000
000003FAFB0000000000
000000F76FA000000000
000000CA06FB10000000
0000008E005FC2000000
0000004F2004EE400000
0000001E40003DF91000
00000007100001BFE600
0000000000000006EF80
00000000000000001410
00000000000000000000
0000000006A100000000
000000000DF600000000
0000000007F800000000
0000000004F800000000
0000000006F700000000
000000000EF300000000
000000000DA000000000
00000000010000000000
ENDCHAR
STARTCHAR rcommaaccent
ENCODING 343
SWIDTH 346 0
DWIDTH 11 0
BBX 11 26 0 -11
BITMAP
000004652000
0139EFFFFC20
6FFE867AEFA0
6FE200000230
5FA000000000
4F8000000000
2FA000000000
0EC000000000
0BF100000000
08F600000000
04FB00000000
00EF10000000
00AF50000000
003F70000000
000B40000000
000000000000
000000000000
000000000000
00005A200000
0000BF800000
00005FA00000
00002FA00000
00004F900000
0000CF500000
0000CC000000
000010000000
ENDCHAR
STARTCHAR Rcaron
ENCODING 344
SWIDTH 579 0
DWIDTH 19 0
BBX 19 29 -1 -2
BITMAP
00000044000015200000
0000008EC305EF500000
00000001AFDFE6000000
000000000BFB20000000
00000000024000000000
00000000000000000000
00000000000000000000
0027ACDEEEDA72000000
06FFFEDDDEFFFFB20000
2FD5100000036CFE5000
4F3000000000007FF300
0A00081000000006F900
00001F6000000001FC00
00002F600000002CFA00
00001FA000015AFFE200
00000FE579CFFFF92000
00000DFFFFFEA6100000
00000BFEA63000000000
000009FE200000000000
000006FFD10000000000
000003FAFB0000000000
000000F76FA000000000
000000CA06FB10000000
0000008E005FC2000000
0000004F2004EE400000
0000001E40003DF91000
00000007100001BFE600
0000000000000006EF80
00000000000000001410
ENDCHAR
STARTCHAR rcaron
ENCODING 345
SWIDTH 346 0
DWIDTH 11 0
BBX 11 20 0 0
BITMAP
025100003500
03CE802AFC00
0005EDFFB100
00004FE60000
000004200000
000004652000
0139EFFFFC20
6FFE867AEFA0
6FE200000230
5FA000000000
4F8000000000
2FA000000000
0EC000000000
0BF100000000
08F600000000
04FB00000000
00EF10000000
00AF50000000
003F70000000
000B40000000
ENDCHAR
STARTCHAR Sacute
ENCODING 346
SWIDTH 627 0
DWIDTH 20 0
BBX 20 27 0 -1
BITMAP
00000000000510000000
0000000001AF30000000
000000002DF700000000
00000002EF5000000000
00000007E40000000000
00000002300000000000
00000000023200000000
0000006CFFFFFC820000
00001CFC85446DFF6000
00008F400000006EF300
0000CB00000000015200
0000AD00000000000000
00005F80000000000000
00000AFB200000000000
0000008FF81000000000
00000002AFE920000000
0000000003BFFA200000
000000000004CFF91000
05300000000006DFE400
2F60000000000007EF40
4F900000000000003FD0
0EE10000000000000DF3
04FC1000000000000DF2
004EE720000000007FC0
00019EFECA9889BEFD20
0000016ADFFFFFFC6100
00000000012332000000
ENDCHAR
STARTCHAR sacute
ENCODING 347
SWIDTH 514 0
DWIDTH 16 0
BBX 16 23 0 0
BITMAP
0000000000510000
000000001AF30000
00000003EF600000
0000003EE5000000
0000008E40000000
0000002200000000
0000000000000000
0000000000000000
0001588740000000
007EFFFFFD300000
06FD74236DD00000
0CF1000004F20000
0BF0000006F10000
06F8000001300000
00AFD86421000000
0005AEFFFFEB8200
0000001357ADFF60
0000000000005FF3
0000000000000AF7
4F90000000000AF8
0AFD710000005FF4
008FFFDCCCDEFF80
00027ACEFFFD9300
ENDCHAR
STARTCHAR Scircumflex
ENCODING 348
SWIDTH 627 0
DWIDTH 20 0
BBX 20 30 0 -1
BITMAP
00000000024000000000
000000000AF600000000
000000001EFE30000000
000000008FFFE2000000
00000007FC7FFC000000
0000009FE205FF400000
000002EC20006F500000
00000010000002000000
00000000000000000000
00000000023200000000
0000006CFFFFFC820000
00001CFC85446DFF6000
00008F400000006EF300
0000CB00000000015200
0000AD00000000000000
00005F80000000000000
00000AFB200000000000
0000008FF81000000000
00000002AFE920000000
0000000003BFFA200000
000000000004CFF91000
05300000000006DFE400
2F60000000000007EF40
4F900000000000003FD0
0EE10000000000000DF3
04FC1000000000000DF2
004EE720000000007FC0
00019EFECA9889BEFD20
0000016ADFFFFFFC6100
00000000012332000000
ENDCHAR
STARTCHAR scircumflex
ENCODING 349
SWIDTH 514 0
DWIDTH 16 0
BBX 16 24 0 0
BITMAP
0000000150000000
00000007F8000000
0000000CFF500000
0000006FFFE30000
000005FE7EFD1000
00007FE304FF7000
0000DD40004F8000
0000100000011000
0000000000000000
0001588740000000
007EFFFFFD300000
06FD74236DD00000
0CF1000004F20000
0BF0000006F10000
06F8000001300000
00AFD86421000000
0005AEFFFFEB8200
0000001357ADFF60
0000000000005FF3
0000000000000AF7
4F90000000000AF8
0AFD710000005FF4
008FFFDCCCDEFF80
00027ACEFFFD9300
ENDCHAR
STARTCHAR Scedilla
ENCODING 350
SWIDTH 627 0
DWIDTH 20 0
BBX 20 30 0 -10
BITMAP
00000000023200000000
0000006CFFFFFC820000
00001CFC85446DFF6000
00008F400000006EF300
0000CB00000000015200
0000AD00000000000000
00005F80000000000000
00000AFB200000000000
0000008FF81000000000
00000002AFE920000000
0000000003BFFA200000
000000000004CFF91000
05300000000006DFE400
2F60000000000007EF40
4F900000000000003FD0
0EE10000000000000DF3
04FC1000000000000DF2
004EE720000000007FC0
00018EFECA9889BEFD20
000000ADDFFFFFFC6100
000000AC002332000000
0000009C000000000000
0000005F600000000000
00000008FEB730000000
00000000269DF7000000
000000000001CE100000
0000007300007F300000
0000008F80009F200000
0000000AFD9AF7000000
000000006BB930000000
ENDCHAR
STARTCHAR scedilla
ENCODING 351
SWIDTH 514 0
DWIDTH 16 0
BBX 16 25 0 -10
BITMAP
0001588740000000
007EFFFFFD300000
06FD74236DD00000
0CF1000004F20000
0BF0000006F10000
06F8000001300000
00AFD86421000000
0005AEFFFFEB8200
0000001357ADFF60
0000000000005FF3
0000000000000AF7
4F80000000000AF8
0AFD710000005FF4
008FFFDCCCDEFF80
00029EDEFFFD9300
00006F0000000000
00005F1000000000
00002F9100000000
000006EEB8400000
000000158DFA0000
00000000009F3000
00006500004F6000
00005FB1005F5000
000007FEAAEA0000
0000005BCA500000
ENDCHAR
STARTCHAR Scaron
ENCODING 352
SWIDTH 627 0
DWIDTH 20 0
BBX 20 26 0 -1
BITMAP
00000053000016100000
0000019FB306EF300000
00000002BFDFE4000000
000000000CFA10000000
00000000024000000000
00000000023200000000
0000006CFFFFFC820000
00001CFC85446DFF6000
00008F400000006EF300
0000CB00000000015200
0000AD00000000000000
00005F80000000000000
00000AFB200000000000
0000008FF81000000000
00000002AFE920000000
0000000003BFFA200000
000000000004CFF91000
05300000000006DFE400
2F60000000000007EF40
4F900000000000003FD0
0EE10000000000000DF3
04FC1000000000000DF2
004EE720000000007FC0
00019EFECA9889BEFD20
0000016ADFFFFFFC6100
00000000012332000000
ENDCHAR
STARTCHAR scaron
ENCODING 353
SWIDTH 514 0
DWIDTH 16 0
BBX 16 20 0 0
BITMAP
0000440000053000
00007ED404DF6000
0000019FDFF70000
00000009FC300000
0000000140000000
0001588740000000
007EFFFFFD300000
06FD74236DD00000
0CF1000004F20000
0BF0000006F10000
06F8000001300000
00AFD86421000000
0005AEFFFFEB8200
0000001357ADFF60
0000000000005FF3
0000000000000AF7
4F90000000000AF8
0AFD710000005FF4
008FFFDCCCDEFF80
00027ACEFFFD9300
ENDCHAR
STARTCHAR Tcommaaccent
ENCODING 354
SWIDTH 581 0
DWIDTH 19 0
BBX 22 30 0 -10
BITMAP
6766665543321000000000
9EFFFFFFFFFFFFDCA85200
0013578ABCFEBACEFFFFB1
0000000001F80000259BD3
0000000000F90000000000
0000000000EA0000000000
0000000000DB0000000000
0000000000CD0000000000
0000000000BF0000000000
00000000009F2000000000
00000000008F4000000000
00000000006F6000000000
00000000005F8000000000
00000000003FB000000000
00000000001FD000000000
00000000000EF100000000
00000000000CF400000000
00000000000AFA00000000
000000000006FF30000000
000000000001CF50000000
0000000000000000000000
0000000000000000000000
000000000004A300000000
000000000009F900000000
000000000004FB00000000
000000000001FB00000000
000000000003FA00000000
00000000000BF700000000
00000000000AD100000000
0000000000011000000000
ENDCHAR
STARTCHAR tcommaaccent
ENCODING 355
SWIDTH 328 0
DWIDTH 11 0
BBX 11 31 0 -11
BITMAP
0000E9000000
0000FE000000
0000FF000000
0000EF100000
0000EF100000
0000FF200000
0001FF300000
7CDFFFFFEC20
4CFFFFECCB20
0001CF300000
0000DF300000
0000DF400000
0000DF400000
0000DF500000
0000CF500000
0000BF600000
0000AF600000
00007F700000
00003F700000
000008500000
000000000000
000000000000
000000000000
000089000000
0001FF300000
0000AF500000
00007F500000
00009F400000
0002FF100000
0001F7000000
000010000000
ENDCHAR
STARTCHAR Tcaron
ENCODING 356
SWIDTH 581 0
DWIDTH 19 0
BBX 22 25 0 0
BITMAP
0000044000005300000000
000007ED504DF700000000
00000018FDFF7000000000
000000009FC30000000000
0000000015100000000000
6766665543321000000000
9EFFFFFFFFFFFFDCA85200
0013578ABCFEBACEFFFFB1
0000000001F80000259BD3
0000000000F90000000000
0000000000EA0000000000
0000000000DB0000000000
0000000000CD0000000000
0000000000BF0000000000
00000000009F2000000000
00000000008F4000000000
00000000006F6000000000
00000000005F8000000000
00000000003FB000000000
00000000001FD000000000
00000000000EF100000000
00000000000CF400000000
00000000000AFA00000000
000000000006FF30000000
000000000001CF50000000
ENDCHAR
STARTCHAR tcaron
ENCODING 357
SWIDTH 431 0
DWIDTH 14 0
BBX 14 24 0 0
BITMAP
00000000000200
00000000000C60
00000000000DC0
00000000000CF0
0000E900000BF2
0000FE00000AF3
0000FF000007F4
0000EF100003F4
0000EF10000041
0000FF20000000
0001FF30000000
7CDFFFFFEC2000
4CFFFFECCB2000
0001CF30000000
0000DF30000000
0000DF40000000
0000DF40000000
0000DF50000000
0000CF50000000
0000BF60000000
0000AF60000000
00007F70000000
00003F70000000
00000850000000
ENDCHAR
STARTCHAR Utilde
ENCODING 360
SWIDTH 571 0
DWIDTH 18 0
BBX 18 23 0 0
BITMAP
000001410000013000
00005FFF91003DC000
0001FA14DE99EB1000
0003F30019EFB10000
0001D1000012000000
004310000000000000
05FA000000000B5000
0CC1000000000EA000
0F70000000001FE000
1F60000000001FF000
2F60000000000FF100
2F60000000000DF100
1F700000000009F200
0E900000000005F500
0CB00000000002F900
09E00000000000EE00
05F30000000000EF40
01FA0000000006FFA0
00BF200000003EFFF1
005FC1000006EFCFF6
000BFD5237CFB208FA
0001DFFFFFE60001DB
000019EFD810000000
ENDCHAR
STARTCHAR utilde
ENCODING 361
SWIDTH 501 0
DWIDTH 16 0
BBX 16 22 0 0
BITMAP
0000142000000400
0003DFFB3001BE10
000CD22BFA8DE300
000E70006EFD2000
000A500000200000
0000100000000000
0000000000000000
1B50000000000000
6F60000000013000
8F3000000009F100
8F2000000009F500
6F3000000009F700
5F5000000009F900
3F8000000009FA00
0ED00000000AFA00
0AF30000001EFB00
04FB0000009FFE00
00CF500006FEEF40
003FE6006FC23F90
0006FFEDFD100CE1
00004BEE910009F5
00000000000004F7
ENDCHAR
STARTCHAR Umacron
ENCODING 362
SWIDTH 571 0
DWIDTH 18 0
BBX 18 23 0 0
BITMAP
000000023443100000
000006EFFFFFD20000
00000DFDA89BC20000
000002100000000000
000000000000000000
004300000000000000
05FA000000000B5000
0CC1000000000EA000
0F70000000001FE000
1F60000000001FF000
2F60000000000FF100
2F60000000000DF100
1F700000000009F200
0E900000000005F500
0CB00000000002F900
09E00000000000EE00
05F30000000000EF40
01FA0000000006FFA0
00BF200000003EFFF1
005FC1000006EFCFF6
000BFD5237CFB208FA
0001DFFFFFE60001DB
000019EFD810000000
ENDCHAR
STARTCHAR umacron
ENCODING 363
SWIDTH 501 0
DWIDTH 16 0
BBX 16 20 0 0
BITMAP
0000023343100000
0005EFFFFFE20000
000CFDA89BC40000
0002100000000000
0000000000000000
1B50000000000000
6F60000000013000
8F3000000009F100
8F2000000009F500
6F3000000009F700
5F5000000009F900
3F8000000009FA00
0ED00000000AFA00
0AF30000001EFB00
04FB0000009FFE00
00CF500006FEEF40
003FE6006FC23F90
0006FFEDFD100CE1
00004BEE910009F5
00000000000004F7
ENDCHAR
STARTCHAR Ubreve
ENCODING 364
SWIDTH 571 0
DWIDTH 18 0
BBX 18 21 0 0
BITMAP
00000072003F100000
0000008B55BC000000
0000001BFFB2000000
004300001100000000
05FA000000000B5000
0CC1000000000EA000
0F70000000001FE000
1F60000000001FF000
2F60000000000FF100
2F60000000000DF100
1F700000000009F200
0E900000000005F500
0CB00000000002F900
09E00000000000EE00
05F30000000000EF40
01FA0000000006FFA0
00BF200000003EFFF1
005FC1000006EFCFF6
000BFD5237CFB208FA
0001DFFFFFE60001DB
000019EFD810000000
ENDCHAR
STARTCHAR ubreve
ENCODING 365
SWIDTH 501 0
DWIDTH 16 0
BBX 16 19 0 0
BITMAP
000081004E000000
00009B45CB000000
00001BFFB1000000
0000001100000000
1B50000000000000
6F60000000013000
8F3000000009F100
8F2000000009F500
6F3000000009F700
5F5000000009F900
3F8000000009FA00
0ED00000000AFA00
0AF30000001EFB00
04FB0000009FFE00
00CF500006FEEF40
003FE6006FC23F90
0006FFEDFD100CE1
00004BEE910009F5
00000000000004F7
ENDCHAR
STARTCHAR Uring
ENCODING 366
SWIDTH 571 0
DWIDTH 18 0
BBX 18 24 0 0
BITMAP
000000002300000000
0000002CEFB1000000
000000D502C7000000
000001E0007A000000
000000D303D6000000
0000004DEE80000000
004300001000000000
05FA000000000B5000
0CC1000000000EA000
0F70000000001FE000
1F60000000001FF000
2F60000000000FF100
2F60000000000DF100
1F700000000009F200
0E900000000005F500
0CB00000000002F900
09E00000000000EE00
05F30000000000EF40
01FA0000000006FFA0
00BF200000003EFFF1
005FC1000006EFCFF6
000BFD5237CFB208FA
0001DFFFFFE60001DB
000019EFD810000000
ENDCHAR
STARTCHAR uring
ENCODING 367
SWIDTH 501 0
DWIDTH 16 0
BBX 16 19 0 0
BITMAP
0000000230000000
000003CEFA000000
00001D402D500000
00003C0008800000
1B501D204E400000
6F6005EEE6013000
8F3000010009F100
8F2000000009F500
6F3000000009F700
5F5000000009F900
3F8000000009FA00
0ED00000000AFA00
0AF30000001EFB00
04FB0000009FFE00
00CF500006FEEF40
003FE6006FC23F90
0006FFEDFD100CE1
00004BEE910009F5
00000000000004F7
ENDCHAR
STARTCHAR Uhungarumlaut
ENCODING 368
SWIDTH 571 0
DWIDTH 18 0
BBX 18 23 0 0
BITMAP
0000002B9006100000
000003EF53CF300000
00000DF52EF6000000
00000D506F50000000
000000002400000000
004300000000000000
05FA000000000B5000
0CC1000000000EA000
0F70000000001FE000
1F60000000001FF000
2F60000000000FF100
2F60000000000DF100
1F700000000009F200
0E900000000005F500
0CB00000000002F900
09E00000000000EE00
05F30000000000EF40
01FA0000000006FFA0
00BF200000003EFFF1
005FC1000006EFCFF6
000BFD5237CFB208FA
0001DFFFFFE60001DB
000019EFD810000000
ENDCHAR
STARTCHAR uhungarumlaut
ENCODING 369
SWIDTH 501 0
DWIDTH 16 0
BBX 16 22 0 0
BITMAP
0000002B90061000
000003EF52CF4000
00000CF51EF70000
00000D506F600000
0000000014000000
0000000000000000
0000000000000000
1B50000000000000
6F60000000013000
8F3000000009F100
8F2000000009F500
6F3000000009F700
5F5000000009F900
3F8000000009FA00
0ED00000000AFA00
0AF30000001EFB00
04FB0000009FFE00
00CF500006FEEF40
003FE6006FC23F90
0006FFEDFD100CE1
00004BEE910009F5
00000000000004F7
ENDCHAR
STARTCHAR Uogonek
ENCODING 370
SWIDTH 571 0
DWIDTH 18 0
BBX 19 22 1 -6
BITMAP
09E10000000026000000
4FA0000000008E000000
8E0000000000AF300000
AC0000000000BF500000
BB0000000000AF600000
BC00000000008F700000
BC00000000005F700000
9E00000000001F900000
7F10000000000DD00000
5F40000000000AF30000
2F700000000008F80000
0CD0000000000CFD0000
08F4000000006FFF4000
02FD10000007FFFF9000
009FC20004BFB37FE000
001DFFCBEFE6018FF200
0001BFFFFA204EF97000
000003651000CE300000
000000000001F8000000
000000000000EE610000
0000000000003BFFED10
00000000000000022200
ENDCHAR
STARTCHAR uogonek
ENCODING 371
SWIDTH 501 0
DWIDTH 16 0
BBX 17 21 0 -5
BITMAP
010000000000000000
1E6000000000000000
6F5000000002600000
8F3000000009F20000
7F2000000009F60000
6F3000000009F80000
5F6000000009F90000
2F9000000009FA0000
0EE00000000AFA0000
09F40000002FFB0000
03FC000000BFFE0000
00BF700008FCDF5000
002EF8219FB12FA000
0004EFFFFA000BF100
000028CB60006DF600
00000000001CFBC600
00000000006F700000
0000000000AE000000
00000000008FA30000
000000000018DFFE60
000000000000012200
ENDCHAR
STARTCHAR Wcircumflex
ENCODING 372
SWIDTH 703 0
DWIDTH 23 0
BBX 22 29 0 0
BITMAP
0000000000150000000000
00000000007F8000000000
0000000000CFF500000000
0000000005FFFF30000000
000000004FE6EFE1000000
00000006FF403EF7000000
0000000DD40004E8000000
0000000100000011000000
0000000000000000000000
0000000000000000000000
0000000000000000000000
0000000000000000000000
0000000000000000000000
2B00000000000000005000
8F0000000000000004F800
AF1000000000000003FF10
AF2000000000000000EF70
AF30000000000000009FC0
9F50000000000000003FF2
8F6000000C400000000CF5
6F8000000EA000000007F9
4F9000000EE000000002FC
1FC000000FF300000000ED
0DE000003FFA00000000ED
09F40000CFFF30000003FA
04FB000AFD8FD200001DF4
00BFA6CFC205FE6226DF90
002DFFFB10004EFFFFF900
00018B60000002AEEA4000
ENDCHAR
STARTCHAR wcircumflex
ENCODING 373
SWIDTH 656 0
DWIDTH 21 0
BBX 21 24 0 0
BITMAP
0000000000510000000000
0000000003FC0000000000
0000000008FF9000000000
000000002FFFF700000000
00000002DF7DFF40000000
0000003EF701DFB0000000
000000AE70002DC0000000
0000000100000110000000
0000000000000000000000
0000000000000000000000
0140000000000000000000
09B0000000000000000000
2FA0000000000000240000
6F700000001000004F5000
9F30000001F600000BE100
AF10000002F9000005F700
9F20000003FB000000FB00
7F40000004FD000000DF00
4F80000005FF100000BF20
0DD000000AFF500000EF10
06F700008FFFC10006FE00
00CF614CFF6AFC76AFF800
002DFFFFF700AFFFFFC100
00018DEA30000477750000
ENDCHAR
STARTCHAR Ycircumflex
ENCODING 374
SWIDTH 403 0
DWIDTH 13 0
BBX 13 30 0 -1
BITMAP
00000051000000
000003FC000000
000009FF900000
00002FFFF60000
0002DF7DFF3000
004EF701DFA000
00AE60002DC000
00010000011000
36000000000000
6E100000000610
4F800000004F40
1EF30000006F30
07FD100000BF10
00CFB10002FD00
001CFB2009F800
0001AFE85FF300
000006EFFFD000
00000018FF7000
00000000EF1000
00000003FA0000
00000008F50000
0000000CE00000
0000001F900000
0000005F600000
0000007F300000
0000009F100000
000000AF000000
000000AF000000
000000AF100000
00000026000000
ENDCHAR
STARTCHAR ycircumflex
ENCODING 375
SWIDTH 487 0
DWIDTH 16 0
BBX 16 40 0 -16
BITMAP
0000000430000000
0000000DE2000000
0000003FFD100000
000000CFFFB00000
00000AFAAFF80000
0001BFB009FF1000
0005FA1000AF2000
0000100000020000
0000000000000000
0000000000001000
2800000000008400
6D00000000009900
7F0000000000AC00
6F20000000009F00
4F50000000009F30
2F90000000008F50
0DD0000000007F70
09F3000000006F90
03F9000000008FB0
00AF30000005FFC0
002ED200007FFFD0
0004EE968DFC7DE0
00003CFFFD5007E0
00000035500006F0
00000000000005F0
00000000000006F1
00000000000007F1
00000000000008F0
0000000000000AF0
0000000000000CD0
0000000000000DC0
0000000000001FA0
0210000000003F70
08C1000000006F50
06FB10000000AF10
01DFC1000002FB00
002EFE40000BF400
0001BFFB77CFB000
000005DFFFFD1000
0000000379610000
ENDCHAR
STARTCHAR Ydieresis
ENCODING 376
SWIDTH 403 0
DWIDTH 13 0
BBX 13 26 0 -1
BITMAP
0009A2008A1000
005FF905FF9000
003FF603FF6000
00022000220000
36000000000000
6E100000000610
4F800000004F40
1EF30000006F30
07FD100000BF10
00CFB10002FD00
001CFB2009F800
0001AFE85FF300
000006EFFFD000
00000018FF7000
00000000EF1000
00000003FA0000
00000008F50000
0000000CE00000
0000001F900000
0000005F600000
0000007F300000
0000009F100000
000000AF000000
000000AF000000
000000AF100000
00000026000000
ENDCHAR
STARTCHAR Zacute
ENCODING 377
SWIDTH 571 0
DWIDTH 18 0
BBX 18 28 0 0
BITMAP
000000000024000000
0000000006E9000000
00000000AFB1000000
0000000AFA00000000
0000002F9000000000
000000050000000000
000000000000000000
000000000000000000
017BCCA96200000000
3EFFDBCEFF91000000
5C7200003AFB000000
00000000008F500000
00000000000DA00000
00000000000AC00000
00000000000CC00000
00000000001F800000
00000000008F500000
000000247CFFEBA720
0002AEFFFFFFFFFD40
0007DBA9EFF9313000
00000000AF60000000
00000001E900000000
0000000BE100000000
0000008F6000000000
000004FC0000000242
000009F700147BEFFB
000007FECEFFFFFEA3
000001CFFFEDA73000
ENDCHAR
STARTCHAR zacute
ENCODING 378
SWIDTH 459 0
DWIDTH 15 0
BBX 14 23 0 0
BITMAP
00000000510000
0000002BF20000
000004EF500000
00003EE4000000
00009E30000000
00003200000000
00035787300000
07EFFFFFF90000
5FF74444AF6000
2B5000001FB000
000000000FC000
000000002F9000
000000008F5000
00000002FF1000
0468ABDFFFEF30
0CFFFFFFB87500
01223BFB000000
00007FC1000000
0004FE20000000
000DF800000054
004FFC31359EFB
002FFFFFFFFFB3
00029DFECA7200
ENDCHAR
STARTCHAR Zdotaccent
ENCODING 379
SWIDTH 571 0
DWIDTH 18 0
BBX 18 25 0 0
BITMAP
000000471000000000
0000008F6000000000
0000004F7000000000
000000030000000000
000000000000000000
017BCCA96200000000
3EFFDBCEFF91000000
5C7200003AFB000000
00000000008F500000
00000000000DA00000
00000000000AC00000
00000000000CC00000
00000000001F800000
00000000008F500000
000000247CFFEBA720
0002AEFFFFFFFFFD40
0007DBA9EFF9313000
00000000AF60000000
00000001E900000000
0000000BE100000000
0000008F6000000000
000004FC0000000242
000009F700147BEFFB
000007FECEFFFFFEA3
000001CFFFEDA73000
ENDCHAR
STARTCHAR zdotaccent
ENCODING 380
SWIDTH 459 0
DWIDTH 15 0
BBX 14 22 0 0
BITMAP
00000038200000
0000007F800000
0000003F800000
00000003100000
00000000000000
00035787300000
07EFFFFFF90000
5FF74444AF6000
2B5000001FB000
000000000FC000
000000002F9000
000000008F5000
00000002FF1000
0468ABDFFFEF30
0CFFFFFFB87500
01223BFB000000
00007FC1000000
0004FE20000000
000DF800000054
004FFC31359EFB
002FFFFFFFFFB3
00029DFECA7200
ENDCHAR
STARTCHAR Zcaron
ENCODING 381
SWIDTH 571 0
DWIDTH 18 0
BBX 18 26 0 0
BITMAP
000052000026100000
00019FA207EF200000
000002CEEFD4000000
0000001DF910000000
000000033000000000
000000000000000000
017BCCA96200000000
3EFFDBCEFF91000000
5C7200003AFB000000
00000000008F500000
00000000000DA00000
00000000000AC00000
00000000000CC00000
00000000001F800000
00000000008F500000
000000247CFFEBA720
0002AEFFFFFFFFFD40
0007DBA9EFF9313000
00000000AF60000000
00000001E900000000
0000000BE100000000
0000008F6000000000
000004FC0000000242
000009F700147BEFFB
000007FECEFFFFFEA3
000001CFFFEDA73000
ENDCHAR
STARTCHAR zcaron
ENCODING 382
SWIDTH 459 0
DWIDTH 15 0
BBX 14 22 0 0
BITMAP
00530000161000
019FB306EF3000
0002BFDFE40000
00000CFA100000
00000240000000
00035787300000
07EFFFFFF90000
5FF74444AF6000
2B5000001FB000
000000000FC000
000000002F9000
000000008F5000
00000002FF1000
0468ABDFFFEF30
0CFFFFFFB87500
01223BFB000000
00007FC1000000
0004FE20000000
000DF800000054
004FFC31359EFB
002FFFFFFFFFB3
00029DFECA7200
ENDCHAR
STARTCHAR florin
ENCODING 402
SWIDTH 376 0
DWIDTH 12 0
BBX 18 32 -3 -9
BITMAP
000000000057730000
000000003DFFFFB200
00000002EFB55AFE30
0000000BF800008FD1
0000002FC0000008F6
0000007F6000000032
000000AF2000000000
000000CF0000000000
000000EF0000000000
000000FF1000000000
000000FF1000000000
000000FF1000000000
000002FF7431000000
001BFFFFFFFFFE1000
003DA79FA689970000
0000004F8000000000
0000004F8000000000
0000004F8000000000
0000005F8000000000
0000005F7000000000
0000006F7000000000
0000007F6000000000
0000008F5000000000
0000008F5000000000
0000009F4000000000
640000AF3000000000
CE2000BF2000000000
4FD200BF1000000000
05FD30DF0000000000
004DFDFF0000000000
00019FFD0000000000
000001420000000000
ENDCHAR
STARTCHAR AEacute
ENCODING 508
SWIDTH 960 0
DWIDTH 31 0
BBX 30 28 0 0
BITMAP
000000000000000000510000000000
00000000000000001AF30000000000
0000000000000003EF600000000000
000000034300003EE5000000000000
000018EFFFD5008E40000000000000
0001CE8447EF802200000000000000
0009E300001CF50000000000000000
001F70000001EE1000000000000000
006E100000005F71CDDCCBBAAAAA50
00AA000000000CD3FFFFFFFEEEDDF5
00D70000000006F6F9211000000023
01F40000000001FBF9000000000000
02F20000000000CFF9000000000000
04F100000000009FF9000000000000
05F000000000006FF9000000000000
06E000000000004FF900000258AB90
07E000000000004FFD99BDFFFFEA20
1AFCBA987765439FFFECBA97530000
4FFFCBAABCEFFFFFF7000000000000
08F500000001332FF3000000000000
03F400000000000DF2000000000000
04F500000000000BF2000000000000
04F700000000000BF2000000000000
03FA00000000000BF2000000000000
01FC00000000000DF2000000000000
00DF00000000001FF832334679ABC9
00AF20000000004FFFFFFFFFFFFFFA
003E20000000004F67CDEEEDCB9620
ENDCHAR
STARTCHAR aeacute
ENCODING 509
SWIDTH 881 0
DWIDTH 28 0
BBX 28 24 0 -1
BITMAP
0000000000000000510000000000
000000000000001AF30000000000
00000000000002DF700000000000
0000000000002EF5000000000000
0000000000007E40000000000000
0000000000002300000000000000
0000000000000000000000000000
000008DD92000000059BB6000000
00005FEEFF700003CFEBDFB10000
000036005EF9003EE50009F80000
0000000001CF70CE200000DD0000
00000000001EF7F60000009F0000
000000000008FFE0000000AF0000
00028BDCB845FFB0000008FA0000
007FFFECCFFEFFA00005CFD20000
07FE8300017EFFB9CAEFFA200000
1FD100000003EFE5CDB820000000
5F40000000003FF1000000000000
5F300000000008F4000000000000
1EC20000000001EC100000000000
07FE95323468ABEFD50000000000
006EFFFFFFFFFE87FFD965456785
00016ACDFEB830003BFFFFFFFE80
000000000000000000379AA85100
ENDCHAR
STARTCHAR Oslashacute
ENCODING 510
SWIDTH 609 0
DWIDTH 20 0
BBX 19 26 0 -3
BITMAP
00000000001100000000
0000000005E700000000
000000009FB100000000
0000000AFA1000000000
0000004F900000000000
00000027000000000000
00000000000071000000
000015751003F2000000
0008FFFFFC79E0000000
00AFC668BFFFD1000000
07F90000017FFE500000
0EC00000006F8FF70000
4F50000000CC03DF7000
6F20000003F7002EF300
6F10000009F20005FB00
4F3000000EB00000CF20
2F8000005F6000006F60
0DE20000BE1000004F80
06FC1002F90000007F60
00CFC208F3000006FE10
001DFF8EC00026CFE400
0001AFFFDABDFFFA2000
000003FFEFDB95100000
000006F8000000000000
00000BE1000000000000
00000860000000000000
ENDCHAR
STARTCHAR oslashacute
ENCODING 511
SWIDTH 487 0
DWIDTH 16 0
BBX 15 20 0 0
BITMAP
0000000001100000
000000004E600000
00000009FB000000
000000BFA1000000
000005F900000000
0000037000000000
0000000233003300
000039EFFFE8FA00
0019FFDAAFFFF400
00BFA20001BFF500
08F6000001DEFE00
1E9000000BF77F50
4F4000007FB02F90
6F200004FE202FA0
5F40001DF6007F80
2F9000BF9003FF40
0CF407FC104EFC00
03FFAFE228FFE300
005EFFDCFFFC3000
0009DCFFEA500000
ENDCHAR
STARTCHAR Scommaaccent
ENCODING 536
SWIDTH 627 0
DWIDTH 20 0
BBX 20 31 0 -11
BITMAP
00000000023200000000
0000006CFFFFFC820000
00001CFC85446DFF6000
00008F400000006EF300
0000CB00000000015200
0000AD00000000000000
00005F80000000000000
00000AFB200000000000
0000008FF81000000000
00000002AFE920000000
0000000003BFFA200000
000000000004CFF91000
05300000000006DFE400
2F60000000000007EF40
4F900000000000003FD0
0EE10000000000000DF3
04FC1000000000000DF2
004EE720000000007FC0
00019EFECA9889BEFD20
0000016ADFFFFFFC6100
00000000012332000000
00000000000000000000
00000000000000000000
000000006A1000000000
00000000DF6000000000
000000007F8000000000
000000004F8000000000
000000006F7000000000
00000000EF3000000000
00000000DA0000000000
00000000100000000000
ENDCHAR
STARTCHAR scommaaccent
ENCODING 537
SWIDTH 514 0
DWIDTH 16 0
BBX 16 26 0 -11
BITMAP
0001588740000000
007EFFFFFD300000
06FD74236DD00000
0CF1000004F20000
0BF0000006F10000
06F8000001300000
00AFD86421000000
0005AEFFFFEB8200
0000001357ADFF60
0000000000005FF3
0000000000000AF7
4F90000000000AF8
0AFD710000005FF4
008FFFDCCCDEFF80
00027ACEFFFD9300
0000000000000000
0000000000000000
0000000000000000
0000000890000000
0000001FF3000000
0000000AF5000000
00000007F5000000
00000009F4000000
0000002FF1000000
0000001F70000000
0000000100000000
ENDCHAR
STARTCHAR circumflex
ENCODING 710
SWIDTH 375 0
DWIDTH 12 0
BBX 10 8 1 16
BITMAP
0000330000
0000CF3000
0002FFD200
000BFFFC10
009FB9FFA0
1BFC108FF2
4FB10008F3
0100000020
ENDCHAR
STARTCHAR caron
ENCODING 711
SWIDTH 375 0
DWIDTH 12 0
BBX 10 5 1 15
BITMAP
0520000261
19FA207EF2
002CEEFD40
0001DF9100
0000330000
ENDCHAR
STARTCHAR breve
ENCODING 728
SWIDTH 224 0
DWIDTH 7 0
BBX 7 4 0 12
BITMAP
37000B80
1E747F40
05EFE600
00010000
ENDCHAR
STARTCHAR dotaccent
ENCODING 729
SWIDTH 152 0
DWIDTH 5 0
BBX 3 4 1 14
BITMAP
3820
7F80
3F80
0310
ENDCHAR
STARTCHAR ring
ENCODING 730
SWIDTH 333 0
DWIDTH 11 0
BBX 6 7 3 12
BITMAP
002300
2BEEC1
C601C8
E0006B
D402D7
3DEE80
001000
ENDCHAR
STARTCHAR ogonek
ENCODING 731
SWIDTH 254 0
DWIDTH 8 0
BBX 8 7 0 -5
BITMAP
00014000
007EF300
08FA2000
0EB00000
1FB00000
0AFC8551
0058ABA0
ENDCHAR
STARTCHAR tilde
ENCODING 732
SWIDTH 402 0
DWIDTH 13 0
BBX 12 6 0 12
BITMAP
002410000012
06FFF91003DB
2F914DE89FB1
4F20019FFB00
1E0000012000
010000000000
ENDCHAR
STARTCHAR hungarumlaut
ENCODING 733
SWIDTH 264 0
DWIDTH 8 0
BBX 9 5 0 13
BITMAP
003C701600
05FE34EF10
1EE33FE400
1E308E4000
0000330000
ENDCHAR
STARTCHAR Wgrave
ENCODING 7808
SWIDTH 703 0
DWIDTH 23 0
BBX 22 23 0 0
BITMAP
0000000005930000000000
0000000001EF5000000000
00000000003EF600000000
000000000002CB00000000
0000000000000000000000
0000000000000000000000
0000000000000000000000
2B00000000000000005000
8F0000000000000004F800
AF1000000000000003FF10
AF2000000000000000EF70
AF30000000000000009FC0
9F50000000000000003FF2
8F6000000C400000000CF5
6F8000000EA000000007F9
4F9000000EE000000002FC
1FC000000FF300000000ED
0DE000003FFA00000000ED
09F40000CFFF30000003FA
04FB000AFD8FD200001DF4
00BFA6CFC205FE6226DF90
002DFFFB10004EFFFFF900
00018B60000002AEEA4000
ENDCHAR
STARTCHAR wgrave
ENCODING 7809
SWIDTH 656 0
DWIDTH 21 0
BBX 21 18 0 0
BITMAP
000000002A400000000000
000000000CF90000000000
0000000001CFA000000000
00000000001AE100000000
0140000000000000000000
09B0000000000000000000
2FA0000000000000240000
6F700000001000004F5000
9F30000001F600000BE100
AF10000002F9000005F700
9F20000003FB000000FB00
7F40000004FD000000DF00
4F80000005FF100000BF20
0DD000000AFF500000EF10
06F700008FFFC10006FE00
00CF614CFF6AFC76AFF800
002DFFFFF700AFFFFFC100
00018DEA30000477750000
ENDCHAR
STARTCHAR Wacute
ENCODING 7810
SWIDTH 703 0
DWIDTH 23 0
BBX 22 23 0 0
BITMAP
0000000000006000000000
00000000003CE000000000
0000000005FE3000000000
000000005FD30000000000
00000000BD200000000000
0000000041000000000000
0000000000000000000000
2B00000000000000005000
8F0000000000000004F800
AF1000000000000003FF10
AF2000000000000000EF70
AF30000000000000009FC0
9F50000000000000003FF2
8F6000000C400000000CF5
6F8000000EA000000007F9
4F9000000EE000000002FC
1FC000000FF300000000ED
0DE000003FFA00000000ED
09F40000CFFF30000003FA
04FB000AFD8FD200001DF4
00BFA6CFC205FE6226DF90
002DFFFB10004EFFFFF900
00018B60000002AEEA4000
ENDCHAR
STARTCHAR wacute
ENCODING 7811
SWIDTH 656 0
DWIDTH 21 0
BBX 21 21 0 0
BITMAP
0000000000016000000000
00000000003DD000000000
0000000007FE2000000000
000000006FD20000000000
00000000DC100000000000
0000000041000000000000
0000000000000000000000
0140000000000000000000
09B0000000000000000000
2FA0000000000000240000
6F700000001000004F5000
9F30000001F600000BE100
AF10000002F9000005F700
9F20000003FB000000FB00
7F40000004FD000000DF00
4F80000005FF100000BF20
0DD000000AFF500000EF10
06F700008FFFC10006FE00
00CF614CFF6AFC76AFF800
002DFFFFF700AFFFFFC100
00018DEA30000477750000
ENDCHAR
STARTCHAR Wdieresis
ENCODING 7812
SWIDTH 703 0
DWIDTH 23 0
BBX 22 22 0 0
BITMAP
00000002B7002B70000000
0000000BFF40BFF4000000
00000008FD208FE2000000
0000000031000310000000
0000000000000000000000
0000000000000000000000
2B00000000000000005000
8F0000000000000004F800
AF1000000000000003FF10
AF2000000000000000EF70
AF30000000000000009FC0
9F50000000000000003FF2
8F6000000C400000000CF5
6F8000000EA000000007F9
4F9000000EE000000002FC
1FC000000FF300000000ED
0DE000003FFA00000000ED
09F40000CFFF30000003FA
04FB000AFD8FD200001DF4
00BFA6CFC205FE6226DF90
002DFFFB10004EFFFFF900
00018B60000002AEEA4000
ENDCHAR
STARTCHAR wdieresis
ENCODING 7813
SWIDTH 656 0
DWIDTH 21 0
BBX 21 17 0 0
BITMAP
0000000A9100A910000000
0000007FF707FF70000000
0000005FF405FF40000000
0140000220002200000000
09B0000000000000000000
2FA0000000000000240000
6F700000001000004F5000
9F30000001F600000BE100
AF10000002F9000005F700
9F20000003FB000000FB00
7F40000004FD000000DF00
4F80000005FF100000BF20
0DD000000AFF500000EF10
06F700008FFFC10006FE00
00CF614CFF6AFC76AFF800
002DFFFFF700AFFFFFC100
00018DEA30000477750000
ENDCHAR
STARTCHAR Ygrave
ENCODING 7922
SWIDTH 403 0
DWIDTH 13 0
BBX 13 27 0 -1
BITMAP
00007810000000
00004FE3000000
000006FE300000
0000004E700000
00000000000000
36000000000000
6E100000000610
4F800000004F40
1EF30000006F30
07FD100000BF10
00CFB10002FD00
001CFB2009F800
0001AFE85FF300
000006EFFFD000
00000018FF7000
00000000EF1000
00000003FA0000
00000008F50000
0000000CE00000
0000001F900000
0000005F600000
0000007F300000
0000009F100000
000000AF000000
000000AF000000
000000AF100000
00000026000000
ENDCHAR
STARTCHAR ygrave
ENCODING 7923
SWIDTH 487 0
DWIDTH 16 0
BBX 16 34 0 -16
BITMAP
0000009600000000
0000008FC1000000
00000009FD100000
000000007F401000
2800000000008400
6D00000000009900
7F0000000000AC00
6F20000000009F00
4F50000000009F30
2F90000000008F50
0DD0000000007F70
09F3000000006F90
03F9000000008FB0
00AF30000005FFC0
002ED200007FFFD0
0004EE968DFC7DE0
00003CFFFD5007E0
00000035500006F0
00000000000005F0
00000000000006F1
00000000000007F1
00000000000008F0
0000000000000AF0
0000000000000CD0
0000000000000DC0
0000000000001FA0
0210000000003F70
08C1000000006F50
06FB10000000AF10
01DFC1000002FB00
002EFE40000BF400
0001BFFB77CFB000
000005DFFFFD1000
0000000379610000
ENDCHAR
STARTCHAR endash
ENCODING 8211
SWIDTH 287 0
DWIDTH 9 0
BBX 9 4 0 7
BITMAP
0001232100
1BFFFFFF60
6FFDAABEA0
2310000000
ENDCHAR
STARTCHAR emdash
ENCODING 8212
SWIDTH 512 0
DWIDTH 16 0
BBX 16 4 0 7
BITMAP
0000000011122100
027ACEFFFFFFFFD2
3EFFFFEDCCBABCE4
2432100000000000
ENDCHAR
STARTCHAR quoteleft
ENCODING 8216
SWIDTH 102 0
DWIDTH 3 0
BBX 3 9 0 15
BITMAP
0200
5D00
6F40
5F70
4F90
3FA0
1FB0
0BB0
0230
ENDCHAR
STARTCHAR quoteright
ENCODING 8217
SWIDTH 102 0
DWIDTH 3 0
BBX 3 9 0 15
BITMAP
0200
5D00
6F40
5F70
4F90
3FA0
1FB0
0BB0
0230
ENDCHAR
STARTCHAR quotesinglbase
ENCODING 8218
SWIDTH 102 0
DWIDTH 3 0
BBX 3 8 0 -1
BITMAP
1800
4F30
4F70
3FA0
2FC0
0FD0
0CD0
06C0
ENDCHAR
STARTCHAR quotedblleft
ENCODING 8220
SWIDTH 234 0
DWIDTH 8 0
BBX 7 11 0 15
BITMAP
00003300
63007C00
9C007F20
8F107F40
6F506F60
4F906F70
1FC05F80
0CF14F90
07F53F90
01A50D90
00000310
ENDCHAR
STARTCHAR quotedblright
ENCODING 8221
SWIDTH 234 0
DWIDTH 8 0
BBX 7 11 0 15
BITMAP
00003300
63007C00
9C007F20
8F107F40
6F506F60
4F906F70
1FC05F80
0CF14F90
07F53F90
01A50D90
00000310
ENDCHAR
STARTCHAR quotedblbase
ENCODING 8222
SWIDTH 341 0
DWIDTH 11 0
BBX 7 10 2 -4
BITMAP
00005700
97007E00
9E007F30
7F306F50
5F706F70
2FA05F80
0EE04F90
0AF33FA0
04F72FA0
00520B80
ENDCHAR
STARTCHAR dagger
ENCODING 8224
SWIDTH 375 0
DWIDTH 12 0
BBX 12 21 0 0
BITMAP
000071000000
0000C6000000
0000BA000000
00008E000000
00004F400000
00001F700000
00000CA00000
0169BEECCB60
1EFFFFFFFFF1
2A8758F21340
000005F30000
000005F40000
000005F50000
000005F70000
000005F70000
000004F70000
000004F80000
000003F80000
000002F80000
000001FB0000
000000E80000
ENDCHAR
STARTCHAR daggerdbl
ENCODING 8225
SWIDTH 375 0
DWIDTH 12 0
BBX 16 24 -2 0
BITMAP
000000A800000000
000000FD00000000
000000DF10000000
000000AF40000000
0000007F60000000
0000003F80000000
0000000E90000000
0000000BB0000000
0024455BD5555310
7EFFFFFFFFFFFFE3
489AAAABF75449F6
00000003F3000010
00000002F4000000
3ABCDDEEFEFFFC50
2CDDDDDDFEDDDD70
00000001F6000000
00000001F6000000
00000001F7000000
00000001F7000000
00000001F7000000
00000001F8000000
00000001F8000000
00000001FB000000
00000000E8000000
ENDCHAR
STARTCHAR bullet
ENCODING 8226
SWIDTH 341 0
DWIDTH 11 0
BBX 6 7 3 5
BITMAP
003300
06FFA0
2EFFF7
9FFFFD
7FFFFC
1EFFE3
03BA20
ENDCHAR
STARTCHAR ellipsis
ENCODING 8230
SWIDTH 612 0
DWIDTH 20 0
BBX 18 6 1 0
BITMAP
06E70001DC20005F70
1EFF3007FFB001EFF4
7FFF800EFFF106FFF9
8FFF900FFFF107FFF9
3FFF300AFFB002FFF4
08E60002DC20007E70
ENDCHAR
STARTCHAR guilsinglleft
ENCODING 8249
SWIDTH 487 0
DWIDTH 16 0
BBX 15 14 0 0
BITMAP
0000000000000100
0000000000019F70
00000000005EF910
000000001AFD4000
00000005EF910000
0000019FE4000000
00003DF910000000
0008FD4000000000
01BFA10000000000
1BFA000000000000
BFFFB85200000000
5BFFFFFFFDA61000
001368ACDFFFE400
000000000039E700
ENDCHAR
STARTCHAR guilsinglright
ENCODING 8250
SWIDTH 403 0
DWIDTH 13 0
BBX 13 15 0 0
BITMAP
1A810000000000
0DFC2000000000
02BFFA40000000
0005DFFE951000
000004AEFFFE60
0000000036FFA0
0000000002FF70
000000001CFB00
00000003DFA000
0000007FF70000
00002BFD300000
0005EFA1000000
019FE600000000
0CFC2000000000
1E800000000000
ENDCHAR
STARTCHAR fraction
ENCODING 8260
SWIDTH 309 0
DWIDTH 10 0
BBX 10 24 0 0
BITMAP
00000000B3
00000003F4
00000007F2
0000000AE0
0000000DA0
0000004F60
0000009F20
000001EC00
000005F800
00000BF300
00001FD000
00006F8000
0000CF3000
0002FD0000
0008F80000
000DF20000
003FC00000
009F600000
01EE100000
07F9000000
0EF3000000
5FC0000000
9F40000000
6A00000000
ENDCHAR
STARTCHAR Euro
ENCODING 8364
SWIDTH 741 0
DWIDTH 24 0
BBX 23 23 0 0
BITMAP
000000000000000002310000
0000000000000005CFFF5000
00000000000002BFFB5AB000
0000000000003EE820006000
000000000005E91000000000
00000000008FE41000000000
000122346BFFFFFC71000000
3BEFFFFFFFFFFFFFF9000000
DFFDB99DFD50033032000000
3200000AE100000000000000
0000001F6000000000000000
0000006F2000001210000000
000000BF979BDFFFF2000000
14578BFFFFECA86530000000
AFFFEFFA3100000000000000
331006F40000000000000000
000003F50000000000000000
000000F60000000000000000
000000CA0000000000000000
0000007F3000000000013430
0000001EE40000147ADFFFB0
00000004EFECDEFFFFFEB610
0000000029DFFECB86300000
ENDCHAR
STARTCHAR trademark
ENCODING 8482
SWIDTH 1116 0
DWIDTH 36 0
BBX 35 20 0 0
BITMAP
788887766543210000056000000000007200
7CEFFFFFFFFFFFFDCA7DF90000000005F900
000135789AFDA9ACFFFFFF500000000BF900
0000000001F80000047AEFD00000002FF800
0000000000F9000000006FF7000000AFF700
0000000000EA000000004FFF500007FFF500
0000000000DB000000005FBFFA77CFFFF400
0000000000CD000000005F55EFFFFE9DF500
0000000000BF000000006F5027985106F600
00000000009F200000007F5000000004F700
00000000008F400000007F5000000003F900
00000000006F600000008F5000000002FB00
00000000005F800000009F5000000000FE00
00000000003FB00000009F5000000000EF10
00000000001FD00000009F5000000000CF40
00000000000EF10000009F5000000000BF70
00000000000CF40000009F50000000009F90
00000000000AFA0000009F50000000007FA0
000000000006FF3000006F40000000006FB0
000000000001DF5000000100000000003FB0
ENDCHAR
STARTCHAR minus
ENCODING 8722
SWIDTH 287 0
DWIDTH 9 0
BBX 9 4 0 7
BITMAP
0001232100
1BFFFFFF60
6FFDAABEA0
2310000000
ENDCHAR
STARTCHAR commaaccent
ENCODING 63171
SWIDTH 375 0
DWIDTH 12 0
BBX 4 8 3 -11
BITMAP
1A60
4FE1
1CF2
0AF2
0CF1
5FC0
5F40
0100
ENDCHAR
STARTCHAR fi
ENCODING 64257
SWIDTH 551 0
DWIDTH 18 0
BBX 16 24 -1 -1
BITMAP
0000000057730000
0000003DFFFFB200
000002EFA54AFE30
00000BF500008FD1
00002F70008408F6
00007E1000DE1032
0000AA0000361000
0000C90000000000
0000E90000000000
0000FB0000016000
0000FD000005F300
0000FF000005F300
0002FF743106F400
1BFFFFFFFFFFF500
3DA79FFBCDDCF800
00000EF40004FB00
000007F90003FD00
000001EF2001FF10
0000008FB000FF40
0000001EF600DF70
00000008FE10BF90
00000001EF808FA0
000000003D904F90
0000000000000830
ENDCHAR
STARTCHAR fl
ENCODING 64258
SWIDTH 723 0
DWIDTH 23 0
BBX 16 24 -1 -1
BITMAP
0000000057730000
0000003DFFFFB200
000002EFA54AFE30
00000BF500008FD1
00002F70000008F6
00007E10000C8032
0000AA00000CE000
0000C900000CF000
0000E900000DF100
0000FB00000DF200
0000FD00000DF200
0000FF00000DF300
0002FF74310EF300
1BFFFFFFFFFFF300
3DA79FFBCDCFF400
00000EF4000EF400
000007F9000EF400
000001EF200DF400
0000008FB00DF400
0000001EF60CF300
00000008FE1AF200
00000001EF89F100
000000003D97D000
0000000000011000
ENDCHAR
STARTCHAR .notdef
ENCODING -1
SWIDTH 375 0
DWIDTH 12 0
BBX 1 1 0 0
BITMAP
00
ENDCHAR
STARTCHAR .null
ENCODING -1
SWIDTH 0 0
DWIDTH 0 0
BBX 1 1 0 0
BITMAP
00
ENDCHAR
STARTCHAR nonmarkingreturn
ENCODING -1
SWIDTH 375 0
DWIDTH 12 0
BBX 1 1 0 0
BITMAP
00
ENDCHAR
ENDFONT
